<svg width="300" height="200" viewBox="0 0 300 200" fill="none" xmlns="http://www.w3.org/2000/svg">
<path d="M0 0H300V200L146.7 155.556L0 200V0Z" fill="white"/>
<path d="M83.62 125V113.364H85.0291V123.75H90.4382V125H83.62ZM95.0064 125.205C94.4534 125.205 93.9515 125.1 93.5007 124.892C93.05 124.68 92.692 124.375 92.4268 123.977C92.1617 123.576 92.0291 123.091 92.0291 122.523C92.0291 122.023 92.1276 121.617 92.3246 121.307C92.5215 120.992 92.7848 120.746 93.1143 120.568C93.4439 120.39 93.8075 120.258 94.2053 120.17C94.6068 120.08 95.0102 120.008 95.4155 119.955C95.9458 119.886 96.3757 119.835 96.7053 119.801C97.0386 119.763 97.281 119.701 97.4325 119.614C97.5878 119.527 97.6655 119.375 97.6655 119.159V119.114C97.6655 118.553 97.5121 118.117 97.2053 117.807C96.9022 117.496 96.442 117.341 95.8246 117.341C95.1844 117.341 94.6825 117.481 94.3189 117.761C93.9553 118.042 93.6996 118.341 93.5518 118.659L92.2791 118.205C92.5064 117.674 92.8094 117.261 93.1882 116.966C93.5708 116.667 93.9875 116.458 94.4382 116.341C94.8928 116.22 95.3397 116.159 95.7791 116.159C96.0594 116.159 96.3814 116.193 96.745 116.261C97.1125 116.326 97.4666 116.46 97.8075 116.665C98.1522 116.869 98.4382 117.178 98.6655 117.591C98.8928 118.004 99.0064 118.557 99.0064 119.25V125H97.6655V123.818H97.5973C97.5064 124.008 97.3549 124.21 97.1428 124.426C96.9306 124.642 96.6484 124.826 96.2962 124.977C95.9439 125.129 95.514 125.205 95.0064 125.205ZM95.2109 124C95.7412 124 96.1882 123.896 96.5518 123.688C96.9193 123.479 97.1958 123.21 97.3814 122.881C97.5708 122.551 97.6655 122.205 97.6655 121.841V120.614C97.6087 120.682 97.4837 120.744 97.2905 120.801C97.1011 120.854 96.8814 120.902 96.6314 120.943C96.3852 120.981 96.1446 121.015 95.9098 121.045C95.6787 121.072 95.4912 121.095 95.3473 121.114C94.9988 121.159 94.6731 121.233 94.37 121.335C94.0708 121.434 93.8284 121.583 93.6428 121.784C93.4609 121.981 93.37 122.25 93.37 122.591C93.37 123.057 93.5424 123.409 93.8871 123.648C94.2356 123.883 94.6768 124 95.2109 124ZM105.954 125V116.273H107.249V117.636H107.363C107.545 117.17 107.838 116.809 108.244 116.551C108.649 116.29 109.136 116.159 109.704 116.159C110.28 116.159 110.759 116.29 111.141 116.551C111.528 116.809 111.829 117.17 112.045 117.636H112.136C112.359 117.186 112.694 116.828 113.141 116.562C113.588 116.294 114.124 116.159 114.749 116.159C115.53 116.159 116.168 116.403 116.664 116.892C117.16 117.377 117.408 118.133 117.408 119.159V125H116.067V119.159C116.067 118.515 115.891 118.055 115.539 117.778C115.187 117.502 114.772 117.364 114.295 117.364C113.681 117.364 113.206 117.549 112.869 117.92C112.531 118.288 112.363 118.754 112.363 119.318V125H110.999V119.023C110.999 118.527 110.838 118.127 110.516 117.824C110.194 117.517 109.78 117.364 109.272 117.364C108.924 117.364 108.598 117.456 108.295 117.642C107.996 117.828 107.753 118.085 107.567 118.415C107.386 118.741 107.295 119.117 107.295 119.545V125H105.954ZM123.519 125.182C122.678 125.182 121.953 124.996 121.343 124.625C120.737 124.25 120.269 123.727 119.94 123.057C119.614 122.383 119.451 121.598 119.451 120.705C119.451 119.811 119.614 119.023 119.94 118.341C120.269 117.655 120.728 117.121 121.315 116.739C121.906 116.352 122.595 116.159 123.383 116.159C123.837 116.159 124.286 116.235 124.729 116.386C125.173 116.538 125.576 116.784 125.94 117.125C126.303 117.462 126.593 117.909 126.809 118.466C127.025 119.023 127.133 119.708 127.133 120.523V121.091H120.406V119.932H125.769C125.769 119.439 125.671 119 125.474 118.614C125.281 118.227 125.004 117.922 124.644 117.699C124.288 117.475 123.868 117.364 123.383 117.364C122.849 117.364 122.387 117.496 121.996 117.761C121.61 118.023 121.313 118.364 121.104 118.784C120.896 119.205 120.792 119.655 120.792 120.136V120.909C120.792 121.568 120.906 122.127 121.133 122.585C121.364 123.04 121.684 123.386 122.093 123.625C122.502 123.86 122.978 123.977 123.519 123.977C123.871 123.977 124.19 123.928 124.474 123.83C124.762 123.727 125.01 123.576 125.218 123.375C125.426 123.17 125.587 122.917 125.701 122.614L126.996 122.977C126.86 123.417 126.631 123.803 126.309 124.136C125.987 124.466 125.589 124.723 125.116 124.909C124.642 125.091 124.11 125.182 123.519 125.182ZM129.173 116.273H130.513V125.636C130.513 126.174 130.421 126.64 130.235 127.034C130.053 127.428 129.777 127.733 129.406 127.949C129.038 128.165 128.574 128.273 128.013 128.273C127.968 128.273 127.923 128.273 127.877 128.273C127.832 128.273 127.786 128.273 127.741 128.273V127.023C127.786 127.023 127.828 127.023 127.866 127.023C127.904 127.023 127.945 127.023 127.991 127.023C128.4 127.023 128.699 126.902 128.888 126.659C129.078 126.42 129.173 126.08 129.173 125.636V116.273ZM129.832 114.818C129.57 114.818 129.345 114.729 129.156 114.551C128.97 114.373 128.877 114.159 128.877 113.909C128.877 113.659 128.97 113.445 129.156 113.267C129.345 113.089 129.57 113 129.832 113C130.093 113 130.317 113.089 130.502 113.267C130.692 113.445 130.786 113.659 130.786 113.909C130.786 114.159 130.692 114.373 130.502 114.551C130.317 114.729 130.093 114.818 129.832 114.818ZM136.515 125.182C135.727 125.182 135.036 124.994 134.441 124.619C133.85 124.244 133.388 123.72 133.055 123.045C132.725 122.371 132.56 121.583 132.56 120.682C132.56 119.773 132.725 118.979 133.055 118.301C133.388 117.623 133.85 117.097 134.441 116.722C135.036 116.347 135.727 116.159 136.515 116.159C137.303 116.159 137.992 116.347 138.583 116.722C139.178 117.097 139.64 117.623 139.969 118.301C140.303 118.979 140.469 119.773 140.469 120.682C140.469 121.583 140.303 122.371 139.969 123.045C139.64 123.72 139.178 124.244 138.583 124.619C137.992 124.994 137.303 125.182 136.515 125.182ZM136.515 123.977C137.113 123.977 137.606 123.824 137.992 123.517C138.379 123.21 138.665 122.807 138.85 122.307C139.036 121.807 139.129 121.265 139.129 120.682C139.129 120.098 139.036 119.555 138.85 119.051C138.665 118.547 138.379 118.14 137.992 117.83C137.606 117.519 137.113 117.364 136.515 117.364C135.916 117.364 135.424 117.519 135.038 117.83C134.651 118.14 134.365 118.547 134.18 119.051C133.994 119.555 133.901 120.098 133.901 120.682C133.901 121.265 133.994 121.807 134.18 122.307C134.365 122.807 134.651 123.21 135.038 123.517C135.424 123.824 135.916 123.977 136.515 123.977ZM142.516 125V116.273H143.812V117.591H143.903C144.062 117.159 144.35 116.809 144.766 116.54C145.183 116.271 145.653 116.136 146.175 116.136C146.274 116.136 146.397 116.138 146.545 116.142C146.692 116.146 146.804 116.152 146.88 116.159V117.523C146.835 117.511 146.73 117.494 146.567 117.472C146.408 117.445 146.24 117.432 146.062 117.432C145.638 117.432 145.259 117.521 144.925 117.699C144.596 117.873 144.335 118.116 144.141 118.426C143.952 118.733 143.857 119.083 143.857 119.477V125H142.516ZM155.538 125.205C154.985 125.205 154.483 125.1 154.032 124.892C153.581 124.68 153.223 124.375 152.958 123.977C152.693 123.576 152.56 123.091 152.56 122.523C152.56 122.023 152.659 121.617 152.856 121.307C153.053 120.992 153.316 120.746 153.646 120.568C153.975 120.39 154.339 120.258 154.737 120.17C155.138 120.08 155.541 120.008 155.947 119.955C156.477 119.886 156.907 119.835 157.237 119.801C157.57 119.763 157.812 119.701 157.964 119.614C158.119 119.527 158.197 119.375 158.197 119.159V119.114C158.197 118.553 158.043 118.117 157.737 117.807C157.433 117.496 156.973 117.341 156.356 117.341C155.716 117.341 155.214 117.481 154.85 117.761C154.487 118.042 154.231 118.341 154.083 118.659L152.81 118.205C153.038 117.674 153.341 117.261 153.719 116.966C154.102 116.667 154.519 116.458 154.969 116.341C155.424 116.22 155.871 116.159 156.31 116.159C156.591 116.159 156.913 116.193 157.276 116.261C157.644 116.326 157.998 116.46 158.339 116.665C158.683 116.869 158.969 117.178 159.197 117.591C159.424 118.004 159.538 118.557 159.538 119.25V125H158.197V123.818H158.129C158.038 124.008 157.886 124.21 157.674 124.426C157.462 124.642 157.18 124.826 156.827 124.977C156.475 125.129 156.045 125.205 155.538 125.205ZM155.742 124C156.272 124 156.719 123.896 157.083 123.688C157.451 123.479 157.727 123.21 157.913 122.881C158.102 122.551 158.197 122.205 158.197 121.841V120.614C158.14 120.682 158.015 120.744 157.822 120.801C157.632 120.854 157.413 120.902 157.163 120.943C156.916 120.981 156.676 121.015 156.441 121.045C156.21 121.072 156.022 121.095 155.879 121.114C155.53 121.159 155.204 121.233 154.901 121.335C154.602 121.434 154.36 121.583 154.174 121.784C153.992 121.981 153.901 122.25 153.901 122.591C153.901 123.057 154.074 123.409 154.418 123.648C154.767 123.883 155.208 124 155.742 124ZM165.781 116.273V117.409H161.258V116.273H165.781ZM162.576 114.182H163.917V122.5C163.917 122.879 163.972 123.163 164.082 123.352C164.195 123.538 164.339 123.663 164.513 123.727C164.692 123.788 164.879 123.818 165.076 123.818C165.224 123.818 165.345 123.811 165.44 123.795C165.534 123.777 165.61 123.761 165.667 123.75L165.94 124.955C165.849 124.989 165.722 125.023 165.559 125.057C165.396 125.095 165.19 125.114 164.94 125.114C164.561 125.114 164.19 125.032 163.826 124.869C163.466 124.706 163.167 124.458 162.928 124.125C162.693 123.792 162.576 123.371 162.576 122.864V114.182ZM171.363 125.182C170.522 125.182 169.797 124.996 169.187 124.625C168.581 124.25 168.113 123.727 167.783 123.057C167.458 122.383 167.295 121.598 167.295 120.705C167.295 119.811 167.458 119.023 167.783 118.341C168.113 117.655 168.571 117.121 169.158 116.739C169.749 116.352 170.439 116.159 171.227 116.159C171.681 116.159 172.13 116.235 172.573 116.386C173.016 116.538 173.42 116.784 173.783 117.125C174.147 117.462 174.437 117.909 174.653 118.466C174.869 119.023 174.977 119.708 174.977 120.523V121.091H168.249V119.932H173.613C173.613 119.439 173.514 119 173.317 118.614C173.124 118.227 172.848 117.922 172.488 117.699C172.132 117.475 171.711 117.364 171.227 117.364C170.692 117.364 170.23 117.496 169.84 117.761C169.454 118.023 169.156 118.364 168.948 118.784C168.74 119.205 168.636 119.655 168.636 120.136V120.909C168.636 121.568 168.749 122.127 168.977 122.585C169.208 123.04 169.528 123.386 169.937 123.625C170.346 123.86 170.821 123.977 171.363 123.977C171.715 123.977 172.033 123.928 172.317 123.83C172.605 123.727 172.853 123.576 173.062 123.375C173.27 123.17 173.431 122.917 173.545 122.614L174.84 122.977C174.704 123.417 174.475 123.803 174.153 124.136C173.831 124.466 173.433 124.723 172.96 124.909C172.486 125.091 171.954 125.182 171.363 125.182ZM178.357 119.75V125H177.016V116.273H178.312V117.636H178.425C178.63 117.193 178.941 116.837 179.357 116.568C179.774 116.295 180.312 116.159 180.971 116.159C181.562 116.159 182.079 116.28 182.522 116.523C182.965 116.761 183.31 117.125 183.556 117.614C183.802 118.098 183.925 118.712 183.925 119.455V125H182.585V119.545C182.585 118.86 182.406 118.326 182.05 117.943C181.694 117.557 181.206 117.364 180.585 117.364C180.156 117.364 179.774 117.456 179.437 117.642C179.103 117.828 178.84 118.098 178.647 118.455C178.454 118.811 178.357 119.242 178.357 119.75ZM189.921 125.182C189.103 125.182 188.398 124.989 187.808 124.602C187.217 124.216 186.762 123.684 186.444 123.006C186.126 122.328 185.967 121.553 185.967 120.682C185.967 119.795 186.129 119.013 186.455 118.335C186.785 117.653 187.243 117.121 187.83 116.739C188.421 116.352 189.111 116.159 189.898 116.159C190.512 116.159 191.065 116.273 191.558 116.5C192.05 116.727 192.453 117.045 192.768 117.455C193.082 117.864 193.277 118.341 193.353 118.886H192.012C191.91 118.489 191.683 118.136 191.33 117.83C190.982 117.519 190.512 117.364 189.921 117.364C189.398 117.364 188.94 117.5 188.546 117.773C188.156 118.042 187.851 118.422 187.631 118.915C187.415 119.403 187.308 119.977 187.308 120.636C187.308 121.311 187.414 121.898 187.626 122.398C187.842 122.898 188.145 123.286 188.535 123.562C188.929 123.839 189.391 123.977 189.921 123.977C190.27 123.977 190.586 123.917 190.87 123.795C191.154 123.674 191.395 123.5 191.592 123.273C191.789 123.045 191.929 122.773 192.012 122.455H193.353C193.277 122.97 193.09 123.434 192.79 123.847C192.495 124.256 192.103 124.581 191.614 124.824C191.129 125.062 190.565 125.182 189.921 125.182ZM195.313 125V116.273H196.654V125H195.313ZM195.995 114.818C195.734 114.818 195.508 114.729 195.319 114.551C195.133 114.373 195.04 114.159 195.04 113.909C195.04 113.659 195.133 113.445 195.319 113.267C195.508 113.089 195.734 113 195.995 113C196.256 113 196.48 113.089 196.665 113.267C196.855 113.445 196.95 113.659 196.95 113.909C196.95 114.159 196.855 114.373 196.665 114.551C196.48 114.729 196.256 114.818 195.995 114.818ZM202.656 125.182C201.868 125.182 201.176 124.994 200.582 124.619C199.991 124.244 199.529 123.72 199.195 123.045C198.866 122.371 198.701 121.583 198.701 120.682C198.701 119.773 198.866 118.979 199.195 118.301C199.529 117.623 199.991 117.097 200.582 116.722C201.176 116.347 201.868 116.159 202.656 116.159C203.443 116.159 204.133 116.347 204.724 116.722C205.318 117.097 205.781 117.623 206.11 118.301C206.443 118.979 206.61 119.773 206.61 120.682C206.61 121.583 206.443 122.371 206.11 123.045C205.781 123.72 205.318 124.244 204.724 124.619C204.133 124.994 203.443 125.182 202.656 125.182ZM202.656 123.977C203.254 123.977 203.746 123.824 204.133 123.517C204.519 123.21 204.805 122.807 204.991 122.307C205.176 121.807 205.269 121.265 205.269 120.682C205.269 120.098 205.176 119.555 204.991 119.051C204.805 118.547 204.519 118.14 204.133 117.83C203.746 117.519 203.254 117.364 202.656 117.364C202.057 117.364 201.565 117.519 201.178 117.83C200.792 118.14 200.506 118.547 200.32 119.051C200.135 119.555 200.042 120.098 200.042 120.682C200.042 121.265 200.135 121.807 200.32 122.307C200.506 122.807 200.792 123.21 201.178 123.517C201.565 123.824 202.057 123.977 202.656 123.977ZM209.998 119.75V125H208.657V116.273H209.952V117.636H210.066C210.271 117.193 210.581 116.837 210.998 116.568C211.415 116.295 211.952 116.159 212.612 116.159C213.202 116.159 213.719 116.28 214.163 116.523C214.606 116.761 214.951 117.125 215.197 117.614C215.443 118.098 215.566 118.712 215.566 119.455V125H214.225V119.545C214.225 118.86 214.047 118.326 213.691 117.943C213.335 117.557 212.846 117.364 212.225 117.364C211.797 117.364 211.415 117.456 211.077 117.642C210.744 117.828 210.481 118.098 210.288 118.455C210.094 118.811 209.998 119.242 209.998 119.75Z" fill="#7FB26F"/>
<g clip-path="url(#clip0_0_1)">
<path d="M150 95C140.717 95 131.815 91.3125 125.251 84.7487C118.687 78.185 115 69.2826 115 60C115 50.7174 118.687 41.815 125.251 35.2513C131.815 28.6875 140.717 25 150 25C159.283 25 168.185 28.6875 174.749 35.2513C181.313 41.815 185 50.7174 185 60C185 69.2826 181.313 78.185 174.749 84.7487C168.185 91.3125 159.283 95 150 95ZM150 100C160.609 100 170.783 95.7857 178.284 88.2843C185.786 80.7828 190 70.6087 190 60C190 49.3913 185.786 39.2172 178.284 31.7157C170.783 24.2143 160.609 20 150 20C139.391 20 129.217 24.2143 121.716 31.7157C114.214 39.2172 110 49.3913 110 60C110 70.6087 114.214 80.7828 121.716 88.2843C129.217 95.7857 139.391 100 150 100Z" fill="#7FB26F"/>
<path d="M131.425 67.835C131.999 67.5035 132.682 67.4137 133.322 67.5853C133.962 67.7568 134.508 68.1758 134.84 68.75C136.376 71.4117 138.585 73.6218 141.247 75.1579C143.908 76.694 146.927 77.5018 150 77.5C153.073 77.5018 156.092 76.694 158.753 75.1579C161.415 73.6218 163.624 71.4117 165.16 68.75C165.323 68.4634 165.541 68.2118 165.802 68.0098C166.062 67.8078 166.36 67.6594 166.678 67.573C166.996 67.4866 167.329 67.464 167.656 67.5065C167.982 67.549 168.298 67.6557 168.583 67.8206C168.869 67.9854 169.119 68.2051 169.319 68.467C169.519 68.729 169.666 69.0279 169.75 69.3466C169.835 69.6654 169.855 69.9977 169.81 70.3243C169.766 70.651 169.657 70.9656 169.49 71.25C167.516 74.6718 164.675 77.5131 161.253 79.488C157.832 81.4629 153.951 82.5018 150 82.5C146.049 82.5018 142.168 81.4629 138.747 79.488C135.325 77.5131 132.484 74.6718 130.51 71.25C130.179 70.6758 130.089 69.9934 130.26 69.353C130.432 68.7126 130.851 68.1665 131.425 67.835ZM145 52.5C145 56.64 142.76 60 140 60C137.24 60 135 56.64 135 52.5C135 48.36 137.24 45 140 45C142.76 45 145 48.36 145 52.5ZM165 52.5C165 56.64 162.76 60 160 60C157.24 60 155 56.64 155 52.5C155 48.36 157.24 45 160 45C162.76 45 165 48.36 165 52.5Z" fill="#7FB26F"/>
</g>
<defs>
<clipPath id="clip0_0_1">
<rect width="80" height="80" fill="white" transform="translate(110 20)"/>
</clipPath>
</defs>
</svg>
