<svg width="300" height="270" viewBox="0 0 300 270" fill="none" xmlns="http://www.w3.org/2000/svg">
<path d="M0 0H300V270L146.7 210.001L0 270V0Z" fill="white"/>
<mask id="mask0_11_42" style="mask-type:luminance" maskUnits="userSpaceOnUse" x="110" y="20" width="80" height="80">
<path d="M190 20H110V100H190V20Z" fill="white"/>
</mask>
<g mask="url(#mask0_11_42)">
<path d="M150 95C140.717 95 131.815 91.3125 125.251 84.7487C118.687 78.185 115 69.2826 115 60C115 50.7174 118.687 41.815 125.251 35.2513C131.815 28.6875 140.717 25 150 25C159.283 25 168.185 28.6875 174.749 35.2513C181.313 41.815 185 50.7174 185 60C185 69.2826 181.313 78.185 174.749 84.7487C168.185 91.3125 159.283 95 150 95ZM150 100C160.609 100 170.783 95.7857 178.284 88.2843C185.786 80.7828 190 70.6087 190 60C190 49.3913 185.786 39.2172 178.284 31.7157C170.783 24.2143 160.609 20 150 20C139.391 20 129.217 24.2143 121.716 31.7157C114.214 39.2172 110 49.3913 110 60C110 70.6087 114.214 80.7828 121.716 88.2843C129.217 95.7857 139.391 100 150 100Z" fill="#7FB26F"/>
<path d="M131.425 67.835C131.999 67.5035 132.682 67.4137 133.322 67.5853C133.962 67.7568 134.508 68.1758 134.84 68.75C136.376 71.4117 138.585 73.6218 141.247 75.1579C143.908 76.694 146.927 77.5018 150 77.5C153.073 77.5018 156.092 76.694 158.753 75.1579C161.415 73.6218 163.624 71.4117 165.16 68.75C165.323 68.4634 165.541 68.2118 165.802 68.0098C166.062 67.8078 166.36 67.6594 166.678 67.573C166.996 67.4866 167.329 67.464 167.656 67.5065C167.982 67.549 168.298 67.6557 168.583 67.8206C168.869 67.9854 169.119 68.2051 169.319 68.467C169.519 68.729 169.666 69.0279 169.75 69.3466C169.835 69.6654 169.855 69.9977 169.81 70.3243C169.766 70.651 169.657 70.9656 169.49 71.25C167.516 74.6718 164.675 77.5131 161.253 79.488C157.832 81.4629 153.951 82.5018 150 82.5C146.049 82.5018 142.168 81.4629 138.747 79.488C135.325 77.5131 132.484 74.6718 130.51 71.25C130.179 70.6758 130.089 69.9934 130.26 69.353C130.432 68.7126 130.851 68.1665 131.425 67.835ZM145 52.5C145 56.64 142.76 60 140 60C137.24 60 135 56.64 135 52.5C135 48.36 137.24 45 140 45C142.76 45 145 48.36 145 52.5ZM165 52.5C165 56.64 162.76 60 160 60C157.24 60 155 56.64 155 52.5C155 48.36 157.24 45 160 45C162.76 45 165 48.36 165 52.5Z" fill="#7FB26F"/>
</g>
<path d="M99.13 134.547V137H87.755V134.547H99.13ZM88.3487 114.25V137H85.3331V114.25H88.3487ZM113.394 134.109V125.406C113.394 124.74 113.259 124.161 112.988 123.672C112.728 123.172 112.332 122.786 111.801 122.516C111.269 122.245 110.613 122.109 109.832 122.109C109.103 122.109 108.462 122.234 107.91 122.484C107.368 122.734 106.941 123.062 106.629 123.469C106.327 123.875 106.176 124.312 106.176 124.781H103.285C103.285 124.177 103.441 123.578 103.754 122.984C104.066 122.391 104.514 121.854 105.097 121.375C105.691 120.885 106.4 120.5 107.222 120.219C108.056 119.927 108.983 119.781 110.004 119.781C111.233 119.781 112.316 119.99 113.254 120.406C114.202 120.823 114.941 121.453 115.472 122.297C116.014 123.13 116.285 124.177 116.285 125.438V133.312C116.285 133.875 116.332 134.474 116.426 135.109C116.53 135.745 116.681 136.292 116.879 136.75V137H113.863C113.717 136.667 113.603 136.224 113.519 135.672C113.436 135.109 113.394 134.589 113.394 134.109ZM113.894 126.75L113.926 128.781H111.004C110.181 128.781 109.446 128.849 108.801 128.984C108.155 129.109 107.613 129.302 107.176 129.562C106.738 129.823 106.405 130.151 106.176 130.547C105.946 130.932 105.832 131.385 105.832 131.906C105.832 132.438 105.952 132.922 106.191 133.359C106.431 133.797 106.79 134.146 107.269 134.406C107.759 134.656 108.358 134.781 109.066 134.781C109.952 134.781 110.733 134.594 111.41 134.219C112.087 133.844 112.624 133.385 113.019 132.844C113.426 132.302 113.644 131.776 113.676 131.266L114.91 132.656C114.837 133.094 114.639 133.578 114.316 134.109C113.993 134.641 113.561 135.151 113.019 135.641C112.488 136.12 111.853 136.521 111.113 136.844C110.384 137.156 109.561 137.312 108.644 137.312C107.499 137.312 106.493 137.089 105.629 136.641C104.775 136.193 104.108 135.594 103.629 134.844C103.16 134.083 102.926 133.234 102.926 132.297C102.926 131.391 103.103 130.594 103.457 129.906C103.811 129.208 104.321 128.63 104.988 128.172C105.655 127.703 106.457 127.349 107.394 127.109C108.332 126.87 109.379 126.75 110.535 126.75H113.894ZM134.204 123.453V137H131.298V120.094H134.048L134.204 123.453ZM133.611 127.906L132.267 127.859C132.277 126.703 132.428 125.635 132.72 124.656C133.012 123.667 133.444 122.807 134.017 122.078C134.59 121.349 135.303 120.786 136.158 120.391C137.012 119.984 138.001 119.781 139.126 119.781C139.918 119.781 140.647 119.896 141.314 120.125C141.98 120.344 142.559 120.693 143.048 121.172C143.538 121.651 143.918 122.266 144.189 123.016C144.46 123.766 144.595 124.672 144.595 125.734V137H141.704V125.875C141.704 124.99 141.553 124.281 141.251 123.75C140.96 123.219 140.543 122.833 140.001 122.594C139.46 122.344 138.824 122.219 138.095 122.219C137.241 122.219 136.527 122.37 135.954 122.672C135.381 122.974 134.923 123.391 134.579 123.922C134.236 124.453 133.986 125.062 133.829 125.75C133.684 126.427 133.611 127.146 133.611 127.906ZM144.564 126.312L142.626 126.906C142.637 125.979 142.788 125.089 143.079 124.234C143.381 123.38 143.814 122.62 144.376 121.953C144.949 121.286 145.652 120.76 146.486 120.375C147.319 119.979 148.272 119.781 149.345 119.781C150.251 119.781 151.053 119.901 151.751 120.141C152.46 120.38 153.053 120.75 153.533 121.25C154.022 121.74 154.392 122.37 154.642 123.141C154.892 123.911 155.017 124.828 155.017 125.891V137H152.111V125.859C152.111 124.911 151.96 124.177 151.658 123.656C151.366 123.125 150.949 122.755 150.408 122.547C149.876 122.328 149.241 122.219 148.501 122.219C147.866 122.219 147.303 122.328 146.814 122.547C146.324 122.766 145.913 123.068 145.579 123.453C145.246 123.828 144.991 124.26 144.814 124.75C144.647 125.24 144.564 125.76 144.564 126.312ZM167.688 137.312C166.51 137.312 165.443 137.115 164.484 136.719C163.536 136.312 162.719 135.745 162.031 135.016C161.354 134.286 160.833 133.422 160.469 132.422C160.104 131.422 159.922 130.328 159.922 129.141V128.484C159.922 127.109 160.125 125.885 160.531 124.812C160.938 123.729 161.49 122.812 162.188 122.062C162.885 121.312 163.677 120.745 164.562 120.359C165.448 119.974 166.365 119.781 167.312 119.781C168.521 119.781 169.562 119.99 170.438 120.406C171.323 120.823 172.047 121.406 172.609 122.156C173.172 122.896 173.589 123.771 173.859 124.781C174.13 125.781 174.266 126.875 174.266 128.062V129.359H161.641V127H171.375V126.781C171.333 126.031 171.177 125.302 170.906 124.594C170.646 123.885 170.229 123.302 169.656 122.844C169.083 122.385 168.302 122.156 167.312 122.156C166.656 122.156 166.052 122.297 165.5 122.578C164.948 122.849 164.474 123.255 164.078 123.797C163.682 124.339 163.375 125 163.156 125.781C162.938 126.562 162.828 127.464 162.828 128.484V129.141C162.828 129.943 162.938 130.698 163.156 131.406C163.385 132.104 163.714 132.719 164.141 133.25C164.578 133.781 165.104 134.198 165.719 134.5C166.344 134.802 167.052 134.953 167.844 134.953C168.865 134.953 169.729 134.745 170.438 134.328C171.146 133.911 171.766 133.354 172.297 132.656L174.047 134.047C173.682 134.599 173.219 135.125 172.656 135.625C172.094 136.125 171.401 136.531 170.578 136.844C169.766 137.156 168.802 137.312 167.688 137.312ZM178.999 120.094H181.905V139.016C181.905 140.047 181.738 140.922 181.405 141.641C181.082 142.359 180.592 142.901 179.936 143.266C179.29 143.641 178.473 143.828 177.483 143.828C177.223 143.828 176.921 143.802 176.577 143.75C176.223 143.698 175.926 143.635 175.686 143.562L175.702 141.234C175.9 141.276 176.124 141.307 176.374 141.328C176.624 141.359 176.842 141.375 177.03 141.375C177.457 141.375 177.816 141.297 178.108 141.141C178.4 140.984 178.619 140.734 178.764 140.391C178.921 140.047 178.999 139.589 178.999 139.016V120.094ZM178.702 115.609C178.702 115.141 178.848 114.745 179.139 114.422C179.431 114.099 179.853 113.938 180.405 113.938C180.967 113.938 181.395 114.099 181.686 114.422C181.978 114.745 182.124 115.141 182.124 115.609C182.124 116.057 181.978 116.443 181.686 116.766C181.395 117.078 180.967 117.234 180.405 117.234C179.853 117.234 179.431 117.078 179.139 116.766C178.848 116.443 178.702 116.057 178.702 115.609ZM187.091 128.734V128.375C187.091 127.156 187.268 126.026 187.622 124.984C187.977 123.932 188.487 123.021 189.154 122.25C189.82 121.469 190.628 120.865 191.576 120.438C192.524 120 193.586 119.781 194.763 119.781C195.951 119.781 197.018 120 197.966 120.438C198.925 120.865 199.737 121.469 200.404 122.25C201.081 123.021 201.596 123.932 201.951 124.984C202.305 126.026 202.482 127.156 202.482 128.375V128.734C202.482 129.953 202.305 131.083 201.951 132.125C201.596 133.167 201.081 134.078 200.404 134.859C199.737 135.63 198.93 136.234 197.982 136.672C197.044 137.099 195.982 137.312 194.794 137.312C193.607 137.312 192.539 137.099 191.591 136.672C190.643 136.234 189.831 135.63 189.154 134.859C188.487 134.078 187.977 133.167 187.622 132.125C187.268 131.083 187.091 129.953 187.091 128.734ZM189.982 128.375V128.734C189.982 129.578 190.081 130.375 190.279 131.125C190.477 131.865 190.774 132.521 191.169 133.094C191.576 133.667 192.081 134.12 192.685 134.453C193.289 134.776 193.992 134.938 194.794 134.938C195.586 134.938 196.279 134.776 196.872 134.453C197.477 134.12 197.977 133.667 198.372 133.094C198.768 132.521 199.065 131.865 199.263 131.125C199.471 130.375 199.576 129.578 199.576 128.734V128.375C199.576 127.542 199.471 126.755 199.263 126.016C199.065 125.266 198.763 124.604 198.357 124.031C197.961 123.448 197.461 122.99 196.857 122.656C196.263 122.323 195.565 122.156 194.763 122.156C193.971 122.156 193.274 122.323 192.669 122.656C192.076 122.99 191.576 123.448 191.169 124.031C190.774 124.604 190.477 125.266 190.279 126.016C190.081 126.755 189.982 127.542 189.982 128.375ZM210.277 122.75V137H207.387V120.094H210.199L210.277 122.75ZM215.559 120L215.543 122.688C215.304 122.635 215.074 122.604 214.856 122.594C214.647 122.573 214.408 122.562 214.137 122.562C213.47 122.562 212.882 122.667 212.371 122.875C211.861 123.083 211.429 123.375 211.074 123.75C210.72 124.125 210.439 124.573 210.231 125.094C210.033 125.604 209.902 126.167 209.84 126.781L209.027 127.25C209.027 126.229 209.126 125.271 209.324 124.375C209.533 123.479 209.85 122.688 210.277 122C210.705 121.302 211.246 120.76 211.902 120.375C212.569 119.979 213.361 119.781 214.277 119.781C214.486 119.781 214.725 119.807 214.996 119.859C215.267 119.901 215.455 119.948 215.559 120ZM96.1919 172.109V163.406C96.1919 162.74 96.0565 162.161 95.7856 161.672C95.5252 161.172 95.1294 160.786 94.5981 160.516C94.0669 160.245 93.4106 160.109 92.6294 160.109C91.9002 160.109 91.2596 160.234 90.7075 160.484C90.1658 160.734 89.7387 161.062 89.4262 161.469C89.1242 161.875 88.9731 162.312 88.9731 162.781H86.0825C86.0825 162.177 86.2387 161.578 86.5512 160.984C86.8637 160.391 87.3117 159.854 87.895 159.375C88.4887 158.885 89.1971 158.5 90.02 158.219C90.8533 157.927 91.7804 157.781 92.8012 157.781C94.0304 157.781 95.1137 157.99 96.0512 158.406C96.9992 158.823 97.7387 159.453 98.27 160.297C98.8117 161.13 99.0825 162.177 99.0825 163.438V171.312C99.0825 171.875 99.1294 172.474 99.2231 173.109C99.3273 173.745 99.4783 174.292 99.6762 174.75V175H96.6606C96.5148 174.667 96.4002 174.224 96.3169 173.672C96.2335 173.109 96.1919 172.589 96.1919 172.109ZM96.6919 164.75L96.7231 166.781H93.8012C92.9783 166.781 92.244 166.849 91.5981 166.984C90.9523 167.109 90.4106 167.302 89.9731 167.562C89.5356 167.823 89.2023 168.151 88.9731 168.547C88.744 168.932 88.6294 169.385 88.6294 169.906C88.6294 170.438 88.7492 170.922 88.9887 171.359C89.2283 171.797 89.5877 172.146 90.0669 172.406C90.5565 172.656 91.1554 172.781 91.8637 172.781C92.7492 172.781 93.5304 172.594 94.2075 172.219C94.8846 171.844 95.421 171.385 95.8169 170.844C96.2231 170.302 96.4419 169.776 96.4731 169.266L97.7075 170.656C97.6346 171.094 97.4367 171.578 97.1137 172.109C96.7908 172.641 96.3585 173.151 95.8169 173.641C95.2856 174.12 94.6502 174.521 93.9106 174.844C93.1815 175.156 92.3585 175.312 91.4419 175.312C90.296 175.312 89.2908 175.089 88.4262 174.641C87.5721 174.193 86.9054 173.594 86.4262 172.844C85.9575 172.083 85.7231 171.234 85.7231 170.297C85.7231 169.391 85.9002 168.594 86.2544 167.906C86.6085 167.208 87.119 166.63 87.7856 166.172C88.4523 165.703 89.2544 165.349 90.1919 165.109C91.1294 164.87 92.1762 164.75 93.3325 164.75H96.6919ZM111.987 158.094V160.312H102.847V158.094H111.987ZM105.941 153.984H108.831V170.812C108.831 171.385 108.92 171.818 109.097 172.109C109.274 172.401 109.503 172.594 109.784 172.688C110.066 172.781 110.368 172.828 110.691 172.828C110.93 172.828 111.18 172.807 111.441 172.766C111.711 172.714 111.915 172.672 112.05 172.641L112.066 175C111.836 175.073 111.534 175.141 111.159 175.203C110.795 175.276 110.352 175.312 109.831 175.312C109.123 175.312 108.472 175.172 107.878 174.891C107.284 174.609 106.81 174.141 106.456 173.484C106.112 172.818 105.941 171.922 105.941 170.797V153.984ZM123.674 175.312C122.497 175.312 121.429 175.115 120.471 174.719C119.523 174.312 118.705 173.745 118.017 173.016C117.34 172.286 116.82 171.422 116.455 170.422C116.09 169.422 115.908 168.328 115.908 167.141V166.484C115.908 165.109 116.111 163.885 116.517 162.812C116.924 161.729 117.476 160.812 118.174 160.062C118.872 159.312 119.663 158.745 120.549 158.359C121.434 157.974 122.351 157.781 123.299 157.781C124.507 157.781 125.549 157.99 126.424 158.406C127.309 158.823 128.033 159.406 128.596 160.156C129.158 160.896 129.575 161.771 129.846 162.781C130.116 163.781 130.252 164.875 130.252 166.062V167.359H117.627V165H127.361V164.781C127.32 164.031 127.163 163.302 126.892 162.594C126.632 161.885 126.215 161.302 125.642 160.844C125.07 160.385 124.288 160.156 123.299 160.156C122.642 160.156 122.038 160.297 121.486 160.578C120.934 160.849 120.46 161.255 120.064 161.797C119.669 162.339 119.361 163 119.142 163.781C118.924 164.562 118.814 165.464 118.814 166.484V167.141C118.814 167.943 118.924 168.698 119.142 169.406C119.372 170.104 119.7 170.719 120.127 171.25C120.564 171.781 121.09 172.198 121.705 172.5C122.33 172.802 123.038 172.953 123.83 172.953C124.851 172.953 125.715 172.745 126.424 172.328C127.132 171.911 127.752 171.354 128.283 170.656L130.033 172.047C129.669 172.599 129.205 173.125 128.642 173.625C128.08 174.125 127.387 174.531 126.564 174.844C125.752 175.156 124.788 175.312 123.674 175.312ZM137.798 161.703V175H134.907V158.094H137.641L137.798 161.703ZM137.11 165.906L135.907 165.859C135.917 164.703 136.089 163.635 136.423 162.656C136.756 161.667 137.225 160.807 137.829 160.078C138.433 159.349 139.152 158.786 139.985 158.391C140.829 157.984 141.761 157.781 142.782 157.781C143.615 157.781 144.365 157.896 145.032 158.125C145.699 158.344 146.266 158.698 146.735 159.188C147.214 159.677 147.579 160.312 147.829 161.094C148.079 161.865 148.204 162.807 148.204 163.922V175H145.298V163.891C145.298 163.005 145.167 162.297 144.907 161.766C144.646 161.224 144.266 160.833 143.766 160.594C143.266 160.344 142.652 160.219 141.923 160.219C141.204 160.219 140.548 160.37 139.954 160.672C139.37 160.974 138.865 161.391 138.438 161.922C138.021 162.453 137.693 163.062 137.454 163.75C137.225 164.427 137.11 165.146 137.11 165.906ZM160.64 172.938C161.327 172.938 161.963 172.797 162.546 172.516C163.13 172.234 163.609 171.849 163.984 171.359C164.359 170.859 164.572 170.292 164.624 169.656H167.374C167.322 170.656 166.984 171.589 166.359 172.453C165.744 173.307 164.937 174 163.937 174.531C162.937 175.052 161.838 175.312 160.64 175.312C159.369 175.312 158.26 175.089 157.312 174.641C156.374 174.193 155.593 173.578 154.968 172.797C154.354 172.016 153.89 171.12 153.577 170.109C153.275 169.089 153.124 168.01 153.124 166.875V166.219C153.124 165.083 153.275 164.01 153.577 163C153.89 161.979 154.354 161.078 154.968 160.297C155.593 159.516 156.374 158.901 157.312 158.453C158.26 158.005 159.369 157.781 160.64 157.781C161.963 157.781 163.119 158.052 164.109 158.594C165.098 159.125 165.874 159.854 166.437 160.781C167.01 161.698 167.322 162.74 167.374 163.906H164.624C164.572 163.208 164.374 162.578 164.031 162.016C163.697 161.453 163.239 161.005 162.656 160.672C162.083 160.328 161.411 160.156 160.64 160.156C159.755 160.156 159.01 160.333 158.406 160.688C157.812 161.031 157.338 161.5 156.984 162.094C156.64 162.677 156.39 163.328 156.234 164.047C156.088 164.755 156.015 165.479 156.015 166.219V166.875C156.015 167.615 156.088 168.344 156.234 169.062C156.38 169.781 156.624 170.432 156.968 171.016C157.322 171.599 157.796 172.068 158.39 172.422C158.994 172.766 159.744 172.938 160.64 172.938ZM175.045 158.094V175H172.139V158.094H175.045ZM171.92 153.609C171.92 153.141 172.061 152.745 172.342 152.422C172.634 152.099 173.061 151.938 173.623 151.938C174.175 151.938 174.597 152.099 174.889 152.422C175.191 152.745 175.342 153.141 175.342 153.609C175.342 154.057 175.191 154.443 174.889 154.766C174.597 155.078 174.175 155.234 173.623 155.234C173.061 155.234 172.634 155.078 172.342 154.766C172.061 154.443 171.92 154.057 171.92 153.609ZM180.2 166.734V166.375C180.2 165.156 180.377 164.026 180.731 162.984C181.085 161.932 181.596 161.021 182.262 160.25C182.929 159.469 183.736 158.865 184.684 158.438C185.632 158 186.695 157.781 187.872 157.781C189.059 157.781 190.127 158 191.075 158.438C192.033 158.865 192.846 159.469 193.512 160.25C194.19 161.021 194.705 161.932 195.059 162.984C195.414 164.026 195.591 165.156 195.591 166.375V166.734C195.591 167.953 195.414 169.083 195.059 170.125C194.705 171.167 194.19 172.078 193.512 172.859C192.846 173.63 192.039 174.234 191.091 174.672C190.153 175.099 189.091 175.312 187.903 175.312C186.716 175.312 185.648 175.099 184.7 174.672C183.752 174.234 182.94 173.63 182.262 172.859C181.596 172.078 181.085 171.167 180.731 170.125C180.377 169.083 180.2 167.953 180.2 166.734ZM183.091 166.375V166.734C183.091 167.578 183.19 168.375 183.387 169.125C183.585 169.865 183.882 170.521 184.278 171.094C184.684 171.667 185.19 172.12 185.794 172.453C186.398 172.776 187.101 172.938 187.903 172.938C188.695 172.938 189.387 172.776 189.981 172.453C190.585 172.12 191.085 171.667 191.481 171.094C191.877 170.521 192.174 169.865 192.372 169.125C192.58 168.375 192.684 167.578 192.684 166.734V166.375C192.684 165.542 192.58 164.755 192.372 164.016C192.174 163.266 191.872 162.604 191.466 162.031C191.07 161.448 190.57 160.99 189.966 160.656C189.372 160.323 188.674 160.156 187.872 160.156C187.08 160.156 186.382 160.323 185.778 160.656C185.184 160.99 184.684 161.448 184.278 162.031C183.882 162.604 183.585 163.266 183.387 164.016C183.19 164.755 183.091 165.542 183.091 166.375ZM186.153 155.594L189.184 151H192.669L188.481 155.594H186.153ZM203.386 161.703V175H200.496V158.094H203.23L203.386 161.703ZM202.699 165.906L201.496 165.859C201.506 164.703 201.678 163.635 202.011 162.656C202.345 161.667 202.813 160.807 203.417 160.078C204.022 159.349 204.74 158.786 205.574 158.391C206.417 157.984 207.35 157.781 208.371 157.781C209.204 157.781 209.954 157.896 210.621 158.125C211.287 158.344 211.855 158.698 212.324 159.188C212.803 159.677 213.167 160.312 213.417 161.094C213.667 161.865 213.792 162.807 213.792 163.922V175H210.886V163.891C210.886 163.005 210.756 162.297 210.496 161.766C210.235 161.224 209.855 160.833 209.355 160.594C208.855 160.344 208.24 160.219 207.511 160.219C206.792 160.219 206.136 160.37 205.542 160.672C204.959 160.974 204.454 161.391 204.027 161.922C203.61 162.453 203.282 163.062 203.042 163.75C202.813 164.427 202.699 165.146 202.699 165.906Z" fill="#7FB26F"/>
</svg>
