<svg width="100" height="100" viewBox="0 0 100 100" fill="none" xmlns="http://www.w3.org/2000/svg">
<circle cx="50" cy="50" r="50" fill="white" fill-opacity="0.5"/>
<circle cx="50" cy="50" r="42.8571" fill="white" fill-opacity="0.75"/>
<circle cx="49.7143" cy="50.0001" r="35.7143" fill="white"/>
<path d="M42.4091 61V58.9545L50.0909 50.5455C50.9924 49.5606 51.7348 48.7045 52.3182 47.9773C52.9015 47.2424 53.3333 46.553 53.6136 45.9091C53.9015 45.2576 54.0455 44.5758 54.0455 43.8636C54.0455 43.0455 53.8485 42.3371 53.4545 41.7386C53.0682 41.1402 52.5379 40.678 51.8636 40.3523C51.1894 40.0265 50.4318 39.8636 49.5909 39.8636C48.697 39.8636 47.9167 40.0492 47.25 40.4205C46.5909 40.7841 46.0795 41.2955 45.7159 41.9545C45.3598 42.6136 45.1818 43.3864 45.1818 44.2727H42.5C42.5 42.9091 42.8144 41.7121 43.4432 40.6818C44.072 39.6515 44.928 38.8485 46.0114 38.2727C47.1023 37.697 48.3258 37.4091 49.6818 37.4091C51.0455 37.4091 52.2538 37.697 53.3068 38.2727C54.3598 38.8485 55.1856 39.625 55.7841 40.6023C56.3826 41.5795 56.6818 42.6667 56.6818 43.8636C56.6818 44.7197 56.5265 45.5568 56.2159 46.375C55.9129 47.1856 55.3826 48.0909 54.625 49.0909C53.875 50.0833 52.8333 51.2955 51.5 52.7273L46.2727 58.3182V58.5H57.0909V61H42.4091Z" fill="#7FB26F"/>
</svg>
