<svg width="100" height="100" viewBox="0 0 100 100" fill="none" xmlns="http://www.w3.org/2000/svg">
<circle cx="50" cy="50" r="50" fill="white" fill-opacity="0.5"/>
<circle cx="50" cy="50" r="42.8571" fill="white" fill-opacity="0.75"/>
<circle cx="49.7143" cy="50.0001" r="35.7143" fill="white"/>
<path d="M49.2727 61.3182C47.7727 61.3182 46.4356 61.0606 45.2614 60.5455C44.0947 60.0303 43.1667 59.3144 42.4773 58.3977C41.7955 57.4735 41.4242 56.4015 41.3636 55.1818H44.2273C44.2879 55.9318 44.5455 56.5795 45 57.125C45.4545 57.6629 46.0492 58.0795 46.7841 58.375C47.5189 58.6705 48.3333 58.8182 49.2273 58.8182C50.2273 58.8182 51.1136 58.6439 51.8864 58.2955C52.6591 57.947 53.2652 57.4621 53.7045 56.8409C54.1439 56.2197 54.3636 55.5 54.3636 54.6818C54.3636 53.8258 54.1515 53.072 53.7273 52.4205C53.303 51.7614 52.6818 51.2462 51.8636 50.875C51.0455 50.5038 50.0455 50.3182 48.8636 50.3182H47V47.8182H48.8636C49.7879 47.8182 50.5985 47.6515 51.2955 47.3182C52 46.9848 52.5492 46.5152 52.9432 45.9091C53.3447 45.303 53.5455 44.5909 53.5455 43.7727C53.5455 42.9848 53.3712 42.2992 53.0227 41.7159C52.6742 41.1326 52.1818 40.678 51.5455 40.3523C50.9167 40.0265 50.1742 39.8636 49.3182 39.8636C48.5152 39.8636 47.7576 40.0114 47.0455 40.3068C46.3409 40.5947 45.7652 41.0152 45.3182 41.5682C44.8712 42.1136 44.6288 42.7727 44.5909 43.5455H41.8636C41.9091 42.3258 42.2765 41.2576 42.9659 40.3409C43.6553 39.4167 44.5568 38.697 45.6705 38.1818C46.7917 37.6667 48.0227 37.4091 49.3636 37.4091C50.803 37.4091 52.0379 37.7008 53.0682 38.2841C54.0985 38.8598 54.8902 39.6212 55.4432 40.5682C55.9962 41.5152 56.2727 42.5379 56.2727 43.6364C56.2727 44.947 55.928 46.0644 55.2386 46.9886C54.5568 47.9129 53.6288 48.553 52.4545 48.9091V49.0909C53.9242 49.3333 55.072 49.9583 55.8977 50.9659C56.7235 51.9659 57.1364 53.2045 57.1364 54.6818C57.1364 55.947 56.7917 57.0833 56.1023 58.0909C55.4205 59.0909 54.4886 59.8788 53.3068 60.4545C52.125 61.0303 50.7803 61.3182 49.2727 61.3182Z" fill="#7FB26F"/>
</svg>
