<svg width="300" height="200" viewBox="0 0 300 200" fill="none" xmlns="http://www.w3.org/2000/svg">
<path d="M0 0H300V155.556L0 200V0Z" fill="white"/>
<g clip-path="url(#clip0_0_1)">
<path d="M124.85 26.75C125.319 26.2012 125.902 25.7606 126.558 25.4585C127.214 25.1564 127.928 25 128.65 25H171.35C172.072 25 172.786 25.1564 173.442 25.4585C174.098 25.7606 174.681 26.2012 175.15 26.75L188.195 41.97C189.36 43.3292 190 45.0601 190 46.85V48.125C190 50.5999 189.227 53.013 187.789 55.0271C186.351 57.0412 184.319 58.5556 181.978 59.3587C179.637 60.1618 177.104 60.2134 174.732 59.5063C172.361 58.7993 170.269 57.3689 168.75 55.415C167.641 56.8438 166.219 57.9999 164.594 58.7946C162.969 59.5893 161.184 60.0016 159.375 60C157.566 60.002 155.781 59.5899 154.156 58.7951C152.531 58.0004 151.109 56.8441 150 55.415C148.891 56.8441 147.469 58.0004 145.844 58.7951C144.219 59.5899 142.434 60.002 140.625 60C138.816 60.002 137.031 59.5899 135.406 58.7951C133.781 58.0004 132.359 56.8441 131.25 55.415C129.731 57.3689 127.639 58.7993 125.268 59.5063C122.896 60.2134 120.363 60.1618 118.022 59.3587C115.681 58.5556 113.649 57.0412 112.211 55.0271C110.773 53.013 110 50.5999 110 48.125V46.85C110 45.0601 110.64 43.3292 111.805 41.97L124.855 26.745L124.85 26.75ZM133.75 48.125C133.75 49.9484 134.474 51.697 135.764 52.9864C137.053 54.2757 138.802 55 140.625 55C142.448 55 144.197 54.2757 145.486 52.9864C146.776 51.697 147.5 49.9484 147.5 48.125C147.5 47.462 147.763 46.8261 148.232 46.3572C148.701 45.8884 149.337 45.625 150 45.625C150.663 45.625 151.299 45.8884 151.768 46.3572C152.237 46.8261 152.5 47.462 152.5 48.125C152.5 49.9484 153.224 51.697 154.514 52.9864C155.803 54.2757 157.552 55 159.375 55C161.198 55 162.947 54.2757 164.236 52.9864C165.526 51.697 166.25 49.9484 166.25 48.125C166.25 47.462 166.513 46.8261 166.982 46.3572C167.451 45.8884 168.087 45.625 168.75 45.625C169.413 45.625 170.049 45.8884 170.518 46.3572C170.987 46.8261 171.25 47.462 171.25 48.125C171.25 49.9484 171.974 51.697 173.264 52.9864C174.553 54.2757 176.302 55 178.125 55C179.948 55 181.697 54.2757 182.986 52.9864C184.276 51.697 185 49.9484 185 48.125V46.85C185 46.2541 184.787 45.6779 184.4 45.225L171.35 30H128.65L115.6 45.225C115.213 45.6779 115 46.2541 115 46.85V48.125C115 49.9484 115.724 51.697 117.014 52.9864C118.303 54.2757 120.052 55 121.875 55C123.698 55 125.447 54.2757 126.736 52.9864C128.026 51.697 128.75 49.9484 128.75 48.125C128.75 47.462 129.013 46.8261 129.482 46.3572C129.951 45.8884 130.587 45.625 131.25 45.625C131.913 45.625 132.549 45.8884 133.018 46.3572C133.487 46.8261 133.75 47.462 133.75 48.125ZM117.5 62.5C118.163 62.5 118.799 62.7634 119.268 63.2322C119.737 63.7011 120 64.337 120 65V95H125V70C125 68.6739 125.527 67.4021 126.464 66.4645C127.402 65.5268 128.674 65 130 65H145C146.326 65 147.598 65.5268 148.536 66.4645C149.473 67.4021 150 68.6739 150 70V95H180V65C180 64.337 180.263 63.7011 180.732 63.2322C181.201 62.7634 181.837 62.5 182.5 62.5C183.163 62.5 183.799 62.7634 184.268 63.2322C184.737 63.7011 185 64.337 185 65V95H187.5C188.163 95 188.799 95.2634 189.268 95.7322C189.737 96.2011 190 96.837 190 97.5C190 98.163 189.737 98.7989 189.268 99.2678C188.799 99.7366 188.163 100 187.5 100H112.5C111.837 100 111.201 99.7366 110.732 99.2678C110.263 98.7989 110 98.163 110 97.5C110 96.837 110.263 96.2011 110.732 95.7322C111.201 95.2634 111.837 95 112.5 95H115V65C115 64.337 115.263 63.7011 115.732 63.2322C116.201 62.7634 116.837 62.5 117.5 62.5ZM130 95H145V70H130V95ZM155 70C155 68.6739 155.527 67.4021 156.464 66.4645C157.402 65.5268 158.674 65 160 65H170C171.326 65 172.598 65.5268 173.536 66.4645C174.473 67.4021 175 68.6739 175 70V85C175 86.3261 174.473 87.5979 173.536 88.5355C172.598 89.4732 171.326 90 170 90H160C158.674 90 157.402 89.4732 156.464 88.5355C155.527 87.5979 155 86.3261 155 85V70ZM170 70H160V85H170V70Z" fill="#7FB26F"/>
</g>
<path d="M74.0895 113.364L77.544 123.159H77.6804L81.1349 113.364H82.6122L78.3395 125H76.8849L72.6122 113.364H74.0895ZM87.0895 125.182C86.2486 125.182 85.5232 124.996 84.9134 124.625C84.3073 124.25 83.8395 123.727 83.5099 123.057C83.1842 122.383 83.0213 121.598 83.0213 120.705C83.0213 119.811 83.1842 119.023 83.5099 118.341C83.8395 117.655 84.2978 117.121 84.8849 116.739C85.4759 116.352 86.1652 116.159 86.9531 116.159C87.4077 116.159 87.8565 116.235 88.2997 116.386C88.7429 116.538 89.1463 116.784 89.5099 117.125C89.8736 117.462 90.1634 117.909 90.3793 118.466C90.5952 119.023 90.7031 119.708 90.7031 120.523V121.091H83.9759V119.932H89.3395C89.3395 119.439 89.241 119 89.044 118.614C88.8509 118.227 88.5743 117.922 88.2145 117.699C87.8584 117.475 87.438 117.364 86.9531 117.364C86.419 117.364 85.9569 117.496 85.5668 117.761C85.1804 118.023 84.883 118.364 84.6747 118.784C84.4664 119.205 84.3622 119.655 84.3622 120.136V120.909C84.3622 121.568 84.4759 122.127 84.7031 122.585C84.9342 123.04 85.2543 123.386 85.6634 123.625C86.0724 123.86 86.5478 123.977 87.0895 123.977C87.4418 123.977 87.7599 123.928 88.044 123.83C88.3319 123.727 88.58 123.576 88.7884 123.375C88.9967 123.17 89.1577 122.917 89.2713 122.614L90.5668 122.977C90.4304 123.417 90.2012 123.803 89.8793 124.136C89.5573 124.466 89.1596 124.723 88.6861 124.909C88.2126 125.091 87.6804 125.182 87.0895 125.182ZM94.0838 119.75V125H92.7429V116.273H94.0384V117.636H94.152C94.3565 117.193 94.6671 116.837 95.0838 116.568C95.5005 116.295 96.0384 116.159 96.6974 116.159C97.2884 116.159 97.8054 116.28 98.2486 116.523C98.6918 116.761 99.0365 117.125 99.2827 117.614C99.5289 118.098 99.652 118.712 99.652 119.455V125H98.3111V119.545C98.3111 118.86 98.133 118.326 97.777 117.943C97.4209 117.557 96.9323 117.364 96.3111 117.364C95.883 117.364 95.5005 117.456 95.1634 117.642C94.83 117.828 94.5668 118.098 94.3736 118.455C94.1804 118.811 94.0838 119.242 94.0838 119.75ZM105.898 116.273V117.409H101.375V116.273H105.898ZM102.693 114.182H104.034V122.5C104.034 122.879 104.089 123.163 104.199 123.352C104.313 123.538 104.456 123.663 104.631 123.727C104.809 123.788 104.996 123.818 105.193 123.818C105.341 123.818 105.462 123.811 105.557 123.795C105.652 123.777 105.727 123.761 105.784 123.75L106.057 124.955C105.966 124.989 105.839 125.023 105.676 125.057C105.513 125.095 105.307 125.114 105.057 125.114C104.678 125.114 104.307 125.032 103.943 124.869C103.583 124.706 103.284 124.458 103.045 124.125C102.811 123.792 102.693 123.371 102.693 122.864V114.182ZM110.483 125.205C109.93 125.205 109.428 125.1 108.977 124.892C108.527 124.68 108.169 124.375 107.903 123.977C107.638 123.576 107.506 123.091 107.506 122.523C107.506 122.023 107.604 121.617 107.801 121.307C107.998 120.992 108.261 120.746 108.591 120.568C108.92 120.39 109.284 120.258 109.682 120.17C110.083 120.08 110.487 120.008 110.892 119.955C111.422 119.886 111.852 119.835 112.182 119.801C112.515 119.763 112.758 119.701 112.909 119.614C113.064 119.527 113.142 119.375 113.142 119.159V119.114C113.142 118.553 112.989 118.117 112.682 117.807C112.379 117.496 111.919 117.341 111.301 117.341C110.661 117.341 110.159 117.481 109.795 117.761C109.432 118.042 109.176 118.341 109.028 118.659L107.756 118.205C107.983 117.674 108.286 117.261 108.665 116.966C109.047 116.667 109.464 116.458 109.915 116.341C110.369 116.22 110.816 116.159 111.256 116.159C111.536 116.159 111.858 116.193 112.222 116.261C112.589 116.326 112.943 116.46 113.284 116.665C113.629 116.869 113.915 117.178 114.142 117.591C114.369 118.004 114.483 118.557 114.483 119.25V125H113.142V123.818H113.074C112.983 124.008 112.831 124.21 112.619 124.426C112.407 124.642 112.125 124.826 111.773 124.977C111.42 125.129 110.991 125.205 110.483 125.205ZM110.688 124C111.218 124 111.665 123.896 112.028 123.688C112.396 123.479 112.672 123.21 112.858 122.881C113.047 122.551 113.142 122.205 113.142 121.841V120.614C113.085 120.682 112.96 120.744 112.767 120.801C112.578 120.854 112.358 120.902 112.108 120.943C111.862 120.981 111.621 121.015 111.386 121.045C111.155 121.072 110.968 121.095 110.824 121.114C110.475 121.159 110.15 121.233 109.847 121.335C109.547 121.434 109.305 121.583 109.119 121.784C108.938 121.981 108.847 122.25 108.847 122.591C108.847 123.057 109.019 123.409 109.364 123.648C109.712 123.883 110.153 124 110.688 124ZM124.726 125.182C123.999 125.182 123.357 124.998 122.8 124.631C122.243 124.259 121.807 123.737 121.493 123.062C121.179 122.384 121.021 121.583 121.021 120.659C121.021 119.742 121.179 118.947 121.493 118.273C121.807 117.598 122.245 117.078 122.805 116.71C123.366 116.343 124.014 116.159 124.749 116.159C125.317 116.159 125.766 116.254 126.095 116.443C126.429 116.629 126.682 116.841 126.857 117.08C127.035 117.314 127.173 117.508 127.271 117.659H127.385V113.364H128.726V125H127.43V123.659H127.271C127.173 123.818 127.033 124.019 126.851 124.261C126.669 124.5 126.41 124.714 126.072 124.903C125.735 125.089 125.286 125.182 124.726 125.182ZM124.908 123.977C125.446 123.977 125.9 123.837 126.271 123.557C126.643 123.273 126.925 122.881 127.118 122.381C127.311 121.877 127.408 121.295 127.408 120.636C127.408 119.985 127.313 119.415 127.124 118.926C126.934 118.434 126.654 118.051 126.283 117.778C125.911 117.502 125.453 117.364 124.908 117.364C124.339 117.364 123.866 117.509 123.487 117.801C123.112 118.089 122.83 118.481 122.641 118.977C122.455 119.47 122.362 120.023 122.362 120.636C122.362 121.258 122.457 121.822 122.646 122.33C122.839 122.833 123.124 123.235 123.499 123.534C123.877 123.83 124.347 123.977 124.908 123.977ZM135.027 125.182C134.186 125.182 133.461 124.996 132.851 124.625C132.245 124.25 131.777 123.727 131.447 123.057C131.122 122.383 130.959 121.598 130.959 120.705C130.959 119.811 131.122 119.023 131.447 118.341C131.777 117.655 132.235 117.121 132.822 116.739C133.413 116.352 134.103 116.159 134.891 116.159C135.345 116.159 135.794 116.235 136.237 116.386C136.68 116.538 137.084 116.784 137.447 117.125C137.811 117.462 138.101 117.909 138.317 118.466C138.533 119.023 138.641 119.708 138.641 120.523V121.091H131.913V119.932H137.277C137.277 119.439 137.179 119 136.982 118.614C136.788 118.227 136.512 117.922 136.152 117.699C135.796 117.475 135.375 117.364 134.891 117.364C134.357 117.364 133.894 117.496 133.504 117.761C133.118 118.023 132.821 118.364 132.612 118.784C132.404 119.205 132.3 119.655 132.3 120.136V120.909C132.3 121.568 132.413 122.127 132.641 122.585C132.872 123.04 133.192 123.386 133.601 123.625C134.01 123.86 134.485 123.977 135.027 123.977C135.379 123.977 135.697 123.928 135.982 123.83C136.269 123.727 136.518 123.576 136.726 123.375C136.934 123.17 137.095 122.917 137.209 122.614L138.504 122.977C138.368 123.417 138.139 123.803 137.817 124.136C137.495 124.466 137.097 124.723 136.624 124.909C136.15 125.091 135.618 125.182 135.027 125.182ZM145.362 125V113.364H149.294C150.203 113.364 150.949 113.519 151.533 113.83C152.116 114.136 152.548 114.559 152.828 115.097C153.108 115.634 153.249 116.246 153.249 116.932C153.249 117.617 153.108 118.225 152.828 118.756C152.548 119.286 152.118 119.703 151.538 120.006C150.959 120.305 150.218 120.455 149.317 120.455H146.135V119.182H149.271C149.893 119.182 150.393 119.091 150.771 118.909C151.154 118.727 151.43 118.47 151.601 118.136C151.775 117.799 151.862 117.398 151.862 116.932C151.862 116.466 151.775 116.059 151.601 115.71C151.427 115.362 151.148 115.093 150.766 114.903C150.383 114.71 149.877 114.614 149.249 114.614H146.771V125H145.362ZM150.839 119.773L153.703 125H152.067L149.249 119.773H150.839ZM157.983 125.205C157.43 125.205 156.928 125.1 156.477 124.892C156.027 124.68 155.669 124.375 155.403 123.977C155.138 123.576 155.006 123.091 155.006 122.523C155.006 122.023 155.104 121.617 155.301 121.307C155.498 120.992 155.761 120.746 156.091 120.568C156.42 120.39 156.784 120.258 157.182 120.17C157.583 120.08 157.987 120.008 158.392 119.955C158.922 119.886 159.352 119.835 159.682 119.801C160.015 119.763 160.258 119.701 160.409 119.614C160.564 119.527 160.642 119.375 160.642 119.159V119.114C160.642 118.553 160.489 118.117 160.182 117.807C159.879 117.496 159.419 117.341 158.801 117.341C158.161 117.341 157.659 117.481 157.295 117.761C156.932 118.042 156.676 118.341 156.528 118.659L155.256 118.205C155.483 117.674 155.786 117.261 156.165 116.966C156.547 116.667 156.964 116.458 157.415 116.341C157.869 116.22 158.316 116.159 158.756 116.159C159.036 116.159 159.358 116.193 159.722 116.261C160.089 116.326 160.443 116.46 160.784 116.665C161.129 116.869 161.415 117.178 161.642 117.591C161.869 118.004 161.983 118.557 161.983 119.25V125H160.642V123.818H160.574C160.483 124.008 160.331 124.21 160.119 124.426C159.907 124.642 159.625 124.826 159.273 124.977C158.92 125.129 158.491 125.205 157.983 125.205ZM158.188 124C158.718 124 159.165 123.896 159.528 123.688C159.896 123.479 160.172 123.21 160.358 122.881C160.547 122.551 160.642 122.205 160.642 121.841V120.614C160.585 120.682 160.46 120.744 160.267 120.801C160.078 120.854 159.858 120.902 159.608 120.943C159.362 120.981 159.121 121.015 158.886 121.045C158.655 121.072 158.468 121.095 158.324 121.114C157.975 121.159 157.65 121.233 157.347 121.335C157.047 121.434 156.805 121.583 156.619 121.784C156.438 121.981 156.347 122.25 156.347 122.591C156.347 123.057 156.519 123.409 156.864 123.648C157.212 123.883 157.653 124 158.188 124ZM167.726 125.182C166.999 125.182 166.357 124.998 165.8 124.631C165.243 124.259 164.807 123.737 164.493 123.062C164.179 122.384 164.021 121.583 164.021 120.659C164.021 119.742 164.179 118.947 164.493 118.273C164.807 117.598 165.245 117.078 165.805 116.71C166.366 116.343 167.014 116.159 167.749 116.159C168.317 116.159 168.766 116.254 169.095 116.443C169.429 116.629 169.682 116.841 169.857 117.08C170.035 117.314 170.173 117.508 170.271 117.659H170.385V113.364H171.726V125H170.43V123.659H170.271C170.173 123.818 170.033 124.019 169.851 124.261C169.669 124.5 169.41 124.714 169.072 124.903C168.735 125.089 168.286 125.182 167.726 125.182ZM167.908 123.977C168.446 123.977 168.9 123.837 169.271 123.557C169.643 123.273 169.925 122.881 170.118 122.381C170.311 121.877 170.408 121.295 170.408 120.636C170.408 119.985 170.313 119.415 170.124 118.926C169.934 118.434 169.654 118.051 169.283 117.778C168.911 117.502 168.453 117.364 167.908 117.364C167.339 117.364 166.866 117.509 166.487 117.801C166.112 118.089 165.83 118.481 165.641 118.977C165.455 119.47 165.362 120.023 165.362 120.636C165.362 121.258 165.457 121.822 165.646 122.33C165.839 122.833 166.124 123.235 166.499 123.534C166.877 123.83 167.347 123.977 167.908 123.977ZM174.368 125V116.273H175.709V125H174.368ZM175.05 114.818C174.788 114.818 174.563 114.729 174.374 114.551C174.188 114.373 174.095 114.159 174.095 113.909C174.095 113.659 174.188 113.445 174.374 113.267C174.563 113.089 174.788 113 175.05 113C175.311 113 175.535 113.089 175.72 113.267C175.91 113.445 176.004 113.659 176.004 113.909C176.004 114.159 175.91 114.373 175.72 114.551C175.535 114.729 175.311 114.818 175.05 114.818ZM180.733 125.205C180.18 125.205 179.678 125.1 179.227 124.892C178.777 124.68 178.419 124.375 178.153 123.977C177.888 123.576 177.756 123.091 177.756 122.523C177.756 122.023 177.854 121.617 178.051 121.307C178.248 120.992 178.511 120.746 178.841 120.568C179.17 120.39 179.534 120.258 179.932 120.17C180.333 120.08 180.737 120.008 181.142 119.955C181.672 119.886 182.102 119.835 182.432 119.801C182.765 119.763 183.008 119.701 183.159 119.614C183.314 119.527 183.392 119.375 183.392 119.159V119.114C183.392 118.553 183.239 118.117 182.932 117.807C182.629 117.496 182.169 117.341 181.551 117.341C180.911 117.341 180.409 117.481 180.045 117.761C179.682 118.042 179.426 118.341 179.278 118.659L178.006 118.205C178.233 117.674 178.536 117.261 178.915 116.966C179.297 116.667 179.714 116.458 180.165 116.341C180.619 116.22 181.066 116.159 181.506 116.159C181.786 116.159 182.108 116.193 182.472 116.261C182.839 116.326 183.193 116.46 183.534 116.665C183.879 116.869 184.165 117.178 184.392 117.591C184.619 118.004 184.733 118.557 184.733 119.25V125H183.392V123.818H183.324C183.233 124.008 183.081 124.21 182.869 124.426C182.657 124.642 182.375 124.826 182.023 124.977C181.67 125.129 181.241 125.205 180.733 125.205ZM180.938 124C181.468 124 181.915 123.896 182.278 123.688C182.646 123.479 182.922 123.21 183.108 122.881C183.297 122.551 183.392 122.205 183.392 121.841V120.614C183.335 120.682 183.21 120.744 183.017 120.801C182.828 120.854 182.608 120.902 182.358 120.943C182.112 120.981 181.871 121.015 181.636 121.045C181.405 121.072 181.218 121.095 181.074 121.114C180.725 121.159 180.4 121.233 180.097 121.335C179.797 121.434 179.555 121.583 179.369 121.784C179.188 121.981 179.097 122.25 179.097 122.591C179.097 123.057 179.269 123.409 179.614 123.648C179.962 123.883 180.403 124 180.938 124ZM190.476 125.182C189.749 125.182 189.107 124.998 188.55 124.631C187.993 124.259 187.557 123.737 187.243 123.062C186.929 122.384 186.771 121.583 186.771 120.659C186.771 119.742 186.929 118.947 187.243 118.273C187.557 117.598 187.995 117.078 188.555 116.71C189.116 116.343 189.764 116.159 190.499 116.159C191.067 116.159 191.516 116.254 191.845 116.443C192.179 116.629 192.432 116.841 192.607 117.08C192.785 117.314 192.923 117.508 193.021 117.659H193.135V113.364H194.476V125H193.18V123.659H193.021C192.923 123.818 192.783 124.019 192.601 124.261C192.419 124.5 192.16 124.714 191.822 124.903C191.485 125.089 191.036 125.182 190.476 125.182ZM190.658 123.977C191.196 123.977 191.65 123.837 192.021 123.557C192.393 123.273 192.675 122.881 192.868 122.381C193.061 121.877 193.158 121.295 193.158 120.636C193.158 119.985 193.063 119.415 192.874 118.926C192.684 118.434 192.404 118.051 192.033 117.778C191.661 117.502 191.203 117.364 190.658 117.364C190.089 117.364 189.616 117.509 189.237 117.801C188.862 118.089 188.58 118.481 188.391 118.977C188.205 119.47 188.112 120.023 188.112 120.636C188.112 121.258 188.207 121.822 188.396 122.33C188.589 122.833 188.874 123.235 189.249 123.534C189.627 123.83 190.097 123.977 190.658 123.977ZM200.663 125.182C199.875 125.182 199.184 124.994 198.589 124.619C197.999 124.244 197.536 123.72 197.203 123.045C196.874 122.371 196.709 121.583 196.709 120.682C196.709 119.773 196.874 118.979 197.203 118.301C197.536 117.623 197.999 117.097 198.589 116.722C199.184 116.347 199.875 116.159 200.663 116.159C201.451 116.159 202.141 116.347 202.732 116.722C203.326 117.097 203.788 117.623 204.118 118.301C204.451 118.979 204.618 119.773 204.618 120.682C204.618 121.583 204.451 122.371 204.118 123.045C203.788 123.72 203.326 124.244 202.732 124.619C202.141 124.994 201.451 125.182 200.663 125.182ZM200.663 123.977C201.262 123.977 201.754 123.824 202.141 123.517C202.527 123.21 202.813 122.807 202.999 122.307C203.184 121.807 203.277 121.265 203.277 120.682C203.277 120.098 203.184 119.555 202.999 119.051C202.813 118.547 202.527 118.14 202.141 117.83C201.754 117.519 201.262 117.364 200.663 117.364C200.065 117.364 199.572 117.519 199.186 117.83C198.8 118.14 198.514 118.547 198.328 119.051C198.143 119.555 198.05 120.098 198.05 120.682C198.05 121.265 198.143 121.807 198.328 122.307C198.514 122.807 198.8 123.21 199.186 123.517C199.572 123.824 200.065 123.977 200.663 123.977ZM206.665 125V116.273H207.96V117.591H208.051C208.21 117.159 208.498 116.809 208.915 116.54C209.331 116.271 209.801 116.136 210.324 116.136C210.422 116.136 210.545 116.138 210.693 116.142C210.841 116.146 210.953 116.152 211.028 116.159V117.523C210.983 117.511 210.879 117.494 210.716 117.472C210.557 117.445 210.388 117.432 210.21 117.432C209.786 117.432 209.407 117.521 209.074 117.699C208.744 117.873 208.483 118.116 208.29 118.426C208.1 118.733 208.006 119.083 208.006 119.477V125H206.665ZM216.011 125.182C215.17 125.182 214.445 124.996 213.835 124.625C213.229 124.25 212.761 123.727 212.432 123.057C212.106 122.383 211.943 121.598 211.943 120.705C211.943 119.811 212.106 119.023 212.432 118.341C212.761 117.655 213.22 117.121 213.807 116.739C214.398 116.352 215.087 116.159 215.875 116.159C216.33 116.159 216.778 116.235 217.222 116.386C217.665 116.538 218.068 116.784 218.432 117.125C218.795 117.462 219.085 117.909 219.301 118.466C219.517 119.023 219.625 119.708 219.625 120.523V121.091H212.898V119.932H218.261C218.261 119.439 218.163 119 217.966 118.614C217.773 118.227 217.496 117.922 217.136 117.699C216.78 117.475 216.36 117.364 215.875 117.364C215.341 117.364 214.879 117.496 214.489 117.761C214.102 118.023 213.805 118.364 213.597 118.784C213.388 119.205 213.284 119.655 213.284 120.136V120.909C213.284 121.568 213.398 122.127 213.625 122.585C213.856 123.04 214.176 123.386 214.585 123.625C214.994 123.86 215.47 123.977 216.011 123.977C216.364 123.977 216.682 123.928 216.966 123.83C217.254 123.727 217.502 123.576 217.71 123.375C217.919 123.17 218.08 122.917 218.193 122.614L219.489 122.977C219.352 123.417 219.123 123.803 218.801 124.136C218.479 124.466 218.081 124.723 217.608 124.909C217.134 125.091 216.602 125.182 216.011 125.182ZM227.847 118.227L226.642 118.568C226.566 118.367 226.455 118.172 226.307 117.983C226.163 117.79 225.966 117.631 225.716 117.506C225.466 117.381 225.146 117.318 224.756 117.318C224.222 117.318 223.777 117.441 223.42 117.688C223.068 117.93 222.892 118.239 222.892 118.614C222.892 118.947 223.013 119.21 223.256 119.403C223.498 119.597 223.877 119.758 224.392 119.886L225.688 120.205C226.468 120.394 227.049 120.684 227.432 121.074C227.814 121.46 228.006 121.958 228.006 122.568C228.006 123.068 227.862 123.515 227.574 123.909C227.29 124.303 226.892 124.614 226.381 124.841C225.869 125.068 225.275 125.182 224.597 125.182C223.706 125.182 222.97 124.989 222.386 124.602C221.803 124.216 221.434 123.652 221.278 122.909L222.551 122.591C222.672 123.061 222.902 123.413 223.239 123.648C223.58 123.883 224.025 124 224.574 124C225.199 124 225.695 123.867 226.062 123.602C226.434 123.333 226.619 123.011 226.619 122.636C226.619 122.333 226.513 122.08 226.301 121.875C226.089 121.667 225.763 121.511 225.324 121.409L223.869 121.068C223.07 120.879 222.483 120.585 222.108 120.188C221.737 119.786 221.551 119.284 221.551 118.682C221.551 118.189 221.689 117.754 221.966 117.375C222.246 116.996 222.627 116.699 223.108 116.483C223.593 116.267 224.142 116.159 224.756 116.159C225.619 116.159 226.297 116.348 226.79 116.727C227.286 117.106 227.638 117.606 227.847 118.227Z" fill="#7FB26F"/>
<defs>
<clipPath id="clip0_0_1">
<rect width="80" height="80" fill="white" transform="translate(110 20)"/>
</clipPath>
</defs>
</svg>
