<svg width="300" height="265" viewBox="0 0 300 265" fill="none" xmlns="http://www.w3.org/2000/svg">
<path d="M0 0H300V206.112L0 265V0Z" fill="white"/>
<mask id="mask0_11_48" style="mask-type:luminance" maskUnits="userSpaceOnUse" x="107" y="15" width="85" height="85">
<path d="M192 15H107V100H192V15Z" fill="white"/>
</mask>
<g mask="url(#mask0_11_48)">
<path d="M122.778 22.1719C123.276 21.5888 123.896 21.1206 124.593 20.7997C125.29 20.4787 126.048 20.3125 126.816 20.3125H172.184C172.952 20.3125 173.71 20.4787 174.407 20.7997C175.104 21.1206 175.724 21.5888 176.222 22.1719L190.082 38.3431C191.32 39.7873 192 41.6264 192 43.5281V44.8828C192 47.5124 191.179 50.0763 189.651 52.2163C188.123 54.3563 185.964 55.9653 183.477 56.8186C180.989 57.6719 178.298 57.7267 175.778 56.9754C173.259 56.2243 171.036 54.7045 169.422 52.6284C168.244 54.1465 166.733 55.3749 165.006 56.2193C163.28 57.0636 161.383 57.5017 159.461 57.5C157.539 57.5021 155.642 57.0643 153.916 56.2198C152.189 55.3754 150.678 54.1469 149.5 52.6284C148.322 54.1469 146.811 55.3754 145.084 56.2198C143.358 57.0643 141.461 57.5021 139.539 57.5C137.617 57.5021 135.72 57.0643 133.994 56.2198C132.267 55.3754 130.756 54.1469 129.578 52.6284C127.964 54.7045 125.741 56.2243 123.222 56.9754C120.702 57.7267 118.011 57.6719 115.523 56.8186C113.036 55.9653 110.877 54.3563 109.349 52.2163C107.821 50.0763 107 47.5124 107 44.8828V43.5281C107 41.6264 107.68 39.7873 108.918 38.3431L122.783 22.1666L122.778 22.1719ZM132.234 44.8828C132.234 46.8202 133.004 48.6781 134.374 50.0481C135.744 51.4179 137.602 52.1875 139.539 52.1875C141.476 52.1875 143.334 51.4179 144.704 50.0481C146.074 48.6781 146.844 46.8202 146.844 44.8828C146.844 44.1784 147.123 43.5027 147.621 43.0045C148.12 42.5064 148.796 42.2266 149.5 42.2266C150.204 42.2266 150.88 42.5064 151.379 43.0045C151.877 43.5027 152.156 44.1784 152.156 44.8828C152.156 46.8202 152.926 48.6781 154.296 50.0481C155.666 51.4179 157.524 52.1875 159.461 52.1875C161.398 52.1875 163.256 51.4179 164.626 50.0481C165.996 48.6781 166.766 46.8202 166.766 44.8828C166.766 44.1784 167.045 43.5027 167.543 43.0045C168.042 42.5064 168.717 42.2266 169.422 42.2266C170.126 42.2266 170.802 42.5064 171.3 43.0045C171.799 43.5027 172.078 44.1784 172.078 44.8828C172.078 46.8202 172.847 48.6781 174.218 50.0481C175.588 51.4179 177.446 52.1875 179.383 52.1875C181.32 52.1875 183.178 51.4179 184.548 50.0481C185.918 48.6781 186.688 46.8202 186.688 44.8828V43.5281C186.688 42.895 186.461 42.2828 186.05 41.8016L172.184 25.625H126.816L112.95 41.8016C112.539 42.2828 112.312 42.895 112.312 43.5281V44.8828C112.312 46.8202 113.082 48.6781 114.452 50.0481C115.822 51.4179 117.68 52.1875 119.617 52.1875C121.554 52.1875 123.412 51.4179 124.782 50.0481C126.153 48.6781 126.922 46.8202 126.922 44.8828C126.922 44.1784 127.201 43.5027 127.7 43.0045C128.198 42.5064 128.874 42.2266 129.578 42.2266C130.283 42.2266 130.958 42.5064 131.457 43.0045C131.955 43.5027 132.234 44.1784 132.234 44.8828ZM114.969 60.1562C115.673 60.1562 116.349 60.4361 116.847 60.9342C117.346 61.4324 117.625 62.1081 117.625 62.8125V94.6875H122.938V68.125C122.938 66.716 123.497 65.3647 124.493 64.3685C125.49 63.3722 126.841 62.8125 128.25 62.8125H144.188C145.596 62.8125 146.948 63.3722 147.944 64.3685C148.94 65.3647 149.5 66.716 149.5 68.125V94.6875H181.375V62.8125C181.375 62.1081 181.654 61.4324 182.153 60.9342C182.651 60.4361 183.327 60.1562 184.031 60.1562C184.736 60.1562 185.411 60.4361 185.91 60.9342C186.408 61.4324 186.688 62.1081 186.688 62.8125V94.6875H189.344C190.048 94.6875 190.724 94.9674 191.222 95.4655C191.721 95.9637 192 96.6393 192 97.3438C192 98.0482 191.721 98.7238 191.222 99.222C190.724 99.7201 190.048 100 189.344 100H109.656C108.952 100 108.276 99.7201 107.778 99.222C107.279 98.7238 107 98.0482 107 97.3438C107 96.6393 107.279 95.9637 107.778 95.4655C108.276 94.9674 108.952 94.6875 109.656 94.6875H112.312V62.8125C112.312 62.1081 112.592 61.4324 113.09 60.9342C113.589 60.4361 114.264 60.1562 114.969 60.1562ZM128.25 94.6875H144.188V68.125H128.25V94.6875ZM154.812 68.125C154.812 66.716 155.372 65.3647 156.368 64.3685C157.365 63.3722 158.716 62.8125 160.125 62.8125H170.75C172.159 62.8125 173.51 63.3722 174.507 64.3685C175.503 65.3647 176.062 66.716 176.062 68.125V84.0625C176.062 85.4715 175.503 86.8228 174.507 87.819C173.51 88.8153 172.159 89.375 170.75 89.375H160.125C158.716 89.375 157.365 88.8153 156.368 87.819C155.372 86.8228 154.812 85.4715 154.812 84.0625V68.125ZM170.75 68.125H160.125V84.0625H170.75V68.125Z" fill="#7FB26F"/>
</g>
<path d="M92.2706 134.547L98.9737 115.25H102.239L93.8175 138H91.4894L92.2706 134.547ZM86.005 115.25L92.6456 134.547L93.4737 138H91.1456L82.7394 115.25H86.005ZM112.472 138.312C111.295 138.312 110.228 138.115 109.269 137.719C108.321 137.312 107.504 136.745 106.816 136.016C106.139 135.286 105.618 134.422 105.254 133.422C104.889 132.422 104.707 131.328 104.707 130.141V129.484C104.707 128.109 104.91 126.885 105.316 125.812C105.722 124.729 106.275 123.812 106.972 123.062C107.67 122.312 108.462 121.745 109.347 121.359C110.233 120.974 111.15 120.781 112.097 120.781C113.306 120.781 114.347 120.99 115.222 121.406C116.108 121.823 116.832 122.406 117.394 123.156C117.957 123.896 118.374 124.771 118.644 125.781C118.915 126.781 119.051 127.875 119.051 129.062V130.359H106.426V128H116.16V127.781C116.118 127.031 115.962 126.302 115.691 125.594C115.431 124.885 115.014 124.302 114.441 123.844C113.868 123.385 113.087 123.156 112.097 123.156C111.441 123.156 110.837 123.297 110.285 123.578C109.733 123.849 109.259 124.255 108.863 124.797C108.467 125.339 108.16 126 107.941 126.781C107.722 127.562 107.613 128.464 107.613 129.484V130.141C107.613 130.943 107.722 131.698 107.941 132.406C108.17 133.104 108.499 133.719 108.926 134.25C109.363 134.781 109.889 135.198 110.504 135.5C111.129 135.802 111.837 135.953 112.629 135.953C113.65 135.953 114.514 135.745 115.222 135.328C115.931 134.911 116.551 134.354 117.082 133.656L118.832 135.047C118.467 135.599 118.004 136.125 117.441 136.625C116.879 137.125 116.186 137.531 115.363 137.844C114.551 138.156 113.587 138.312 112.472 138.312ZM126.596 124.703V138H123.706V121.094H126.44L126.596 124.703ZM125.909 128.906L124.706 128.859C124.716 127.703 124.888 126.635 125.221 125.656C125.555 124.667 126.023 123.807 126.628 123.078C127.232 122.349 127.95 121.786 128.784 121.391C129.628 120.984 130.56 120.781 131.581 120.781C132.414 120.781 133.164 120.896 133.831 121.125C134.497 121.344 135.065 121.698 135.534 122.188C136.013 122.677 136.378 123.312 136.628 124.094C136.878 124.865 137.003 125.807 137.003 126.922V138H134.096V126.891C134.096 126.005 133.966 125.297 133.706 124.766C133.445 124.224 133.065 123.833 132.565 123.594C132.065 123.344 131.45 123.219 130.721 123.219C130.003 123.219 129.346 123.37 128.753 123.672C128.169 123.974 127.664 124.391 127.237 124.922C126.82 125.453 126.492 126.062 126.253 126.75C126.023 127.427 125.909 128.146 125.909 128.906ZM149.751 121.094V123.312H140.611V121.094H149.751ZM143.704 116.984H146.595V133.812C146.595 134.385 146.684 134.818 146.861 135.109C147.038 135.401 147.267 135.594 147.548 135.688C147.829 135.781 148.131 135.828 148.454 135.828C148.694 135.828 148.944 135.807 149.204 135.766C149.475 135.714 149.678 135.672 149.814 135.641L149.829 138C149.6 138.073 149.298 138.141 148.923 138.203C148.559 138.276 148.116 138.312 147.595 138.312C146.887 138.312 146.236 138.172 145.642 137.891C145.048 137.609 144.574 137.141 144.22 136.484C143.876 135.818 143.704 134.922 143.704 133.797V116.984ZM164.391 135.109V126.406C164.391 125.74 164.255 125.161 163.984 124.672C163.724 124.172 163.328 123.786 162.797 123.516C162.266 123.245 161.609 123.109 160.828 123.109C160.099 123.109 159.458 123.234 158.906 123.484C158.365 123.734 157.938 124.062 157.625 124.469C157.323 124.875 157.172 125.312 157.172 125.781H154.281C154.281 125.177 154.438 124.578 154.75 123.984C155.062 123.391 155.51 122.854 156.094 122.375C156.688 121.885 157.396 121.5 158.219 121.219C159.052 120.927 159.979 120.781 161 120.781C162.229 120.781 163.312 120.99 164.25 121.406C165.198 121.823 165.938 122.453 166.469 123.297C167.01 124.13 167.281 125.177 167.281 126.438V134.312C167.281 134.875 167.328 135.474 167.422 136.109C167.526 136.745 167.677 137.292 167.875 137.75V138H164.859C164.714 137.667 164.599 137.224 164.516 136.672C164.432 136.109 164.391 135.589 164.391 135.109ZM164.891 127.75L164.922 129.781H162C161.177 129.781 160.443 129.849 159.797 129.984C159.151 130.109 158.609 130.302 158.172 130.562C157.734 130.823 157.401 131.151 157.172 131.547C156.943 131.932 156.828 132.385 156.828 132.906C156.828 133.438 156.948 133.922 157.188 134.359C157.427 134.797 157.786 135.146 158.266 135.406C158.755 135.656 159.354 135.781 160.062 135.781C160.948 135.781 161.729 135.594 162.406 135.219C163.083 134.844 163.62 134.385 164.016 133.844C164.422 133.302 164.641 132.776 164.672 132.266L165.906 133.656C165.833 134.094 165.635 134.578 165.312 135.109C164.99 135.641 164.557 136.151 164.016 136.641C163.484 137.12 162.849 137.521 162.109 137.844C161.38 138.156 160.557 138.312 159.641 138.312C158.495 138.312 157.49 138.089 156.625 137.641C155.771 137.193 155.104 136.594 154.625 135.844C154.156 135.083 153.922 134.234 153.922 133.297C153.922 132.391 154.099 131.594 154.453 130.906C154.807 130.208 155.318 129.63 155.984 129.172C156.651 128.703 157.453 128.349 158.391 128.109C159.328 127.87 160.375 127.75 161.531 127.75H164.891ZM192.982 134.719V114H195.888V138H193.232L192.982 134.719ZM181.607 129.734V129.406C181.607 128.115 181.763 126.943 182.076 125.891C182.399 124.828 182.852 123.917 183.435 123.156C184.029 122.396 184.732 121.812 185.544 121.406C186.367 120.99 187.284 120.781 188.294 120.781C189.357 120.781 190.284 120.969 191.076 121.344C191.878 121.708 192.555 122.245 193.107 122.953C193.669 123.651 194.112 124.495 194.435 125.484C194.758 126.474 194.982 127.594 195.107 128.844V130.281C194.992 131.521 194.768 132.635 194.435 133.625C194.112 134.615 193.669 135.458 193.107 136.156C192.555 136.854 191.878 137.391 191.076 137.766C190.274 138.13 189.336 138.312 188.263 138.312C187.274 138.312 186.367 138.099 185.544 137.672C184.732 137.245 184.029 136.646 183.435 135.875C182.852 135.104 182.399 134.198 182.076 133.156C181.763 132.104 181.607 130.964 181.607 129.734ZM184.513 129.406V129.734C184.513 130.578 184.596 131.37 184.763 132.109C184.94 132.849 185.211 133.5 185.576 134.062C185.94 134.625 186.404 135.068 186.966 135.391C187.529 135.703 188.201 135.859 188.982 135.859C189.94 135.859 190.727 135.656 191.341 135.25C191.966 134.844 192.466 134.307 192.841 133.641C193.216 132.974 193.508 132.25 193.716 131.469V127.703C193.591 127.13 193.409 126.578 193.169 126.047C192.94 125.505 192.638 125.026 192.263 124.609C191.899 124.182 191.445 123.844 190.904 123.594C190.372 123.344 189.742 123.219 189.013 123.219C188.221 123.219 187.539 123.385 186.966 123.719C186.404 124.042 185.94 124.49 185.576 125.062C185.211 125.625 184.94 126.281 184.763 127.031C184.596 127.771 184.513 128.562 184.513 129.406ZM208.684 138.312C207.507 138.312 206.439 138.115 205.481 137.719C204.533 137.312 203.715 136.745 203.027 136.016C202.35 135.286 201.83 134.422 201.465 133.422C201.1 132.422 200.918 131.328 200.918 130.141V129.484C200.918 128.109 201.121 126.885 201.527 125.812C201.934 124.729 202.486 123.812 203.184 123.062C203.882 122.312 204.673 121.745 205.559 121.359C206.444 120.974 207.361 120.781 208.309 120.781C209.517 120.781 210.559 120.99 211.434 121.406C212.319 121.823 213.043 122.406 213.606 123.156C214.168 123.896 214.585 124.771 214.856 125.781C215.126 126.781 215.262 127.875 215.262 129.062V130.359H202.637V128H212.371V127.781C212.33 127.031 212.173 126.302 211.902 125.594C211.642 124.885 211.225 124.302 210.652 123.844C210.08 123.385 209.298 123.156 208.309 123.156C207.652 123.156 207.048 123.297 206.496 123.578C205.944 123.849 205.47 124.255 205.074 124.797C204.679 125.339 204.371 126 204.152 126.781C203.934 127.562 203.824 128.464 203.824 129.484V130.141C203.824 130.943 203.934 131.698 204.152 132.406C204.382 133.104 204.71 133.719 205.137 134.25C205.574 134.781 206.1 135.198 206.715 135.5C207.34 135.802 208.048 135.953 208.84 135.953C209.861 135.953 210.725 135.745 211.434 135.328C212.142 134.911 212.762 134.354 213.293 133.656L215.043 135.047C214.679 135.599 214.215 136.125 213.652 136.625C213.09 137.125 212.397 137.531 211.574 137.844C210.762 138.156 209.798 138.312 208.684 138.312ZM66.5212 153.25H74.0525C75.7608 153.25 77.2035 153.51 78.3806 154.031C79.5681 154.552 80.4692 155.323 81.0837 156.344C81.7087 157.354 82.0212 158.599 82.0212 160.078C82.0212 161.12 81.8077 162.073 81.3806 162.938C80.964 163.792 80.3598 164.521 79.5681 165.125C78.7869 165.719 77.8494 166.161 76.7556 166.453L75.9119 166.781H68.8337L68.8025 164.328H74.1462C75.2296 164.328 76.1306 164.141 76.8494 163.766C77.5681 163.38 78.1098 162.865 78.4744 162.219C78.839 161.573 79.0212 160.859 79.0212 160.078C79.0212 159.203 78.8494 158.438 78.5056 157.781C78.1619 157.125 77.6202 156.62 76.8806 156.266C76.1515 155.901 75.2087 155.719 74.0525 155.719H69.5369V176H66.5212V153.25ZM79.8181 176L74.2869 165.688L77.4275 165.672L83.0369 175.812V176H79.8181ZM97.0512 173.109V164.406C97.0512 163.74 96.9158 163.161 96.645 162.672C96.3846 162.172 95.9887 161.786 95.4575 161.516C94.9262 161.245 94.27 161.109 93.4887 161.109C92.7596 161.109 92.119 161.234 91.5669 161.484C91.0252 161.734 90.5981 162.062 90.2856 162.469C89.9835 162.875 89.8325 163.312 89.8325 163.781H86.9419C86.9419 163.177 87.0981 162.578 87.4106 161.984C87.7231 161.391 88.171 160.854 88.7544 160.375C89.3481 159.885 90.0565 159.5 90.8794 159.219C91.7127 158.927 92.6398 158.781 93.6606 158.781C94.8898 158.781 95.9731 158.99 96.9106 159.406C97.8585 159.823 98.5981 160.453 99.1294 161.297C99.671 162.13 99.9419 163.177 99.9419 164.438V172.312C99.9419 172.875 99.9887 173.474 100.082 174.109C100.187 174.745 100.338 175.292 100.536 175.75V176H97.52C97.3742 175.667 97.2596 175.224 97.1762 174.672C97.0929 174.109 97.0512 173.589 97.0512 173.109ZM97.5512 165.75L97.5825 167.781H94.6606C93.8377 167.781 93.1033 167.849 92.4575 167.984C91.8117 168.109 91.27 168.302 90.8325 168.562C90.395 168.823 90.0617 169.151 89.8325 169.547C89.6033 169.932 89.4887 170.385 89.4887 170.906C89.4887 171.438 89.6085 171.922 89.8481 172.359C90.0877 172.797 90.4471 173.146 90.9262 173.406C91.4158 173.656 92.0148 173.781 92.7231 173.781C93.6085 173.781 94.3898 173.594 95.0669 173.219C95.744 172.844 96.2804 172.385 96.6762 171.844C97.0825 171.302 97.3012 170.776 97.3325 170.266L98.5669 171.656C98.494 172.094 98.296 172.578 97.9731 173.109C97.6502 173.641 97.2179 174.151 96.6762 174.641C96.145 175.12 95.5096 175.521 94.77 175.844C94.0408 176.156 93.2179 176.312 92.3012 176.312C91.1554 176.312 90.1502 176.089 89.2856 175.641C88.4315 175.193 87.7648 174.594 87.2856 173.844C86.8169 173.083 86.5825 172.234 86.5825 171.297C86.5825 170.391 86.7596 169.594 87.1137 168.906C87.4679 168.208 87.9783 167.63 88.645 167.172C89.3117 166.703 90.1137 166.349 91.0512 166.109C91.9887 165.87 93.0356 165.75 94.1919 165.75H97.5512ZM116.425 172.719V152H119.331V176H116.675L116.425 172.719ZM105.05 167.734V167.406C105.05 166.115 105.206 164.943 105.519 163.891C105.842 162.828 106.295 161.917 106.878 161.156C107.472 160.396 108.175 159.812 108.987 159.406C109.81 158.99 110.727 158.781 111.737 158.781C112.8 158.781 113.727 158.969 114.519 159.344C115.321 159.708 115.998 160.245 116.55 160.953C117.112 161.651 117.555 162.495 117.878 163.484C118.201 164.474 118.425 165.594 118.55 166.844V168.281C118.435 169.521 118.211 170.635 117.878 171.625C117.555 172.615 117.112 173.458 116.55 174.156C115.998 174.854 115.321 175.391 114.519 175.766C113.717 176.13 112.779 176.312 111.706 176.312C110.717 176.312 109.81 176.099 108.987 175.672C108.175 175.245 107.472 174.646 106.878 173.875C106.295 173.104 105.842 172.198 105.519 171.156C105.206 170.104 105.05 168.964 105.05 167.734ZM107.956 167.406V167.734C107.956 168.578 108.04 169.37 108.206 170.109C108.383 170.849 108.654 171.5 109.019 172.062C109.383 172.625 109.847 173.068 110.409 173.391C110.972 173.703 111.644 173.859 112.425 173.859C113.383 173.859 114.17 173.656 114.784 173.25C115.409 172.844 115.909 172.307 116.284 171.641C116.659 170.974 116.951 170.25 117.159 169.469V165.703C117.034 165.13 116.852 164.578 116.612 164.047C116.383 163.505 116.081 163.026 115.706 162.609C115.342 162.182 114.889 161.844 114.347 161.594C113.816 161.344 113.185 161.219 112.456 161.219C111.665 161.219 110.982 161.385 110.409 161.719C109.847 162.042 109.383 162.49 109.019 163.062C108.654 163.625 108.383 164.281 108.206 165.031C108.04 165.771 107.956 166.562 107.956 167.406ZM128.252 159.094V176H125.346V159.094H128.252ZM125.127 154.609C125.127 154.141 125.268 153.745 125.549 153.422C125.84 153.099 126.268 152.938 126.83 152.938C127.382 152.938 127.804 153.099 128.096 153.422C128.398 153.745 128.549 154.141 128.549 154.609C128.549 155.057 128.398 155.443 128.096 155.766C127.804 156.078 127.382 156.234 126.83 156.234C126.268 156.234 125.84 156.078 125.549 155.766C125.268 155.443 125.127 155.057 125.127 154.609ZM144.141 173.109V164.406C144.141 163.74 144.006 163.161 143.735 162.672C143.475 162.172 143.079 161.786 142.548 161.516C142.016 161.245 141.36 161.109 140.579 161.109C139.85 161.109 139.209 161.234 138.657 161.484C138.115 161.734 137.688 162.062 137.376 162.469C137.074 162.875 136.923 163.312 136.923 163.781H134.032C134.032 163.177 134.188 162.578 134.501 161.984C134.813 161.391 135.261 160.854 135.844 160.375C136.438 159.885 137.146 159.5 137.969 159.219C138.803 158.927 139.73 158.781 140.751 158.781C141.98 158.781 143.063 158.99 144.001 159.406C144.949 159.823 145.688 160.453 146.219 161.297C146.761 162.13 147.032 163.177 147.032 164.438V172.312C147.032 172.875 147.079 173.474 147.173 174.109C147.277 174.745 147.428 175.292 147.626 175.75V176H144.61C144.464 175.667 144.35 175.224 144.266 174.672C144.183 174.109 144.141 173.589 144.141 173.109ZM144.641 165.75L144.673 167.781H141.751C140.928 167.781 140.193 167.849 139.548 167.984C138.902 168.109 138.36 168.302 137.923 168.562C137.485 168.823 137.152 169.151 136.923 169.547C136.693 169.932 136.579 170.385 136.579 170.906C136.579 171.438 136.699 171.922 136.938 172.359C137.178 172.797 137.537 173.146 138.016 173.406C138.506 173.656 139.105 173.781 139.813 173.781C140.699 173.781 141.48 173.594 142.157 173.219C142.834 172.844 143.37 172.385 143.766 171.844C144.173 171.302 144.391 170.776 144.423 170.266L145.657 171.656C145.584 172.094 145.386 172.578 145.063 173.109C144.74 173.641 144.308 174.151 143.766 174.641C143.235 175.12 142.6 175.521 141.86 175.844C141.131 176.156 140.308 176.312 139.391 176.312C138.245 176.312 137.24 176.089 136.376 175.641C135.521 175.193 134.855 174.594 134.376 173.844C133.907 173.083 133.673 172.234 133.673 171.297C133.673 170.391 133.85 169.594 134.204 168.906C134.558 168.208 135.068 167.63 135.735 167.172C136.402 166.703 137.204 166.349 138.141 166.109C139.079 165.87 140.126 165.75 141.282 165.75H144.641ZM163.515 172.719V152H166.421V176H163.765L163.515 172.719ZM152.14 167.734V167.406C152.14 166.115 152.296 164.943 152.609 163.891C152.932 162.828 153.385 161.917 153.968 161.156C154.562 160.396 155.265 159.812 156.077 159.406C156.9 158.99 157.817 158.781 158.827 158.781C159.89 158.781 160.817 158.969 161.609 159.344C162.411 159.708 163.088 160.245 163.64 160.953C164.202 161.651 164.645 162.495 164.968 163.484C165.291 164.474 165.515 165.594 165.64 166.844V168.281C165.525 169.521 165.301 170.635 164.968 171.625C164.645 172.615 164.202 173.458 163.64 174.156C163.088 174.854 162.411 175.391 161.609 175.766C160.807 176.13 159.869 176.312 158.796 176.312C157.807 176.312 156.9 176.099 156.077 175.672C155.265 175.245 154.562 174.646 153.968 173.875C153.385 173.104 152.932 172.198 152.609 171.156C152.296 170.104 152.14 168.964 152.14 167.734ZM155.046 167.406V167.734C155.046 168.578 155.13 169.37 155.296 170.109C155.473 170.849 155.744 171.5 156.109 172.062C156.473 172.625 156.937 173.068 157.499 173.391C158.062 173.703 158.734 173.859 159.515 173.859C160.473 173.859 161.26 173.656 161.874 173.25C162.499 172.844 162.999 172.307 163.374 171.641C163.749 170.974 164.041 170.25 164.249 169.469V165.703C164.124 165.13 163.942 164.578 163.702 164.047C163.473 163.505 163.171 163.026 162.796 162.609C162.432 162.182 161.979 161.844 161.437 161.594C160.906 161.344 160.275 161.219 159.546 161.219C158.755 161.219 158.072 161.385 157.499 161.719C156.937 162.042 156.473 162.49 156.109 163.062C155.744 163.625 155.473 164.281 155.296 165.031C155.13 165.771 155.046 166.562 155.046 167.406ZM171.436 167.734V167.375C171.436 166.156 171.613 165.026 171.967 163.984C172.321 162.932 172.831 162.021 173.498 161.25C174.165 160.469 174.972 159.865 175.92 159.438C176.868 159 177.93 158.781 179.107 158.781C180.295 158.781 181.363 159 182.311 159.438C183.269 159.865 184.081 160.469 184.748 161.25C185.425 162.021 185.941 162.932 186.295 163.984C186.649 165.026 186.826 166.156 186.826 167.375V167.734C186.826 168.953 186.649 170.083 186.295 171.125C185.941 172.167 185.425 173.078 184.748 173.859C184.081 174.63 183.274 175.234 182.326 175.672C181.389 176.099 180.326 176.312 179.139 176.312C177.951 176.312 176.884 176.099 175.936 175.672C174.988 175.234 174.175 174.63 173.498 173.859C172.831 173.078 172.321 172.167 171.967 171.125C171.613 170.083 171.436 168.953 171.436 167.734ZM174.326 167.375V167.734C174.326 168.578 174.425 169.375 174.623 170.125C174.821 170.865 175.118 171.521 175.514 172.094C175.92 172.667 176.425 173.12 177.029 173.453C177.634 173.776 178.337 173.938 179.139 173.938C179.93 173.938 180.623 173.776 181.217 173.453C181.821 173.12 182.321 172.667 182.717 172.094C183.113 171.521 183.41 170.865 183.607 170.125C183.816 169.375 183.92 168.578 183.92 167.734V167.375C183.92 166.542 183.816 165.755 183.607 165.016C183.41 164.266 183.107 163.604 182.701 163.031C182.305 162.448 181.805 161.99 181.201 161.656C180.607 161.323 179.91 161.156 179.107 161.156C178.316 161.156 177.618 161.323 177.014 161.656C176.42 161.99 175.92 162.448 175.514 163.031C175.118 163.604 174.821 164.266 174.623 165.016C174.425 165.755 174.326 166.542 174.326 167.375ZM194.622 161.75V176H191.731V159.094H194.544L194.622 161.75ZM199.903 159L199.887 161.688C199.648 161.635 199.419 161.604 199.2 161.594C198.992 161.573 198.752 161.562 198.481 161.562C197.815 161.562 197.226 161.667 196.716 161.875C196.205 162.083 195.773 162.375 195.419 162.75C195.065 163.125 194.783 163.573 194.575 164.094C194.377 164.604 194.247 165.167 194.184 165.781L193.372 166.25C193.372 165.229 193.471 164.271 193.669 163.375C193.877 162.479 194.195 161.688 194.622 161C195.049 160.302 195.591 159.76 196.247 159.375C196.914 158.979 197.705 158.781 198.622 158.781C198.83 158.781 199.07 158.807 199.341 158.859C199.611 158.901 199.799 158.948 199.903 159ZM210.558 176.312C209.381 176.312 208.313 176.115 207.355 175.719C206.407 175.312 205.589 174.745 204.902 174.016C204.225 173.286 203.704 172.422 203.339 171.422C202.975 170.422 202.793 169.328 202.793 168.141V167.484C202.793 166.109 202.996 164.885 203.402 163.812C203.808 162.729 204.36 161.812 205.058 161.062C205.756 160.312 206.548 159.745 207.433 159.359C208.319 158.974 209.235 158.781 210.183 158.781C211.391 158.781 212.433 158.99 213.308 159.406C214.194 159.823 214.918 160.406 215.48 161.156C216.043 161.896 216.459 162.771 216.73 163.781C217.001 164.781 217.136 165.875 217.136 167.062V168.359H204.511V166H214.246V165.781C214.204 165.031 214.048 164.302 213.777 163.594C213.516 162.885 213.1 162.302 212.527 161.844C211.954 161.385 211.173 161.156 210.183 161.156C209.527 161.156 208.923 161.297 208.371 161.578C207.819 161.849 207.345 162.255 206.949 162.797C206.553 163.339 206.246 164 206.027 164.781C205.808 165.562 205.699 166.464 205.699 167.484V168.141C205.699 168.943 205.808 169.698 206.027 170.406C206.256 171.104 206.584 171.719 207.011 172.25C207.449 172.781 207.975 173.198 208.589 173.5C209.214 173.802 209.923 173.953 210.714 173.953C211.735 173.953 212.6 173.745 213.308 173.328C214.016 172.911 214.636 172.354 215.168 171.656L216.918 173.047C216.553 173.599 216.089 174.125 215.527 174.625C214.964 175.125 214.272 175.531 213.449 175.844C212.636 176.156 211.673 176.312 210.558 176.312ZM231.635 171.516C231.635 171.099 231.541 170.714 231.354 170.359C231.177 169.995 230.807 169.667 230.244 169.375C229.692 169.073 228.859 168.812 227.744 168.594C226.807 168.396 225.958 168.161 225.198 167.891C224.448 167.62 223.807 167.292 223.276 166.906C222.755 166.521 222.354 166.068 222.073 165.547C221.791 165.026 221.651 164.417 221.651 163.719C221.651 163.052 221.796 162.422 222.088 161.828C222.39 161.234 222.812 160.708 223.354 160.25C223.906 159.792 224.567 159.432 225.338 159.172C226.109 158.911 226.968 158.781 227.916 158.781C229.27 158.781 230.427 159.021 231.385 159.5C232.343 159.979 233.078 160.62 233.588 161.422C234.099 162.214 234.354 163.094 234.354 164.062H231.463C231.463 163.594 231.323 163.141 231.041 162.703C230.77 162.255 230.369 161.885 229.838 161.594C229.317 161.302 228.677 161.156 227.916 161.156C227.114 161.156 226.463 161.281 225.963 161.531C225.474 161.771 225.114 162.078 224.885 162.453C224.666 162.828 224.557 163.224 224.557 163.641C224.557 163.953 224.609 164.234 224.713 164.484C224.828 164.724 225.026 164.948 225.307 165.156C225.588 165.354 225.984 165.542 226.494 165.719C227.005 165.896 227.656 166.073 228.448 166.25C229.833 166.562 230.974 166.938 231.869 167.375C232.765 167.812 233.432 168.349 233.869 168.984C234.307 169.62 234.526 170.391 234.526 171.297C234.526 172.036 234.369 172.714 234.057 173.328C233.755 173.943 233.312 174.474 232.729 174.922C232.156 175.359 231.468 175.703 230.666 175.953C229.875 176.193 228.984 176.312 227.994 176.312C226.505 176.312 225.244 176.047 224.213 175.516C223.182 174.984 222.401 174.297 221.869 173.453C221.338 172.609 221.073 171.719 221.073 170.781H223.979C224.02 171.573 224.25 172.203 224.666 172.672C225.083 173.13 225.593 173.458 226.198 173.656C226.802 173.844 227.401 173.938 227.994 173.938C228.786 173.938 229.448 173.833 229.979 173.625C230.52 173.417 230.932 173.13 231.213 172.766C231.494 172.401 231.635 171.984 231.635 171.516Z" fill="#7FB26F"/>
</svg>
