<svg width="300" height="200" viewBox="0 0 300 200" fill="none" xmlns="http://www.w3.org/2000/svg">
<path d="M300 0L-1.19209e-05 0L-1.19209e-05 155.556L300 200L300 0Z" fill="white"/>
<g clip-path="url(#clip0_0_1)">
<path d="M115 20L110 25L121 40.405C121.463 41.0537 122.075 41.5823 122.783 41.9468C123.492 42.3112 124.278 42.5009 125.075 42.5H125.425C126.082 42.4995 126.733 42.6286 127.341 42.88C127.948 43.1314 128.5 43.5001 128.965 43.965L142.34 57.34L129.255 70.61C127.017 69.9512 124.656 69.823 122.36 70.2355C120.064 70.648 117.895 71.59 116.026 72.9866C114.158 74.3832 112.64 76.196 111.594 78.2813C110.548 80.3666 110.002 82.667 110 85C110.003 87.1497 110.468 89.2736 111.364 91.2279C112.259 93.1822 113.564 94.9212 115.191 96.327C116.817 97.7328 118.726 98.7726 120.79 99.3761C122.853 99.9795 125.022 100.132 127.149 99.8243C129.277 99.5163 131.313 98.7546 133.121 97.5908C134.928 96.427 136.464 94.8883 137.625 93.079C138.786 91.2696 139.544 89.2319 139.849 87.1039C140.153 84.9759 139.997 82.8073 139.39 80.745L152.66 67.66L157.5 72.5L155.975 77.07C155.682 77.9509 155.64 78.8959 155.854 79.7993C156.067 80.7027 156.528 81.5288 157.185 82.185L173.965 98.965C174.903 99.9024 176.174 100.429 177.5 100.429C178.826 100.429 180.097 99.9024 181.035 98.965L188.965 91.035C189.902 90.0974 190.429 88.8258 190.429 87.5C190.429 86.1742 189.902 84.9026 188.965 83.965L172.185 67.185C171.529 66.5284 170.703 66.0674 169.799 65.8537C168.896 65.64 167.951 65.682 167.07 65.975L162.5 67.5L157.7 62.7L171.1 49.485C173.323 50.0784 175.652 50.1533 177.909 49.7041C180.165 49.2548 182.289 48.2933 184.115 46.8938C185.941 45.4942 187.421 43.694 188.442 41.6318C189.462 39.5697 189.995 37.3008 190 35C190 33.655 189.825 32.35 189.49 31.115L178.79 41.82L170 40L168.18 31.215L178.885 20.51C176.338 19.8253 173.656 19.824 171.109 20.5063C168.562 21.1886 166.24 22.5303 164.376 24.3962C162.513 26.262 161.175 28.5862 160.496 31.1343C159.817 33.6824 159.822 36.3644 160.51 38.91L147.31 52.3L133.965 38.965C133.027 38.0275 132.5 36.756 132.5 35.43V35.075C132.5 34.2788 132.31 33.4941 131.946 32.7862C131.581 32.0783 131.053 31.4676 130.405 31.005L115 20ZM163.23 73.23C163.462 72.9972 163.738 72.8125 164.042 72.6864C164.346 72.5604 164.671 72.4955 165 72.4955C165.329 72.4955 165.654 72.5604 165.958 72.6864C166.262 72.8125 166.538 72.9972 166.77 73.23L181.77 88.23C182.002 88.4624 182.187 88.7384 182.313 89.0421C182.438 89.3458 182.503 89.6713 182.503 90C182.503 90.3287 182.438 90.6542 182.313 90.9579C182.187 91.2616 182.002 91.5376 181.77 91.77C181.538 92.0024 181.262 92.1868 180.958 92.3126C180.654 92.4384 180.329 92.5032 180 92.5032C179.671 92.5032 179.346 92.4384 179.042 92.3126C178.738 92.1868 178.462 92.0024 178.23 91.77L163.23 76.77C162.997 76.5378 162.812 76.2619 162.686 75.9582C162.56 75.6544 162.496 75.3288 162.496 75C162.496 74.6712 162.56 74.3456 162.686 74.0418C162.812 73.7381 162.997 73.4622 163.23 73.23ZM125 75L127.355 76.21L130 76.34L131.435 78.565L133.66 80L133.79 82.645L135 85L133.79 87.355L133.66 90L131.435 91.435L130 93.66L127.355 93.79L125 95L122.645 93.79L120 93.66L118.565 91.435L116.34 90L116.21 87.355L115 85L116.21 82.645L116.34 80L118.565 78.565L120 76.34L122.645 76.21L125 75Z" fill="#7FB26F"/>
</g>
<path d="M55.0497 125V113.364H58.9815C59.8906 113.364 60.6368 113.519 61.2202 113.83C61.8035 114.136 62.2353 114.559 62.5156 115.097C62.7959 115.634 62.9361 116.246 62.9361 116.932C62.9361 117.617 62.7959 118.225 62.5156 118.756C62.2353 119.286 61.8054 119.703 61.2259 120.006C60.6463 120.305 59.9058 120.455 59.0043 120.455H55.8224V119.182H58.9588C59.58 119.182 60.08 119.091 60.4588 118.909C60.8414 118.727 61.1179 118.47 61.2884 118.136C61.4626 117.799 61.5497 117.398 61.5497 116.932C61.5497 116.466 61.4626 116.059 61.2884 115.71C61.1141 115.362 60.8357 115.093 60.4531 114.903C60.0705 114.71 59.5649 114.614 58.9361 114.614H56.4588V125H55.0497ZM60.527 119.773L63.3906 125H61.7543L58.9361 119.773H60.527ZM68.6676 125.182C67.8267 125.182 67.1013 124.996 66.4915 124.625C65.8854 124.25 65.4176 123.727 65.0881 123.057C64.7623 122.383 64.5994 121.598 64.5994 120.705C64.5994 119.811 64.7623 119.023 65.0881 118.341C65.4176 117.655 65.8759 117.121 66.4631 116.739C67.054 116.352 67.7434 116.159 68.5312 116.159C68.9858 116.159 69.4347 116.235 69.8778 116.386C70.321 116.538 70.7244 116.784 71.0881 117.125C71.4517 117.462 71.7415 117.909 71.9574 118.466C72.1733 119.023 72.2812 119.708 72.2812 120.523V121.091H65.554V119.932H70.9176C70.9176 119.439 70.8191 119 70.6222 118.614C70.429 118.227 70.1525 117.922 69.7926 117.699C69.4366 117.475 69.0161 117.364 68.5312 117.364C67.9972 117.364 67.535 117.496 67.1449 117.761C66.7585 118.023 66.4612 118.364 66.2528 118.784C66.0445 119.205 65.9403 119.655 65.9403 120.136V120.909C65.9403 121.568 66.054 122.127 66.2812 122.585C66.5123 123.04 66.8324 123.386 67.2415 123.625C67.6506 123.86 68.1259 123.977 68.6676 123.977C69.0199 123.977 69.3381 123.928 69.6222 123.83C69.91 123.727 70.1581 123.576 70.3665 123.375C70.5748 123.17 70.7358 122.917 70.8494 122.614L72.1449 122.977C72.0085 123.417 71.7794 123.803 71.4574 124.136C71.1354 124.466 70.7377 124.723 70.2642 124.909C69.7907 125.091 69.2585 125.182 68.6676 125.182ZM74.321 128.273V116.273H75.6165V117.659H75.7756C75.8741 117.508 76.0104 117.314 76.1847 117.08C76.3627 116.841 76.6165 116.629 76.946 116.443C77.2794 116.254 77.7301 116.159 78.2983 116.159C79.0331 116.159 79.6809 116.343 80.2415 116.71C80.8021 117.078 81.2396 117.598 81.554 118.273C81.8684 118.947 82.0256 119.742 82.0256 120.659C82.0256 121.583 81.8684 122.384 81.554 123.062C81.2396 123.737 80.804 124.259 80.2472 124.631C79.6903 124.998 79.0483 125.182 78.321 125.182C77.7604 125.182 77.3116 125.089 76.9744 124.903C76.6373 124.714 76.3778 124.5 76.196 124.261C76.0142 124.019 75.8741 123.818 75.7756 123.659H75.6619V128.273H74.321ZM75.6392 120.636C75.6392 121.295 75.7358 121.877 75.929 122.381C76.1222 122.881 76.4044 123.273 76.7756 123.557C77.1468 123.837 77.6013 123.977 78.1392 123.977C78.6998 123.977 79.1676 123.83 79.5426 123.534C79.9214 123.235 80.2055 122.833 80.3949 122.33C80.5881 121.822 80.6847 121.258 80.6847 120.636C80.6847 120.023 80.59 119.47 80.4006 118.977C80.215 118.481 79.9328 118.089 79.554 117.801C79.179 117.509 78.7074 117.364 78.1392 117.364C77.5938 117.364 77.1354 117.502 76.7642 117.778C76.393 118.051 76.1127 118.434 75.9233 118.926C75.7339 119.415 75.6392 119.985 75.6392 120.636ZM86.6392 125.205C86.0862 125.205 85.5843 125.1 85.1335 124.892C84.6828 124.68 84.3248 124.375 84.0597 123.977C83.7945 123.576 83.6619 123.091 83.6619 122.523C83.6619 122.023 83.7604 121.617 83.9574 121.307C84.1544 120.992 84.4176 120.746 84.7472 120.568C85.0767 120.39 85.4403 120.258 85.8381 120.17C86.2396 120.08 86.643 120.008 87.0483 119.955C87.5786 119.886 88.0085 119.835 88.3381 119.801C88.6714 119.763 88.9138 119.701 89.0653 119.614C89.2206 119.527 89.2983 119.375 89.2983 119.159V119.114C89.2983 118.553 89.1449 118.117 88.8381 117.807C88.535 117.496 88.0748 117.341 87.4574 117.341C86.8172 117.341 86.3153 117.481 85.9517 117.761C85.5881 118.042 85.3324 118.341 85.1847 118.659L83.9119 118.205C84.1392 117.674 84.4422 117.261 84.821 116.966C85.2036 116.667 85.6203 116.458 86.071 116.341C86.5256 116.22 86.9725 116.159 87.4119 116.159C87.6922 116.159 88.0142 116.193 88.3778 116.261C88.7453 116.326 89.0994 116.46 89.4403 116.665C89.785 116.869 90.071 117.178 90.2983 117.591C90.5256 118.004 90.6392 118.557 90.6392 119.25V125H89.2983V123.818H89.2301C89.1392 124.008 88.9877 124.21 88.7756 124.426C88.5634 124.642 88.2813 124.826 87.929 124.977C87.5767 125.129 87.1468 125.205 86.6392 125.205ZM86.8438 124C87.3741 124 87.821 123.896 88.1847 123.688C88.5521 123.479 88.8286 123.21 89.0142 122.881C89.2036 122.551 89.2983 122.205 89.2983 121.841V120.614C89.2415 120.682 89.1165 120.744 88.9233 120.801C88.7339 120.854 88.5142 120.902 88.2642 120.943C88.018 120.981 87.7775 121.015 87.5426 121.045C87.3116 121.072 87.1241 121.095 86.9801 121.114C86.6316 121.159 86.3059 121.233 86.0028 121.335C85.7036 121.434 85.4612 121.583 85.2756 121.784C85.0938 121.981 85.0028 122.25 85.0028 122.591C85.0028 123.057 85.1752 123.409 85.5199 123.648C85.8684 123.883 86.3097 124 86.8438 124ZM93.0866 125V116.273H94.3821V117.591H94.473C94.6321 117.159 94.92 116.809 95.3366 116.54C95.7533 116.271 96.223 116.136 96.7457 116.136C96.8442 116.136 96.9673 116.138 97.1151 116.142C97.2628 116.146 97.3745 116.152 97.4503 116.159V117.523C97.4048 117.511 97.3007 117.494 97.1378 117.472C96.9787 117.445 96.8101 117.432 96.6321 117.432C96.2079 117.432 95.8291 117.521 95.4957 117.699C95.1662 117.873 94.9048 118.116 94.7116 118.426C94.5223 118.733 94.4276 119.083 94.4276 119.477V125H93.0866ZM101.608 125.205C101.055 125.205 100.553 125.1 100.102 124.892C99.6515 124.68 99.2936 124.375 99.0284 123.977C98.7633 123.576 98.6307 123.091 98.6307 122.523C98.6307 122.023 98.7292 121.617 98.9261 121.307C99.1231 120.992 99.3864 120.746 99.7159 120.568C100.045 120.39 100.409 120.258 100.807 120.17C101.208 120.08 101.612 120.008 102.017 119.955C102.547 119.886 102.977 119.835 103.307 119.801C103.64 119.763 103.883 119.701 104.034 119.614C104.189 119.527 104.267 119.375 104.267 119.159V119.114C104.267 118.553 104.114 118.117 103.807 117.807C103.504 117.496 103.044 117.341 102.426 117.341C101.786 117.341 101.284 117.481 100.92 117.761C100.557 118.042 100.301 118.341 100.153 118.659L98.8807 118.205C99.108 117.674 99.411 117.261 99.7898 116.966C100.172 116.667 100.589 116.458 101.04 116.341C101.494 116.22 101.941 116.159 102.381 116.159C102.661 116.159 102.983 116.193 103.347 116.261C103.714 116.326 104.068 116.46 104.409 116.665C104.754 116.869 105.04 117.178 105.267 117.591C105.494 118.004 105.608 118.557 105.608 119.25V125H104.267V123.818H104.199C104.108 124.008 103.956 124.21 103.744 124.426C103.532 124.642 103.25 124.826 102.898 124.977C102.545 125.129 102.116 125.205 101.608 125.205ZM101.812 124C102.343 124 102.79 123.896 103.153 123.688C103.521 123.479 103.797 123.21 103.983 122.881C104.172 122.551 104.267 122.205 104.267 121.841V120.614C104.21 120.682 104.085 120.744 103.892 120.801C103.703 120.854 103.483 120.902 103.233 120.943C102.987 120.981 102.746 121.015 102.511 121.045C102.28 121.072 102.093 121.095 101.949 121.114C101.6 121.159 101.275 121.233 100.972 121.335C100.672 121.434 100.43 121.583 100.244 121.784C100.063 121.981 99.9716 122.25 99.9716 122.591C99.9716 123.057 100.144 123.409 100.489 123.648C100.837 123.883 101.278 124 101.812 124ZM111.601 125.182C110.783 125.182 110.078 124.989 109.487 124.602C108.896 124.216 108.442 123.684 108.124 123.006C107.805 122.328 107.646 121.553 107.646 120.682C107.646 119.795 107.809 119.013 108.135 118.335C108.464 117.653 108.923 117.121 109.51 116.739C110.101 116.352 110.79 116.159 111.578 116.159C112.192 116.159 112.745 116.273 113.237 116.5C113.73 116.727 114.133 117.045 114.447 117.455C114.762 117.864 114.957 118.341 115.033 118.886H113.692C113.589 118.489 113.362 118.136 113.01 117.83C112.661 117.519 112.192 117.364 111.601 117.364C111.078 117.364 110.62 117.5 110.226 117.773C109.836 118.042 109.531 118.422 109.311 118.915C109.095 119.403 108.987 119.977 108.987 120.636C108.987 121.311 109.093 121.898 109.305 122.398C109.521 122.898 109.824 123.286 110.214 123.562C110.608 123.839 111.071 123.977 111.601 123.977C111.949 123.977 112.266 123.917 112.55 123.795C112.834 123.674 113.074 123.5 113.271 123.273C113.468 123.045 113.608 122.773 113.692 122.455H115.033C114.957 122.97 114.769 123.434 114.47 123.847C114.175 124.256 113.783 124.581 113.294 124.824C112.809 125.062 112.245 125.182 111.601 125.182ZM116.993 125V116.273H118.334V125H116.993ZM117.675 114.818C117.413 114.818 117.188 114.729 116.999 114.551C116.813 114.373 116.72 114.159 116.72 113.909C116.72 113.659 116.813 113.445 116.999 113.267C117.188 113.089 117.413 113 117.675 113C117.936 113 118.16 113.089 118.345 113.267C118.535 113.445 118.629 113.659 118.629 113.909C118.629 114.159 118.535 114.373 118.345 114.551C118.16 114.729 117.936 114.818 117.675 114.818ZM124.335 125.182C123.547 125.182 122.856 124.994 122.261 124.619C121.67 124.244 121.208 123.72 120.875 123.045C120.545 122.371 120.381 121.583 120.381 120.682C120.381 119.773 120.545 118.979 120.875 118.301C121.208 117.623 121.67 117.097 122.261 116.722C122.856 116.347 123.547 116.159 124.335 116.159C125.123 116.159 125.813 116.347 126.403 116.722C126.998 117.097 127.46 117.623 127.79 118.301C128.123 118.979 128.29 119.773 128.29 120.682C128.29 121.583 128.123 122.371 127.79 123.045C127.46 123.72 126.998 124.244 126.403 124.619C125.813 124.994 125.123 125.182 124.335 125.182ZM124.335 123.977C124.934 123.977 125.426 123.824 125.812 123.517C126.199 123.21 126.485 122.807 126.67 122.307C126.856 121.807 126.949 121.265 126.949 120.682C126.949 120.098 126.856 119.555 126.67 119.051C126.485 118.547 126.199 118.14 125.812 117.83C125.426 117.519 124.934 117.364 124.335 117.364C123.737 117.364 123.244 117.519 122.858 117.83C122.472 118.14 122.186 118.547 122 119.051C121.814 119.555 121.722 120.098 121.722 120.682C121.722 121.265 121.814 121.807 122 122.307C122.186 122.807 122.472 123.21 122.858 123.517C123.244 123.824 123.737 123.977 124.335 123.977ZM123.722 115.091L125.108 112.455H126.676L124.903 115.091H123.722ZM131.678 119.75V125H130.337V116.273H131.632V117.636H131.746C131.95 117.193 132.261 116.837 132.678 116.568C133.094 116.295 133.632 116.159 134.291 116.159C134.882 116.159 135.399 116.28 135.842 116.523C136.286 116.761 136.63 117.125 136.876 117.614C137.123 118.098 137.246 118.712 137.246 119.455V125H135.905V119.545C135.905 118.86 135.727 118.326 135.371 117.943C135.015 117.557 134.526 117.364 133.905 117.364C133.477 117.364 133.094 117.456 132.757 117.642C132.424 117.828 132.161 118.098 131.967 118.455C131.774 118.811 131.678 119.242 131.678 119.75ZM145.06 128.273C144.832 128.273 144.63 128.254 144.452 128.216C144.274 128.182 144.151 128.148 144.082 128.114L144.423 126.932C144.749 127.015 145.037 127.045 145.287 127.023C145.537 127 145.759 126.888 145.952 126.688C146.149 126.491 146.329 126.17 146.491 125.727L146.741 125.045L143.514 116.273H144.969L147.378 123.227H147.469L149.878 116.273H151.332L147.628 126.273C147.461 126.723 147.255 127.097 147.009 127.392C146.762 127.691 146.476 127.913 146.151 128.057C145.829 128.201 145.465 128.273 145.06 128.273ZM157.784 125V113.364H159.193V123.75H164.602V125H157.784ZM166.602 125V116.273H167.943V125H166.602ZM167.284 114.818C167.023 114.818 166.797 114.729 166.608 114.551C166.422 114.373 166.33 114.159 166.33 113.909C166.33 113.659 166.422 113.445 166.608 113.267C166.797 113.089 167.023 113 167.284 113C167.545 113 167.769 113.089 167.955 113.267C168.144 113.445 168.239 113.659 168.239 113.909C168.239 114.159 168.144 114.373 167.955 114.551C167.769 114.729 167.545 114.818 167.284 114.818ZM170.399 125V116.273H171.695V117.636H171.808C171.99 117.17 172.284 116.809 172.689 116.551C173.094 116.29 173.581 116.159 174.149 116.159C174.725 116.159 175.204 116.29 175.587 116.551C175.973 116.809 176.274 117.17 176.49 117.636H176.581C176.804 117.186 177.14 116.828 177.587 116.562C178.034 116.294 178.57 116.159 179.195 116.159C179.975 116.159 180.613 116.403 181.109 116.892C181.606 117.377 181.854 118.133 181.854 119.159V125H180.513V119.159C180.513 118.515 180.337 118.055 179.984 117.778C179.632 117.502 179.217 117.364 178.74 117.364C178.126 117.364 177.651 117.549 177.314 117.92C176.977 118.288 176.808 118.754 176.808 119.318V125H175.445V119.023C175.445 118.527 175.284 118.127 174.962 117.824C174.64 117.517 174.225 117.364 173.717 117.364C173.369 117.364 173.043 117.456 172.74 117.642C172.441 117.828 172.198 118.085 172.013 118.415C171.831 118.741 171.74 119.117 171.74 119.545V125H170.399ZM184.305 128.273V116.273H185.601V117.659H185.76C185.858 117.508 185.995 117.314 186.169 117.08C186.347 116.841 186.601 116.629 186.93 116.443C187.264 116.254 187.714 116.159 188.283 116.159C189.018 116.159 189.665 116.343 190.226 116.71C190.786 117.078 191.224 117.598 191.538 118.273C191.853 118.947 192.01 119.742 192.01 120.659C192.01 121.583 191.853 122.384 191.538 123.062C191.224 123.737 190.788 124.259 190.232 124.631C189.675 124.998 189.033 125.182 188.305 125.182C187.745 125.182 187.296 125.089 186.959 124.903C186.622 124.714 186.362 124.5 186.18 124.261C185.999 124.019 185.858 123.818 185.76 123.659H185.646V128.273H184.305ZM185.624 120.636C185.624 121.295 185.72 121.877 185.913 122.381C186.107 122.881 186.389 123.273 186.76 123.557C187.131 123.837 187.586 123.977 188.124 123.977C188.684 123.977 189.152 123.83 189.527 123.534C189.906 123.235 190.19 122.833 190.379 122.33C190.572 121.822 190.669 121.258 190.669 120.636C190.669 120.023 190.574 119.47 190.385 118.977C190.199 118.481 189.917 118.089 189.538 117.801C189.163 117.509 188.692 117.364 188.124 117.364C187.578 117.364 187.12 117.502 186.749 117.778C186.377 118.051 186.097 118.434 185.908 118.926C185.718 119.415 185.624 119.985 185.624 120.636ZM194.055 125V116.273H195.396V125H194.055ZM194.737 114.818C194.476 114.818 194.25 114.729 194.061 114.551C193.875 114.373 193.783 114.159 193.783 113.909C193.783 113.659 193.875 113.445 194.061 113.267C194.25 113.089 194.476 113 194.737 113C194.999 113 195.222 113.089 195.408 113.267C195.597 113.445 195.692 113.659 195.692 113.909C195.692 114.159 195.597 114.373 195.408 114.551C195.222 114.729 194.999 114.818 194.737 114.818ZM201.511 125.182C200.67 125.182 199.945 124.996 199.335 124.625C198.729 124.25 198.261 123.727 197.932 123.057C197.606 122.383 197.443 121.598 197.443 120.705C197.443 119.811 197.606 119.023 197.932 118.341C198.261 117.655 198.72 117.121 199.307 116.739C199.898 116.352 200.587 116.159 201.375 116.159C201.83 116.159 202.278 116.235 202.722 116.386C203.165 116.538 203.568 116.784 203.932 117.125C204.295 117.462 204.585 117.909 204.801 118.466C205.017 119.023 205.125 119.708 205.125 120.523V121.091H198.398V119.932H203.761C203.761 119.439 203.663 119 203.466 118.614C203.273 118.227 202.996 117.922 202.636 117.699C202.28 117.475 201.86 117.364 201.375 117.364C200.841 117.364 200.379 117.496 199.989 117.761C199.602 118.023 199.305 118.364 199.097 118.784C198.888 119.205 198.784 119.655 198.784 120.136V120.909C198.784 121.568 198.898 122.127 199.125 122.585C199.356 123.04 199.676 123.386 200.085 123.625C200.494 123.86 200.97 123.977 201.511 123.977C201.864 123.977 202.182 123.928 202.466 123.83C202.754 123.727 203.002 123.576 203.21 123.375C203.419 123.17 203.58 122.917 203.693 122.614L204.989 122.977C204.852 123.417 204.623 123.803 204.301 124.136C203.979 124.466 203.581 124.723 203.108 124.909C202.634 125.091 202.102 125.182 201.511 125.182ZM206.915 125V123.977L211.869 117.614V117.523H207.074V116.273H213.597V117.341L208.778 123.659V123.75H213.756V125H206.915ZM218.389 125.205C217.836 125.205 217.334 125.1 216.884 124.892C216.433 124.68 216.075 124.375 215.81 123.977C215.545 123.576 215.412 123.091 215.412 122.523C215.412 122.023 215.51 121.617 215.707 121.307C215.904 120.992 216.168 120.746 216.497 120.568C216.827 120.39 217.19 120.258 217.588 120.17C217.99 120.08 218.393 120.008 218.798 119.955C219.329 119.886 219.759 119.835 220.088 119.801C220.421 119.763 220.664 119.701 220.815 119.614C220.971 119.527 221.048 119.375 221.048 119.159V119.114C221.048 118.553 220.895 118.117 220.588 117.807C220.285 117.496 219.825 117.341 219.207 117.341C218.567 117.341 218.065 117.481 217.702 117.761C217.338 118.042 217.082 118.341 216.935 118.659L215.662 118.205C215.889 117.674 216.192 117.261 216.571 116.966C216.954 116.667 217.37 116.458 217.821 116.341C218.276 116.22 218.723 116.159 219.162 116.159C219.442 116.159 219.764 116.193 220.128 116.261C220.495 116.326 220.849 116.46 221.19 116.665C221.535 116.869 221.821 117.178 222.048 117.591C222.276 118.004 222.389 118.557 222.389 119.25V125H221.048V123.818H220.98C220.889 124.008 220.738 124.21 220.526 124.426C220.313 124.642 220.031 124.826 219.679 124.977C219.327 125.129 218.897 125.205 218.389 125.205ZM218.594 124C219.124 124 219.571 123.896 219.935 123.688C220.302 123.479 220.579 123.21 220.764 122.881C220.954 122.551 221.048 122.205 221.048 121.841V120.614C220.991 120.682 220.866 120.744 220.673 120.801C220.484 120.854 220.264 120.902 220.014 120.943C219.768 120.981 219.527 121.015 219.293 121.045C219.062 121.072 218.874 121.095 218.73 121.114C218.382 121.159 218.056 121.233 217.753 121.335C217.454 121.434 217.211 121.583 217.026 121.784C216.844 121.981 216.753 122.25 216.753 122.591C216.753 123.057 216.925 123.409 217.27 123.648C217.618 123.883 218.06 124 218.594 124ZM232.632 125.182C231.905 125.182 231.263 124.998 230.706 124.631C230.149 124.259 229.714 123.737 229.399 123.062C229.085 122.384 228.928 121.583 228.928 120.659C228.928 119.742 229.085 118.947 229.399 118.273C229.714 117.598 230.151 117.078 230.712 116.71C231.272 116.343 231.92 116.159 232.655 116.159C233.223 116.159 233.672 116.254 234.001 116.443C234.335 116.629 234.589 116.841 234.763 117.08C234.941 117.314 235.079 117.508 235.178 117.659H235.291V113.364H236.632V125H235.337V123.659H235.178C235.079 123.818 234.939 124.019 234.757 124.261C234.575 124.5 234.316 124.714 233.979 124.903C233.642 125.089 233.193 125.182 232.632 125.182ZM232.814 123.977C233.352 123.977 233.806 123.837 234.178 123.557C234.549 123.273 234.831 122.881 235.024 122.381C235.217 121.877 235.314 121.295 235.314 120.636C235.314 119.985 235.219 119.415 235.03 118.926C234.84 118.434 234.56 118.051 234.189 117.778C233.818 117.502 233.359 117.364 232.814 117.364C232.246 117.364 231.772 117.509 231.393 117.801C231.018 118.089 230.736 118.481 230.547 118.977C230.361 119.47 230.268 120.023 230.268 120.636C230.268 121.258 230.363 121.822 230.553 122.33C230.746 122.833 231.03 123.235 231.405 123.534C231.784 123.83 232.253 123.977 232.814 123.977ZM242.933 125.182C242.092 125.182 241.367 124.996 240.757 124.625C240.151 124.25 239.683 123.727 239.354 123.057C239.028 122.383 238.865 121.598 238.865 120.705C238.865 119.811 239.028 119.023 239.354 118.341C239.683 117.655 240.142 117.121 240.729 116.739C241.32 116.352 242.009 116.159 242.797 116.159C243.251 116.159 243.7 116.235 244.143 116.386C244.587 116.538 244.99 116.784 245.354 117.125C245.717 117.462 246.007 117.909 246.223 118.466C246.439 119.023 246.547 119.708 246.547 120.523V121.091H239.82V119.932H245.183C245.183 119.439 245.085 119 244.888 118.614C244.695 118.227 244.418 117.922 244.058 117.699C243.702 117.475 243.282 117.364 242.797 117.364C242.263 117.364 241.801 117.496 241.411 117.761C241.024 118.023 240.727 118.364 240.518 118.784C240.31 119.205 240.206 119.655 240.206 120.136V120.909C240.206 121.568 240.32 122.127 240.547 122.585C240.778 123.04 241.098 123.386 241.507 123.625C241.916 123.86 242.392 123.977 242.933 123.977C243.286 123.977 243.604 123.928 243.888 123.83C244.176 123.727 244.424 123.576 244.632 123.375C244.84 123.17 245.001 122.917 245.115 122.614L246.411 122.977C246.274 123.417 246.045 123.803 245.723 124.136C245.401 124.466 245.003 124.723 244.53 124.909C244.056 125.091 243.524 125.182 242.933 125.182ZM109.487 144V132.364H113.419C114.328 132.364 115.074 132.519 115.658 132.83C116.241 133.136 116.673 133.559 116.953 134.097C117.233 134.634 117.374 135.246 117.374 135.932C117.374 136.617 117.233 137.225 116.953 137.756C116.673 138.286 116.243 138.703 115.663 139.006C115.084 139.305 114.343 139.455 113.442 139.455H110.26V138.182H113.396C114.018 138.182 114.518 138.091 114.896 137.909C115.279 137.727 115.555 137.47 115.726 137.136C115.9 136.799 115.987 136.398 115.987 135.932C115.987 135.466 115.9 135.059 115.726 134.71C115.552 134.362 115.273 134.093 114.891 133.903C114.508 133.71 114.002 133.614 113.374 133.614H110.896V144H109.487ZM114.964 138.773L117.828 144H116.192L113.374 138.773H114.964ZM122.108 144.205C121.555 144.205 121.053 144.1 120.602 143.892C120.152 143.68 119.794 143.375 119.528 142.977C119.263 142.576 119.131 142.091 119.131 141.523C119.131 141.023 119.229 140.617 119.426 140.307C119.623 139.992 119.886 139.746 120.216 139.568C120.545 139.39 120.909 139.258 121.307 139.17C121.708 139.08 122.112 139.008 122.517 138.955C123.047 138.886 123.477 138.835 123.807 138.801C124.14 138.763 124.383 138.701 124.534 138.614C124.689 138.527 124.767 138.375 124.767 138.159V138.114C124.767 137.553 124.614 137.117 124.307 136.807C124.004 136.496 123.544 136.341 122.926 136.341C122.286 136.341 121.784 136.481 121.42 136.761C121.057 137.042 120.801 137.341 120.653 137.659L119.381 137.205C119.608 136.674 119.911 136.261 120.29 135.966C120.672 135.667 121.089 135.458 121.54 135.341C121.994 135.22 122.441 135.159 122.881 135.159C123.161 135.159 123.483 135.193 123.847 135.261C124.214 135.326 124.568 135.46 124.909 135.665C125.254 135.869 125.54 136.178 125.767 136.591C125.994 137.004 126.108 137.557 126.108 138.25V144H124.767V142.818H124.699C124.608 143.008 124.456 143.21 124.244 143.426C124.032 143.642 123.75 143.826 123.398 143.977C123.045 144.129 122.616 144.205 122.108 144.205ZM122.312 143C122.843 143 123.29 142.896 123.653 142.688C124.021 142.479 124.297 142.21 124.483 141.881C124.672 141.551 124.767 141.205 124.767 140.841V139.614C124.71 139.682 124.585 139.744 124.392 139.801C124.203 139.854 123.983 139.902 123.733 139.943C123.487 139.981 123.246 140.015 123.011 140.045C122.78 140.072 122.593 140.095 122.449 140.114C122.1 140.159 121.775 140.233 121.472 140.335C121.172 140.434 120.93 140.583 120.744 140.784C120.563 140.981 120.472 141.25 120.472 141.591C120.472 142.057 120.644 142.409 120.989 142.648C121.337 142.883 121.778 143 122.312 143ZM131.851 144.182C131.124 144.182 130.482 143.998 129.925 143.631C129.368 143.259 128.932 142.737 128.618 142.062C128.304 141.384 128.146 140.583 128.146 139.659C128.146 138.742 128.304 137.947 128.618 137.273C128.932 136.598 129.37 136.078 129.93 135.71C130.491 135.343 131.139 135.159 131.874 135.159C132.442 135.159 132.891 135.254 133.22 135.443C133.554 135.629 133.807 135.841 133.982 136.08C134.16 136.314 134.298 136.508 134.396 136.659H134.51V132.364H135.851V144H134.555V142.659H134.396C134.298 142.818 134.158 143.019 133.976 143.261C133.794 143.5 133.535 143.714 133.197 143.903C132.86 144.089 132.411 144.182 131.851 144.182ZM132.033 142.977C132.571 142.977 133.025 142.837 133.396 142.557C133.768 142.273 134.05 141.881 134.243 141.381C134.436 140.877 134.533 140.295 134.533 139.636C134.533 138.985 134.438 138.415 134.249 137.926C134.059 137.434 133.779 137.051 133.408 136.778C133.036 136.502 132.578 136.364 132.033 136.364C131.464 136.364 130.991 136.509 130.612 136.801C130.237 137.089 129.955 137.481 129.766 137.977C129.58 138.47 129.487 139.023 129.487 139.636C129.487 140.258 129.582 140.822 129.771 141.33C129.964 141.833 130.249 142.235 130.624 142.534C131.002 142.83 131.472 142.977 132.033 142.977ZM138.493 144V135.273H139.834V144H138.493ZM139.175 133.818C138.913 133.818 138.688 133.729 138.499 133.551C138.313 133.373 138.22 133.159 138.22 132.909C138.22 132.659 138.313 132.445 138.499 132.267C138.688 132.089 138.913 132 139.175 132C139.436 132 139.66 132.089 139.845 132.267C140.035 132.445 140.129 132.659 140.129 132.909C140.129 133.159 140.035 133.373 139.845 133.551C139.66 133.729 139.436 133.818 139.175 133.818ZM144.858 144.205C144.305 144.205 143.803 144.1 143.352 143.892C142.902 143.68 142.544 143.375 142.278 142.977C142.013 142.576 141.881 142.091 141.881 141.523C141.881 141.023 141.979 140.617 142.176 140.307C142.373 139.992 142.636 139.746 142.966 139.568C143.295 139.39 143.659 139.258 144.057 139.17C144.458 139.08 144.862 139.008 145.267 138.955C145.797 138.886 146.227 138.835 146.557 138.801C146.89 138.763 147.133 138.701 147.284 138.614C147.439 138.527 147.517 138.375 147.517 138.159V138.114C147.517 137.553 147.364 137.117 147.057 136.807C146.754 136.496 146.294 136.341 145.676 136.341C145.036 136.341 144.534 136.481 144.17 136.761C143.807 137.042 143.551 137.341 143.403 137.659L142.131 137.205C142.358 136.674 142.661 136.261 143.04 135.966C143.422 135.667 143.839 135.458 144.29 135.341C144.744 135.22 145.191 135.159 145.631 135.159C145.911 135.159 146.233 135.193 146.597 135.261C146.964 135.326 147.318 135.46 147.659 135.665C148.004 135.869 148.29 136.178 148.517 136.591C148.744 137.004 148.858 137.557 148.858 138.25V144H147.517V142.818H147.449C147.358 143.008 147.206 143.21 146.994 143.426C146.782 143.642 146.5 143.826 146.148 143.977C145.795 144.129 145.366 144.205 144.858 144.205ZM145.062 143C145.593 143 146.04 142.896 146.403 142.688C146.771 142.479 147.047 142.21 147.233 141.881C147.422 141.551 147.517 141.205 147.517 140.841V139.614C147.46 139.682 147.335 139.744 147.142 139.801C146.953 139.854 146.733 139.902 146.483 139.943C146.237 139.981 145.996 140.015 145.761 140.045C145.53 140.072 145.343 140.095 145.199 140.114C144.85 140.159 144.525 140.233 144.222 140.335C143.922 140.434 143.68 140.583 143.494 140.784C143.313 140.981 143.222 141.25 143.222 141.591C143.222 142.057 143.394 142.409 143.739 142.648C144.087 142.883 144.528 143 145.062 143ZM154.601 144.182C153.874 144.182 153.232 143.998 152.675 143.631C152.118 143.259 151.682 142.737 151.368 142.062C151.054 141.384 150.896 140.583 150.896 139.659C150.896 138.742 151.054 137.947 151.368 137.273C151.682 136.598 152.12 136.078 152.68 135.71C153.241 135.343 153.889 135.159 154.624 135.159C155.192 135.159 155.641 135.254 155.97 135.443C156.304 135.629 156.557 135.841 156.732 136.08C156.91 136.314 157.048 136.508 157.146 136.659H157.26V132.364H158.601V144H157.305V142.659H157.146C157.048 142.818 156.908 143.019 156.726 143.261C156.544 143.5 156.285 143.714 155.947 143.903C155.61 144.089 155.161 144.182 154.601 144.182ZM154.783 142.977C155.321 142.977 155.775 142.837 156.146 142.557C156.518 142.273 156.8 141.881 156.993 141.381C157.186 140.877 157.283 140.295 157.283 139.636C157.283 138.985 157.188 138.415 156.999 137.926C156.809 137.434 156.529 137.051 156.158 136.778C155.786 136.502 155.328 136.364 154.783 136.364C154.214 136.364 153.741 136.509 153.362 136.801C152.987 137.089 152.705 137.481 152.516 137.977C152.33 138.47 152.237 139.023 152.237 139.636C152.237 140.258 152.332 140.822 152.521 141.33C152.714 141.833 152.999 142.235 153.374 142.534C153.752 142.83 154.222 142.977 154.783 142.977ZM164.788 144.182C164 144.182 163.309 143.994 162.714 143.619C162.124 143.244 161.661 142.72 161.328 142.045C160.999 141.371 160.834 140.583 160.834 139.682C160.834 138.773 160.999 137.979 161.328 137.301C161.661 136.623 162.124 136.097 162.714 135.722C163.309 135.347 164 135.159 164.788 135.159C165.576 135.159 166.266 135.347 166.857 135.722C167.451 136.097 167.913 136.623 168.243 137.301C168.576 137.979 168.743 138.773 168.743 139.682C168.743 140.583 168.576 141.371 168.243 142.045C167.913 142.72 167.451 143.244 166.857 143.619C166.266 143.994 165.576 144.182 164.788 144.182ZM164.788 142.977C165.387 142.977 165.879 142.824 166.266 142.517C166.652 142.21 166.938 141.807 167.124 141.307C167.309 140.807 167.402 140.265 167.402 139.682C167.402 139.098 167.309 138.555 167.124 138.051C166.938 137.547 166.652 137.14 166.266 136.83C165.879 136.519 165.387 136.364 164.788 136.364C164.19 136.364 163.697 136.519 163.311 136.83C162.925 137.14 162.639 137.547 162.453 138.051C162.268 138.555 162.175 139.098 162.175 139.682C162.175 140.265 162.268 140.807 162.453 141.307C162.639 141.807 162.925 142.21 163.311 142.517C163.697 142.824 164.19 142.977 164.788 142.977ZM170.79 144V135.273H172.085V136.591H172.176C172.335 136.159 172.623 135.809 173.04 135.54C173.456 135.271 173.926 135.136 174.449 135.136C174.547 135.136 174.67 135.138 174.818 135.142C174.966 135.146 175.078 135.152 175.153 135.159V136.523C175.108 136.511 175.004 136.494 174.841 136.472C174.682 136.445 174.513 136.432 174.335 136.432C173.911 136.432 173.532 136.521 173.199 136.699C172.869 136.873 172.608 137.116 172.415 137.426C172.225 137.733 172.131 138.083 172.131 138.477V144H170.79ZM180.136 144.182C179.295 144.182 178.57 143.996 177.96 143.625C177.354 143.25 176.886 142.727 176.557 142.057C176.231 141.383 176.068 140.598 176.068 139.705C176.068 138.811 176.231 138.023 176.557 137.341C176.886 136.655 177.345 136.121 177.932 135.739C178.523 135.352 179.212 135.159 180 135.159C180.455 135.159 180.903 135.235 181.347 135.386C181.79 135.538 182.193 135.784 182.557 136.125C182.92 136.462 183.21 136.909 183.426 137.466C183.642 138.023 183.75 138.708 183.75 139.523V140.091H177.023V138.932H182.386C182.386 138.439 182.288 138 182.091 137.614C181.898 137.227 181.621 136.922 181.261 136.699C180.905 136.475 180.485 136.364 180 136.364C179.466 136.364 179.004 136.496 178.614 136.761C178.227 137.023 177.93 137.364 177.722 137.784C177.513 138.205 177.409 138.655 177.409 139.136V139.909C177.409 140.568 177.523 141.127 177.75 141.585C177.981 142.04 178.301 142.386 178.71 142.625C179.119 142.86 179.595 142.977 180.136 142.977C180.489 142.977 180.807 142.928 181.091 142.83C181.379 142.727 181.627 142.576 181.835 142.375C182.044 142.17 182.205 141.917 182.318 141.614L183.614 141.977C183.477 142.417 183.248 142.803 182.926 143.136C182.604 143.466 182.206 143.723 181.733 143.909C181.259 144.091 180.727 144.182 180.136 144.182ZM191.972 137.227L190.767 137.568C190.691 137.367 190.58 137.172 190.432 136.983C190.288 136.79 190.091 136.631 189.841 136.506C189.591 136.381 189.271 136.318 188.881 136.318C188.347 136.318 187.902 136.441 187.545 136.688C187.193 136.93 187.017 137.239 187.017 137.614C187.017 137.947 187.138 138.21 187.381 138.403C187.623 138.597 188.002 138.758 188.517 138.886L189.812 139.205C190.593 139.394 191.174 139.684 191.557 140.074C191.939 140.46 192.131 140.958 192.131 141.568C192.131 142.068 191.987 142.515 191.699 142.909C191.415 143.303 191.017 143.614 190.506 143.841C189.994 144.068 189.4 144.182 188.722 144.182C187.831 144.182 187.095 143.989 186.511 143.602C185.928 143.216 185.559 142.652 185.403 141.909L186.676 141.591C186.797 142.061 187.027 142.413 187.364 142.648C187.705 142.883 188.15 143 188.699 143C189.324 143 189.82 142.867 190.188 142.602C190.559 142.333 190.744 142.011 190.744 141.636C190.744 141.333 190.638 141.08 190.426 140.875C190.214 140.667 189.888 140.511 189.449 140.409L187.994 140.068C187.195 139.879 186.608 139.585 186.233 139.188C185.862 138.786 185.676 138.284 185.676 137.682C185.676 137.189 185.814 136.754 186.091 136.375C186.371 135.996 186.752 135.699 187.233 135.483C187.718 135.267 188.267 135.159 188.881 135.159C189.744 135.159 190.422 135.348 190.915 135.727C191.411 136.106 191.763 136.606 191.972 137.227Z" fill="#7FB26F"/>
<defs>
<clipPath id="clip0_0_1">
<rect width="80" height="80" fill="white" transform="translate(110 20)"/>
</clipPath>
</defs>
</svg>
