<svg width="300" height="270" viewBox="0 0 300 270" fill="none" xmlns="http://www.w3.org/2000/svg">
<path d="M300 0H0V210.001L300 270V0Z" fill="white"/>
<mask id="mask0_11_49" style="mask-type:luminance" maskUnits="userSpaceOnUse" x="110" y="20" width="80" height="80">
<path d="M190 20H110V100H190V20Z" fill="white"/>
</mask>
<g mask="url(#mask0_11_49)">
<path d="M115 20L110 25L121 40.405C121.463 41.0537 122.075 41.5823 122.783 41.9468C123.492 42.3112 124.278 42.5009 125.075 42.5H125.425C126.082 42.4995 126.733 42.6286 127.341 42.88C127.948 43.1314 128.5 43.5001 128.965 43.965L142.34 57.34L129.255 70.61C127.017 69.9512 124.656 69.823 122.36 70.2355C120.064 70.648 117.895 71.59 116.026 72.9866C114.158 74.3832 112.64 76.196 111.594 78.2813C110.548 80.3666 110.002 82.667 110 85C110.003 87.1497 110.468 89.2736 111.364 91.2279C112.259 93.1822 113.564 94.9212 115.191 96.327C116.817 97.7328 118.726 98.7726 120.79 99.3761C122.853 99.9795 125.022 100.132 127.149 99.8243C129.277 99.5163 131.313 98.7546 133.121 97.5908C134.928 96.427 136.464 94.8883 137.625 93.079C138.786 91.2696 139.544 89.2319 139.849 87.1039C140.153 84.9759 139.997 82.8073 139.39 80.745L152.66 67.66L157.5 72.5L155.975 77.07C155.682 77.9509 155.64 78.8959 155.854 79.7993C156.067 80.7027 156.528 81.5288 157.185 82.185L173.965 98.965C174.903 99.9024 176.174 100.429 177.5 100.429C178.826 100.429 180.097 99.9024 181.035 98.965L188.965 91.035C189.902 90.0974 190.429 88.8258 190.429 87.5C190.429 86.1742 189.902 84.9026 188.965 83.965L172.185 67.185C171.529 66.5284 170.703 66.0674 169.799 65.8537C168.896 65.64 167.951 65.682 167.07 65.975L162.5 67.5L157.7 62.7L171.1 49.485C173.323 50.0784 175.652 50.1533 177.909 49.7041C180.165 49.2548 182.289 48.2933 184.115 46.8938C185.941 45.4942 187.421 43.694 188.442 41.6318C189.462 39.5697 189.995 37.3008 190 35C190 33.655 189.825 32.35 189.49 31.115L178.79 41.82L170 40L168.18 31.215L178.885 20.51C176.338 19.8253 173.656 19.824 171.109 20.5063C168.562 21.1886 166.24 22.5303 164.376 24.3962C162.513 26.262 161.175 28.5862 160.496 31.1343C159.817 33.6824 159.822 36.3644 160.51 38.91L147.31 52.3L133.965 38.965C133.027 38.0275 132.5 36.756 132.5 35.43V35.075C132.5 34.2788 132.31 33.4941 131.946 32.7862C131.581 32.0783 131.053 31.4676 130.405 31.005L115 20ZM163.23 73.23C163.462 72.9972 163.738 72.8125 164.042 72.6864C164.346 72.5604 164.671 72.4955 165 72.4955C165.329 72.4955 165.654 72.5604 165.958 72.6864C166.262 72.8125 166.538 72.9972 166.77 73.23L181.77 88.23C182.002 88.4624 182.187 88.7384 182.313 89.0421C182.438 89.3458 182.503 89.6713 182.503 90C182.503 90.3287 182.438 90.6542 182.313 90.9579C182.187 91.2616 182.002 91.5376 181.77 91.77C181.538 92.0024 181.262 92.1868 180.958 92.3126C180.654 92.4384 180.329 92.5032 180 92.5032C179.671 92.5032 179.346 92.4384 179.042 92.3126C178.738 92.1868 178.462 92.0024 178.23 91.77L163.23 76.77C162.997 76.5378 162.812 76.2619 162.686 75.9582C162.56 75.6544 162.496 75.3288 162.496 75C162.496 74.6712 162.56 74.3456 162.686 74.0418C162.812 73.7381 162.997 73.4622 163.23 73.23ZM125 75L127.355 76.21L130 76.34L131.435 78.565L133.66 80L133.79 82.645L135 85L133.79 87.355L133.66 90L131.435 91.435L130 93.66L127.355 93.79L125 95L122.645 93.79L120 93.66L118.565 91.435L116.34 90L116.21 87.355L115 85L116.21 82.645L116.34 80L118.565 78.565L120 76.34L122.645 76.21L125 75Z" fill="#7FB26F"/>
</g>
<path d="M53.3356 115.25H60.8669C62.5752 115.25 64.0179 115.51 65.195 116.031C66.3825 116.552 67.2835 117.323 67.8981 118.344C68.5231 119.354 68.8356 120.599 68.8356 122.078C68.8356 123.12 68.6221 124.073 68.195 124.938C67.7783 125.792 67.1742 126.521 66.3825 127.125C65.6012 127.719 64.6637 128.161 63.57 128.453L62.7262 128.781H55.6481L55.6169 126.328H60.9606C62.044 126.328 62.945 126.141 63.6637 125.766C64.3825 125.38 64.9242 124.865 65.2887 124.219C65.6533 123.573 65.8356 122.859 65.8356 122.078C65.8356 121.203 65.6637 120.438 65.32 119.781C64.9762 119.125 64.4346 118.62 63.695 118.266C62.9658 117.901 62.0231 117.719 60.8669 117.719H56.3512V138H53.3356V115.25ZM66.6325 138L61.1012 127.688L64.2419 127.672L69.8512 137.812V138H66.6325ZM80.9125 138.312C79.7354 138.312 78.6677 138.115 77.7094 137.719C76.7615 137.312 75.9438 136.745 75.2563 136.016C74.5792 135.286 74.0583 134.422 73.6938 133.422C73.3292 132.422 73.1469 131.328 73.1469 130.141V129.484C73.1469 128.109 73.35 126.885 73.7563 125.812C74.1625 124.729 74.7146 123.812 75.4125 123.062C76.1104 122.312 76.9021 121.745 77.7875 121.359C78.6729 120.974 79.5896 120.781 80.5375 120.781C81.7458 120.781 82.7875 120.99 83.6625 121.406C84.5479 121.823 85.2719 122.406 85.8344 123.156C86.3969 123.896 86.8135 124.771 87.0844 125.781C87.3552 126.781 87.4906 127.875 87.4906 129.062V130.359H74.8656V128H84.6V127.781C84.5583 127.031 84.4021 126.302 84.1313 125.594C83.8708 124.885 83.4542 124.302 82.8813 123.844C82.3083 123.385 81.5271 123.156 80.5375 123.156C79.8813 123.156 79.2771 123.297 78.725 123.578C78.1729 123.849 77.699 124.255 77.3031 124.797C76.9073 125.339 76.6 126 76.3813 126.781C76.1625 127.562 76.0531 128.464 76.0531 129.484V130.141C76.0531 130.943 76.1625 131.698 76.3813 132.406C76.6104 133.104 76.9385 133.719 77.3656 134.25C77.8031 134.781 78.3292 135.198 78.9438 135.5C79.5688 135.802 80.2771 135.953 81.0688 135.953C82.0896 135.953 82.9542 135.745 83.6625 135.328C84.3708 134.911 84.9906 134.354 85.5219 133.656L87.2719 135.047C86.9073 135.599 86.4438 136.125 85.8813 136.625C85.3188 137.125 84.626 137.531 83.8031 137.844C82.9906 138.156 82.0271 138.312 80.9125 138.312ZM95.0363 124.344V144.5H92.13V121.094H94.7863L95.0363 124.344ZM106.427 129.406V129.734C106.427 130.964 106.281 132.104 105.989 133.156C105.698 134.198 105.271 135.104 104.708 135.875C104.156 136.646 103.474 137.245 102.661 137.672C101.849 138.099 100.916 138.312 99.8644 138.312C98.7915 138.312 97.8435 138.135 97.0206 137.781C96.1977 137.427 95.4998 136.911 94.9269 136.234C94.354 135.557 93.8956 134.745 93.5519 133.797C93.2185 132.849 92.9894 131.781 92.8644 130.594V128.844C92.9894 127.594 93.2238 126.474 93.5675 125.484C93.9113 124.495 94.3644 123.651 94.9269 122.953C95.4998 122.245 96.1925 121.708 97.005 121.344C97.8175 120.969 98.755 120.781 99.8175 120.781C100.88 120.781 101.823 120.99 102.646 121.406C103.469 121.812 104.161 122.396 104.724 123.156C105.286 123.917 105.708 124.828 105.989 125.891C106.281 126.943 106.427 128.115 106.427 129.406ZM103.521 129.734V129.406C103.521 128.562 103.432 127.771 103.255 127.031C103.078 126.281 102.802 125.625 102.427 125.062C102.062 124.49 101.594 124.042 101.021 123.719C100.448 123.385 99.7654 123.219 98.9738 123.219C98.2446 123.219 97.6092 123.344 97.0675 123.594C96.5363 123.844 96.0831 124.182 95.7081 124.609C95.3331 125.026 95.0258 125.505 94.7863 126.047C94.5571 126.578 94.3852 127.13 94.2706 127.703V131.75C94.479 132.479 94.7706 133.167 95.1456 133.812C95.5206 134.448 96.0206 134.964 96.6456 135.359C97.2706 135.745 98.0571 135.938 99.005 135.938C99.7863 135.938 100.458 135.776 101.021 135.453C101.594 135.12 102.062 134.667 102.427 134.094C102.802 133.521 103.078 132.865 103.255 132.125C103.432 131.375 103.521 130.578 103.521 129.734ZM121.363 135.109V126.406C121.363 125.74 121.228 125.161 120.957 124.672C120.696 124.172 120.301 123.786 119.769 123.516C119.238 123.245 118.582 123.109 117.801 123.109C117.071 123.109 116.431 123.234 115.879 123.484C115.337 123.734 114.91 124.062 114.597 124.469C114.295 124.875 114.144 125.312 114.144 125.781H111.254C111.254 125.177 111.41 124.578 111.722 123.984C112.035 123.391 112.483 122.854 113.066 122.375C113.66 121.885 114.368 121.5 115.191 121.219C116.025 120.927 116.952 120.781 117.972 120.781C119.202 120.781 120.285 120.99 121.222 121.406C122.17 121.823 122.91 122.453 123.441 123.297C123.983 124.13 124.254 125.177 124.254 126.438V134.312C124.254 134.875 124.301 135.474 124.394 136.109C124.499 136.745 124.65 137.292 124.847 137.75V138H121.832C121.686 137.667 121.571 137.224 121.488 136.672C121.405 136.109 121.363 135.589 121.363 135.109ZM121.863 127.75L121.894 129.781H118.972C118.15 129.781 117.415 129.849 116.769 129.984C116.124 130.109 115.582 130.302 115.144 130.562C114.707 130.823 114.374 131.151 114.144 131.547C113.915 131.932 113.801 132.385 113.801 132.906C113.801 133.438 113.92 133.922 114.16 134.359C114.4 134.797 114.759 135.146 115.238 135.406C115.728 135.656 116.327 135.781 117.035 135.781C117.92 135.781 118.702 135.594 119.379 135.219C120.056 134.844 120.592 134.385 120.988 133.844C121.394 133.302 121.613 132.776 121.644 132.266L122.879 133.656C122.806 134.094 122.608 134.578 122.285 135.109C121.962 135.641 121.53 136.151 120.988 136.641C120.457 137.12 119.821 137.521 119.082 137.844C118.353 138.156 117.53 138.312 116.613 138.312C115.467 138.312 114.462 138.089 113.597 137.641C112.743 137.193 112.077 136.594 111.597 135.844C111.129 135.083 110.894 134.234 110.894 133.297C110.894 132.391 111.071 131.594 111.426 130.906C111.78 130.208 112.29 129.63 112.957 129.172C113.624 128.703 114.426 128.349 115.363 128.109C116.301 127.87 117.347 127.75 118.504 127.75H121.863ZM132.971 123.75V138H130.081V121.094H132.893L132.971 123.75ZM138.253 121L138.237 123.688C137.997 123.635 137.768 123.604 137.549 123.594C137.341 123.573 137.101 123.562 136.831 123.562C136.164 123.562 135.575 123.667 135.065 123.875C134.555 124.083 134.122 124.375 133.768 124.75C133.414 125.125 133.133 125.573 132.924 126.094C132.726 126.604 132.596 127.167 132.534 127.781L131.721 128.25C131.721 127.229 131.82 126.271 132.018 125.375C132.226 124.479 132.544 123.688 132.971 123C133.398 122.302 133.94 121.76 134.596 121.375C135.263 120.979 136.055 120.781 136.971 120.781C137.18 120.781 137.419 120.807 137.69 120.859C137.961 120.901 138.148 120.948 138.253 121ZM151.548 135.109V126.406C151.548 125.74 151.413 125.161 151.142 124.672C150.881 124.172 150.486 123.786 149.954 123.516C149.423 123.245 148.767 123.109 147.986 123.109C147.256 123.109 146.616 123.234 146.064 123.484C145.522 123.734 145.095 124.062 144.783 124.469C144.48 124.875 144.329 125.312 144.329 125.781H141.439C141.439 125.177 141.595 124.578 141.908 123.984C142.22 123.391 142.668 122.854 143.251 122.375C143.845 121.885 144.553 121.5 145.376 121.219C146.21 120.927 147.137 120.781 148.158 120.781C149.387 120.781 150.47 120.99 151.408 121.406C152.355 121.823 153.095 122.453 153.626 123.297C154.168 124.13 154.439 125.177 154.439 126.438V134.312C154.439 134.875 154.486 135.474 154.579 136.109C154.684 136.745 154.835 137.292 155.033 137.75V138H152.017C151.871 137.667 151.756 137.224 151.673 136.672C151.59 136.109 151.548 135.589 151.548 135.109ZM152.048 127.75L152.079 129.781H149.158C148.335 129.781 147.6 129.849 146.954 129.984C146.309 130.109 145.767 130.302 145.329 130.562C144.892 130.823 144.559 131.151 144.329 131.547C144.1 131.932 143.986 132.385 143.986 132.906C143.986 133.438 144.105 133.922 144.345 134.359C144.585 134.797 144.944 135.146 145.423 135.406C145.913 135.656 146.512 135.781 147.22 135.781C148.105 135.781 148.887 135.594 149.564 135.219C150.241 134.844 150.777 134.385 151.173 133.844C151.579 133.302 151.798 132.776 151.829 132.266L153.064 133.656C152.991 134.094 152.793 134.578 152.47 135.109C152.147 135.641 151.715 136.151 151.173 136.641C150.642 137.12 150.006 137.521 149.267 137.844C148.538 138.156 147.715 138.312 146.798 138.312C145.652 138.312 144.647 138.089 143.783 137.641C142.928 137.193 142.262 136.594 141.783 135.844C141.314 135.083 141.079 134.234 141.079 133.297C141.079 132.391 141.256 131.594 141.611 130.906C141.965 130.208 142.475 129.63 143.142 129.172C143.809 128.703 144.611 128.349 145.548 128.109C146.486 127.87 147.533 127.75 148.689 127.75H152.048ZM167.031 135.938C167.719 135.938 168.354 135.797 168.938 135.516C169.521 135.234 170 134.849 170.375 134.359C170.75 133.859 170.964 133.292 171.016 132.656H173.766C173.714 133.656 173.375 134.589 172.75 135.453C172.135 136.307 171.328 137 170.328 137.531C169.328 138.052 168.229 138.312 167.031 138.312C165.76 138.312 164.651 138.089 163.703 137.641C162.766 137.193 161.984 136.578 161.359 135.797C160.745 135.016 160.281 134.12 159.969 133.109C159.667 132.089 159.516 131.01 159.516 129.875V129.219C159.516 128.083 159.667 127.01 159.969 126C160.281 124.979 160.745 124.078 161.359 123.297C161.984 122.516 162.766 121.901 163.703 121.453C164.651 121.005 165.76 120.781 167.031 120.781C168.354 120.781 169.51 121.052 170.5 121.594C171.49 122.125 172.266 122.854 172.828 123.781C173.401 124.698 173.714 125.74 173.766 126.906H171.016C170.964 126.208 170.766 125.578 170.422 125.016C170.089 124.453 169.63 124.005 169.047 123.672C168.474 123.328 167.802 123.156 167.031 123.156C166.146 123.156 165.401 123.333 164.797 123.688C164.203 124.031 163.729 124.5 163.375 125.094C163.031 125.677 162.781 126.328 162.625 127.047C162.479 127.755 162.406 128.479 162.406 129.219V129.875C162.406 130.615 162.479 131.344 162.625 132.062C162.771 132.781 163.016 133.432 163.359 134.016C163.714 134.599 164.188 135.068 164.781 135.422C165.385 135.766 166.135 135.938 167.031 135.938ZM181.436 121.094V138H178.53V121.094H181.436ZM178.311 116.609C178.311 116.141 178.452 115.745 178.733 115.422C179.025 115.099 179.452 114.938 180.014 114.938C180.566 114.938 180.988 115.099 181.28 115.422C181.582 115.745 181.733 116.141 181.733 116.609C181.733 117.057 181.582 117.443 181.28 117.766C180.988 118.078 180.566 118.234 180.014 118.234C179.452 118.234 179.025 118.078 178.733 117.766C178.452 117.443 178.311 117.057 178.311 116.609ZM186.591 129.734V129.375C186.591 128.156 186.768 127.026 187.122 125.984C187.477 124.932 187.987 124.021 188.654 123.25C189.32 122.469 190.128 121.865 191.076 121.438C192.024 121 193.086 120.781 194.263 120.781C195.451 120.781 196.518 121 197.466 121.438C198.425 121.865 199.237 122.469 199.904 123.25C200.581 124.021 201.096 124.932 201.451 125.984C201.805 127.026 201.982 128.156 201.982 129.375V129.734C201.982 130.953 201.805 132.083 201.451 133.125C201.096 134.167 200.581 135.078 199.904 135.859C199.237 136.63 198.43 137.234 197.482 137.672C196.544 138.099 195.482 138.312 194.294 138.312C193.107 138.312 192.039 138.099 191.091 137.672C190.143 137.234 189.331 136.63 188.654 135.859C187.987 135.078 187.477 134.167 187.122 133.125C186.768 132.083 186.591 130.953 186.591 129.734ZM189.482 129.375V129.734C189.482 130.578 189.581 131.375 189.779 132.125C189.977 132.865 190.274 133.521 190.669 134.094C191.076 134.667 191.581 135.12 192.185 135.453C192.789 135.776 193.492 135.938 194.294 135.938C195.086 135.938 195.779 135.776 196.372 135.453C196.977 135.12 197.477 134.667 197.872 134.094C198.268 133.521 198.565 132.865 198.763 132.125C198.971 131.375 199.076 130.578 199.076 129.734V129.375C199.076 128.542 198.971 127.755 198.763 127.016C198.565 126.266 198.263 125.604 197.857 125.031C197.461 124.448 196.961 123.99 196.357 123.656C195.763 123.323 195.065 123.156 194.263 123.156C193.471 123.156 192.774 123.323 192.169 123.656C191.576 123.99 191.076 124.448 190.669 125.031C190.274 125.604 189.977 126.266 189.779 127.016C189.581 127.755 189.482 128.542 189.482 129.375ZM209.777 124.703V138H206.887V121.094H209.621L209.777 124.703ZM209.09 128.906L207.887 128.859C207.897 127.703 208.069 126.635 208.402 125.656C208.736 124.667 209.205 123.807 209.809 123.078C210.413 122.349 211.132 121.786 211.965 121.391C212.809 120.984 213.741 120.781 214.762 120.781C215.595 120.781 216.345 120.896 217.012 121.125C217.679 121.344 218.246 121.698 218.715 122.188C219.194 122.677 219.559 123.312 219.809 124.094C220.059 124.865 220.184 125.807 220.184 126.922V138H217.277V126.891C217.277 126.005 217.147 125.297 216.887 124.766C216.626 124.224 216.246 123.833 215.746 123.594C215.246 123.344 214.632 123.219 213.902 123.219C213.184 123.219 212.527 123.37 211.934 123.672C211.35 123.974 210.845 124.391 210.418 124.922C210.001 125.453 209.673 126.062 209.434 126.75C209.205 127.427 209.09 128.146 209.09 128.906ZM239.822 136.25L244.525 121.094H247.619L240.837 140.609C240.681 141.026 240.473 141.474 240.212 141.953C239.962 142.443 239.64 142.906 239.244 143.344C238.848 143.781 238.369 144.135 237.806 144.406C237.254 144.688 236.593 144.828 235.822 144.828C235.593 144.828 235.301 144.797 234.947 144.734C234.593 144.672 234.343 144.62 234.197 144.578L234.181 142.234C234.265 142.245 234.395 142.255 234.572 142.266C234.759 142.286 234.89 142.297 234.962 142.297C235.619 142.297 236.176 142.208 236.634 142.031C237.093 141.865 237.478 141.578 237.791 141.172C238.114 140.776 238.39 140.229 238.619 139.531L239.822 136.25ZM236.369 121.094L240.759 134.219L241.509 137.266L239.431 138.328L233.212 121.094H236.369ZM73.3662 173.547V176H61.9912V173.547H73.3662ZM62.585 153.25V176H59.5694V153.25H62.585ZM80.8025 159.094V176H77.8962V159.094H80.8025ZM77.6775 154.609C77.6775 154.141 77.8181 153.745 78.0994 153.422C78.391 153.099 78.8181 152.938 79.3806 152.938C79.9327 152.938 80.3546 153.099 80.6462 153.422C80.9483 153.745 81.0994 154.141 81.0994 154.609C81.0994 155.057 80.9483 155.443 80.6462 155.766C80.3546 156.078 79.9327 156.234 79.3806 156.234C78.8181 156.234 78.391 156.078 78.0994 155.766C77.8181 155.443 77.6775 155.057 77.6775 154.609ZM89.5981 162.453V176H86.6919V159.094H89.4419L89.5981 162.453ZM89.0044 166.906L87.6606 166.859C87.671 165.703 87.8221 164.635 88.1137 163.656C88.4054 162.667 88.8377 161.807 89.4106 161.078C89.9835 160.349 90.6971 159.786 91.5512 159.391C92.4054 158.984 93.395 158.781 94.52 158.781C95.3117 158.781 96.0408 158.896 96.7075 159.125C97.3742 159.344 97.9523 159.693 98.4419 160.172C98.9315 160.651 99.3117 161.266 99.5825 162.016C99.8533 162.766 99.9887 163.672 99.9887 164.734V176H97.0981V164.875C97.0981 163.99 96.9471 163.281 96.645 162.75C96.3533 162.219 95.9367 161.833 95.395 161.594C94.8533 161.344 94.2179 161.219 93.4887 161.219C92.6346 161.219 91.921 161.37 91.3481 161.672C90.7752 161.974 90.3169 162.391 89.9731 162.922C89.6294 163.453 89.3794 164.062 89.2231 164.75C89.0773 165.427 89.0044 166.146 89.0044 166.906ZM99.9575 165.312L98.02 165.906C98.0304 164.979 98.1815 164.089 98.4731 163.234C98.7752 162.38 99.2075 161.62 99.77 160.953C100.343 160.286 101.046 159.76 101.879 159.375C102.713 158.979 103.666 158.781 104.739 158.781C105.645 158.781 106.447 158.901 107.145 159.141C107.853 159.38 108.447 159.75 108.926 160.25C109.416 160.74 109.786 161.37 110.036 162.141C110.286 162.911 110.411 163.828 110.411 164.891V176H107.504V164.859C107.504 163.911 107.353 163.177 107.051 162.656C106.76 162.125 106.343 161.755 105.801 161.547C105.27 161.328 104.635 161.219 103.895 161.219C103.26 161.219 102.697 161.328 102.207 161.547C101.718 161.766 101.306 162.068 100.973 162.453C100.64 162.828 100.385 163.26 100.207 163.75C100.041 164.24 99.9575 164.76 99.9575 165.312ZM118.956 162.344V182.5H116.05V159.094H118.706L118.956 162.344ZM130.347 167.406V167.734C130.347 168.964 130.201 170.104 129.909 171.156C129.618 172.198 129.191 173.104 128.628 173.875C128.076 174.646 127.394 175.245 126.581 175.672C125.769 176.099 124.836 176.312 123.784 176.312C122.711 176.312 121.764 176.135 120.941 175.781C120.118 175.427 119.42 174.911 118.847 174.234C118.274 173.557 117.816 172.745 117.472 171.797C117.139 170.849 116.909 169.781 116.784 168.594V166.844C116.909 165.594 117.144 164.474 117.487 163.484C117.831 162.495 118.284 161.651 118.847 160.953C119.42 160.245 120.112 159.708 120.925 159.344C121.737 158.969 122.675 158.781 123.737 158.781C124.8 158.781 125.743 158.99 126.566 159.406C127.389 159.812 128.081 160.396 128.644 161.156C129.206 161.917 129.628 162.828 129.909 163.891C130.201 164.943 130.347 166.115 130.347 167.406ZM127.441 167.734V167.406C127.441 166.562 127.352 165.771 127.175 165.031C126.998 164.281 126.722 163.625 126.347 163.062C125.982 162.49 125.514 162.042 124.941 161.719C124.368 161.385 123.685 161.219 122.894 161.219C122.165 161.219 121.529 161.344 120.987 161.594C120.456 161.844 120.003 162.182 119.628 162.609C119.253 163.026 118.946 163.505 118.706 164.047C118.477 164.578 118.305 165.13 118.191 165.703V169.75C118.399 170.479 118.691 171.167 119.066 171.812C119.441 172.448 119.941 172.964 120.566 173.359C121.191 173.745 121.977 173.938 122.925 173.938C123.706 173.938 124.378 173.776 124.941 173.453C125.514 173.12 125.982 172.667 126.347 172.094C126.722 171.521 126.998 170.865 127.175 170.125C127.352 169.375 127.441 168.578 127.441 167.734ZM138.455 159.094V176H135.549V159.094H138.455ZM135.33 154.609C135.33 154.141 135.471 153.745 135.752 153.422C136.044 153.099 136.471 152.938 137.033 152.938C137.585 152.938 138.007 153.099 138.299 153.422C138.601 153.745 138.752 154.141 138.752 154.609C138.752 155.057 138.601 155.443 138.299 155.766C138.007 156.078 137.585 156.234 137.033 156.234C136.471 156.234 136.044 156.078 135.752 155.766C135.471 155.443 135.33 155.057 135.33 154.609ZM151.391 176.312C150.214 176.312 149.146 176.115 148.188 175.719C147.24 175.312 146.423 174.745 145.735 174.016C145.058 173.286 144.537 172.422 144.173 171.422C143.808 170.422 143.626 169.328 143.626 168.141V167.484C143.626 166.109 143.829 164.885 144.235 163.812C144.641 162.729 145.193 161.812 145.891 161.062C146.589 160.312 147.381 159.745 148.266 159.359C149.152 158.974 150.068 158.781 151.016 158.781C152.225 158.781 153.266 158.99 154.141 159.406C155.027 159.823 155.751 160.406 156.313 161.156C156.876 161.896 157.292 162.771 157.563 163.781C157.834 164.781 157.969 165.875 157.969 167.062V168.359H145.344V166H155.079V165.781C155.037 165.031 154.881 164.302 154.61 163.594C154.35 162.885 153.933 162.302 153.36 161.844C152.787 161.385 152.006 161.156 151.016 161.156C150.36 161.156 149.756 161.297 149.204 161.578C148.652 161.849 148.178 162.255 147.782 162.797C147.386 163.339 147.079 164 146.86 164.781C146.641 165.562 146.532 166.464 146.532 167.484V168.141C146.532 168.943 146.641 169.698 146.86 170.406C147.089 171.104 147.417 171.719 147.844 172.25C148.282 172.781 148.808 173.198 149.423 173.5C150.048 173.802 150.756 173.953 151.548 173.953C152.568 173.953 153.433 173.745 154.141 173.328C154.85 172.911 155.469 172.354 156.001 171.656L157.751 173.047C157.386 173.599 156.923 174.125 156.36 174.625C155.798 175.125 155.105 175.531 154.282 175.844C153.469 176.156 152.506 176.312 151.391 176.312ZM175.218 173.625V176H162.921V173.625H175.218ZM174.765 161.141L163.577 176H161.812V173.875L172.921 159.094H174.765V161.141ZM173.484 159.094V161.484H161.937V159.094H173.484ZM189.748 173.109V164.406C189.748 163.74 189.613 163.161 189.342 162.672C189.081 162.172 188.686 161.786 188.154 161.516C187.623 161.245 186.967 161.109 186.186 161.109C185.456 161.109 184.816 161.234 184.264 161.484C183.722 161.734 183.295 162.062 182.982 162.469C182.68 162.875 182.529 163.312 182.529 163.781H179.639C179.639 163.177 179.795 162.578 180.107 161.984C180.42 161.391 180.868 160.854 181.451 160.375C182.045 159.885 182.753 159.5 183.576 159.219C184.41 158.927 185.337 158.781 186.357 158.781C187.587 158.781 188.67 158.99 189.607 159.406C190.555 159.823 191.295 160.453 191.826 161.297C192.368 162.13 192.639 163.177 192.639 164.438V172.312C192.639 172.875 192.686 173.474 192.779 174.109C192.884 174.745 193.035 175.292 193.232 175.75V176H190.217C190.071 175.667 189.956 175.224 189.873 174.672C189.79 174.109 189.748 173.589 189.748 173.109ZM190.248 165.75L190.279 167.781H187.357C186.535 167.781 185.8 167.849 185.154 167.984C184.509 168.109 183.967 168.302 183.529 168.562C183.092 168.823 182.759 169.151 182.529 169.547C182.3 169.932 182.186 170.385 182.186 170.906C182.186 171.438 182.305 171.922 182.545 172.359C182.785 172.797 183.144 173.146 183.623 173.406C184.113 173.656 184.712 173.781 185.42 173.781C186.305 173.781 187.087 173.594 187.764 173.219C188.441 172.844 188.977 172.385 189.373 171.844C189.779 171.302 189.998 170.776 190.029 170.266L191.264 171.656C191.191 172.094 190.993 172.578 190.67 173.109C190.347 173.641 189.915 174.151 189.373 174.641C188.842 175.12 188.206 175.521 187.467 175.844C186.738 176.156 185.915 176.312 184.998 176.312C183.852 176.312 182.847 176.089 181.982 175.641C181.128 175.193 180.462 174.594 179.982 173.844C179.514 173.083 179.279 172.234 179.279 171.297C179.279 170.391 179.456 169.594 179.811 168.906C180.165 168.208 180.675 167.63 181.342 167.172C182.009 166.703 182.811 166.349 183.748 166.109C184.686 165.87 185.732 165.75 186.889 165.75H190.248ZM218.339 172.719V152H221.246V176H218.589L218.339 172.719ZM206.964 167.734V167.406C206.964 166.115 207.121 164.943 207.433 163.891C207.756 162.828 208.209 161.917 208.793 161.156C209.386 160.396 210.089 159.812 210.902 159.406C211.725 158.99 212.641 158.781 213.652 158.781C214.714 158.781 215.641 158.969 216.433 159.344C217.235 159.708 217.912 160.245 218.464 160.953C219.027 161.651 219.47 162.495 219.793 163.484C220.115 164.474 220.339 165.594 220.464 166.844V168.281C220.35 169.521 220.126 170.635 219.793 171.625C219.47 172.615 219.027 173.458 218.464 174.156C217.912 174.854 217.235 175.391 216.433 175.766C215.631 176.13 214.694 176.312 213.621 176.312C212.631 176.312 211.725 176.099 210.902 175.672C210.089 175.245 209.386 174.646 208.793 173.875C208.209 173.104 207.756 172.198 207.433 171.156C207.121 170.104 206.964 168.964 206.964 167.734ZM209.871 167.406V167.734C209.871 168.578 209.954 169.37 210.121 170.109C210.298 170.849 210.569 171.5 210.933 172.062C211.298 172.625 211.761 173.068 212.324 173.391C212.886 173.703 213.558 173.859 214.339 173.859C215.298 173.859 216.084 173.656 216.699 173.25C217.324 172.844 217.824 172.307 218.199 171.641C218.574 170.974 218.865 170.25 219.074 169.469V165.703C218.949 165.13 218.766 164.578 218.527 164.047C218.298 163.505 217.996 163.026 217.621 162.609C217.256 162.182 216.803 161.844 216.261 161.594C215.73 161.344 215.1 161.219 214.371 161.219C213.579 161.219 212.897 161.385 212.324 161.719C211.761 162.042 211.298 162.49 210.933 163.062C210.569 163.625 210.298 164.281 210.121 165.031C209.954 165.771 209.871 166.562 209.871 167.406ZM234.041 176.312C232.864 176.312 231.796 176.115 230.838 175.719C229.89 175.312 229.073 174.745 228.385 174.016C227.708 173.286 227.187 172.422 226.823 171.422C226.458 170.422 226.276 169.328 226.276 168.141V167.484C226.276 166.109 226.479 164.885 226.885 163.812C227.291 162.729 227.843 161.812 228.541 161.062C229.239 160.312 230.031 159.745 230.916 159.359C231.802 158.974 232.718 158.781 233.666 158.781C234.875 158.781 235.916 158.99 236.791 159.406C237.677 159.823 238.401 160.406 238.963 161.156C239.526 161.896 239.942 162.771 240.213 163.781C240.484 164.781 240.619 165.875 240.619 167.062V168.359H227.994V166H237.729V165.781C237.687 165.031 237.531 164.302 237.26 163.594C237 162.885 236.583 162.302 236.01 161.844C235.437 161.385 234.656 161.156 233.666 161.156C233.01 161.156 232.406 161.297 231.854 161.578C231.302 161.849 230.828 162.255 230.432 162.797C230.036 163.339 229.729 164 229.51 164.781C229.291 165.562 229.182 166.464 229.182 167.484V168.141C229.182 168.943 229.291 169.698 229.51 170.406C229.739 171.104 230.067 171.719 230.494 172.25C230.932 172.781 231.458 173.198 232.073 173.5C232.698 173.802 233.406 173.953 234.198 173.953C235.218 173.953 236.083 173.745 236.791 173.328C237.5 172.911 238.119 172.354 238.651 171.656L240.401 173.047C240.036 173.599 239.573 174.125 239.01 174.625C238.448 175.125 237.755 175.531 236.932 175.844C236.119 176.156 235.156 176.312 234.041 176.312ZM66.5212 191.25H74.0525C75.7608 191.25 77.2035 191.51 78.3806 192.031C79.5681 192.552 80.4692 193.323 81.0837 194.344C81.7087 195.354 82.0212 196.599 82.0212 198.078C82.0212 199.12 81.8077 200.073 81.3806 200.938C80.964 201.792 80.3598 202.521 79.5681 203.125C78.7869 203.719 77.8494 204.161 76.7556 204.453L75.9119 204.781H68.8337L68.8025 202.328H74.1462C75.2296 202.328 76.1306 202.141 76.8494 201.766C77.5681 201.38 78.1098 200.865 78.4744 200.219C78.839 199.573 79.0212 198.859 79.0212 198.078C79.0212 197.203 78.8494 196.438 78.5056 195.781C78.1619 195.125 77.6202 194.62 76.8806 194.266C76.1515 193.901 75.2087 193.719 74.0525 193.719H69.5369V214H66.5212V191.25ZM79.8181 214L74.2869 203.688L77.4275 203.672L83.0369 213.812V214H79.8181ZM97.0512 211.109V202.406C97.0512 201.74 96.9158 201.161 96.645 200.672C96.3846 200.172 95.9887 199.786 95.4575 199.516C94.9262 199.245 94.27 199.109 93.4887 199.109C92.7596 199.109 92.119 199.234 91.5669 199.484C91.0252 199.734 90.5981 200.062 90.2856 200.469C89.9835 200.875 89.8325 201.312 89.8325 201.781H86.9419C86.9419 201.177 87.0981 200.578 87.4106 199.984C87.7231 199.391 88.171 198.854 88.7544 198.375C89.3481 197.885 90.0565 197.5 90.8794 197.219C91.7127 196.927 92.6398 196.781 93.6606 196.781C94.8898 196.781 95.9731 196.99 96.9106 197.406C97.8585 197.823 98.5981 198.453 99.1294 199.297C99.671 200.13 99.9419 201.177 99.9419 202.438V210.312C99.9419 210.875 99.9887 211.474 100.082 212.109C100.187 212.745 100.338 213.292 100.536 213.75V214H97.52C97.3742 213.667 97.2596 213.224 97.1762 212.672C97.0929 212.109 97.0512 211.589 97.0512 211.109ZM97.5512 203.75L97.5825 205.781H94.6606C93.8377 205.781 93.1033 205.849 92.4575 205.984C91.8117 206.109 91.27 206.302 90.8325 206.562C90.395 206.823 90.0617 207.151 89.8325 207.547C89.6033 207.932 89.4887 208.385 89.4887 208.906C89.4887 209.438 89.6085 209.922 89.8481 210.359C90.0877 210.797 90.4471 211.146 90.9262 211.406C91.4158 211.656 92.0148 211.781 92.7231 211.781C93.6085 211.781 94.3898 211.594 95.0669 211.219C95.744 210.844 96.2804 210.385 96.6762 209.844C97.0825 209.302 97.3012 208.776 97.3325 208.266L98.5669 209.656C98.494 210.094 98.296 210.578 97.9731 211.109C97.6502 211.641 97.2179 212.151 96.6762 212.641C96.145 213.12 95.5096 213.521 94.77 213.844C94.0408 214.156 93.2179 214.312 92.3012 214.312C91.1554 214.312 90.1502 214.089 89.2856 213.641C88.4315 213.193 87.7648 212.594 87.2856 211.844C86.8169 211.083 86.5825 210.234 86.5825 209.297C86.5825 208.391 86.7596 207.594 87.1137 206.906C87.4679 206.208 87.9783 205.63 88.645 205.172C89.3117 204.703 90.1137 204.349 91.0512 204.109C91.9887 203.87 93.0356 203.75 94.1919 203.75H97.5512ZM116.425 210.719V190H119.331V214H116.675L116.425 210.719ZM105.05 205.734V205.406C105.05 204.115 105.206 202.943 105.519 201.891C105.842 200.828 106.295 199.917 106.878 199.156C107.472 198.396 108.175 197.812 108.987 197.406C109.81 196.99 110.727 196.781 111.737 196.781C112.8 196.781 113.727 196.969 114.519 197.344C115.321 197.708 115.998 198.245 116.55 198.953C117.112 199.651 117.555 200.495 117.878 201.484C118.201 202.474 118.425 203.594 118.55 204.844V206.281C118.435 207.521 118.211 208.635 117.878 209.625C117.555 210.615 117.112 211.458 116.55 212.156C115.998 212.854 115.321 213.391 114.519 213.766C113.717 214.13 112.779 214.312 111.706 214.312C110.717 214.312 109.81 214.099 108.987 213.672C108.175 213.245 107.472 212.646 106.878 211.875C106.295 211.104 105.842 210.198 105.519 209.156C105.206 208.104 105.05 206.964 105.05 205.734ZM107.956 205.406V205.734C107.956 206.578 108.04 207.37 108.206 208.109C108.383 208.849 108.654 209.5 109.019 210.062C109.383 210.625 109.847 211.068 110.409 211.391C110.972 211.703 111.644 211.859 112.425 211.859C113.383 211.859 114.17 211.656 114.784 211.25C115.409 210.844 115.909 210.307 116.284 209.641C116.659 208.974 116.951 208.25 117.159 207.469V203.703C117.034 203.13 116.852 202.578 116.612 202.047C116.383 201.505 116.081 201.026 115.706 200.609C115.342 200.182 114.889 199.844 114.347 199.594C113.816 199.344 113.185 199.219 112.456 199.219C111.665 199.219 110.982 199.385 110.409 199.719C109.847 200.042 109.383 200.49 109.019 201.062C108.654 201.625 108.383 202.281 108.206 203.031C108.04 203.771 107.956 204.562 107.956 205.406ZM128.252 197.094V214H125.346V197.094H128.252ZM125.127 192.609C125.127 192.141 125.268 191.745 125.549 191.422C125.84 191.099 126.268 190.938 126.83 190.938C127.382 190.938 127.804 191.099 128.096 191.422C128.398 191.745 128.549 192.141 128.549 192.609C128.549 193.057 128.398 193.443 128.096 193.766C127.804 194.078 127.382 194.234 126.83 194.234C126.268 194.234 125.84 194.078 125.549 193.766C125.268 193.443 125.127 193.057 125.127 192.609ZM144.141 211.109V202.406C144.141 201.74 144.006 201.161 143.735 200.672C143.475 200.172 143.079 199.786 142.548 199.516C142.016 199.245 141.36 199.109 140.579 199.109C139.85 199.109 139.209 199.234 138.657 199.484C138.115 199.734 137.688 200.062 137.376 200.469C137.074 200.875 136.923 201.312 136.923 201.781H134.032C134.032 201.177 134.188 200.578 134.501 199.984C134.813 199.391 135.261 198.854 135.844 198.375C136.438 197.885 137.146 197.5 137.969 197.219C138.803 196.927 139.73 196.781 140.751 196.781C141.98 196.781 143.063 196.99 144.001 197.406C144.949 197.823 145.688 198.453 146.219 199.297C146.761 200.13 147.032 201.177 147.032 202.438V210.312C147.032 210.875 147.079 211.474 147.173 212.109C147.277 212.745 147.428 213.292 147.626 213.75V214H144.61C144.464 213.667 144.35 213.224 144.266 212.672C144.183 212.109 144.141 211.589 144.141 211.109ZM144.641 203.75L144.673 205.781H141.751C140.928 205.781 140.193 205.849 139.548 205.984C138.902 206.109 138.36 206.302 137.923 206.562C137.485 206.823 137.152 207.151 136.923 207.547C136.693 207.932 136.579 208.385 136.579 208.906C136.579 209.438 136.699 209.922 136.938 210.359C137.178 210.797 137.537 211.146 138.016 211.406C138.506 211.656 139.105 211.781 139.813 211.781C140.699 211.781 141.48 211.594 142.157 211.219C142.834 210.844 143.37 210.385 143.766 209.844C144.173 209.302 144.391 208.776 144.423 208.266L145.657 209.656C145.584 210.094 145.386 210.578 145.063 211.109C144.74 211.641 144.308 212.151 143.766 212.641C143.235 213.12 142.6 213.521 141.86 213.844C141.131 214.156 140.308 214.312 139.391 214.312C138.245 214.312 137.24 214.089 136.376 213.641C135.521 213.193 134.855 212.594 134.376 211.844C133.907 211.083 133.673 210.234 133.673 209.297C133.673 208.391 133.85 207.594 134.204 206.906C134.558 206.208 135.068 205.63 135.735 205.172C136.402 204.703 137.204 204.349 138.141 204.109C139.079 203.87 140.126 203.75 141.282 203.75H144.641ZM163.515 210.719V190H166.421V214H163.765L163.515 210.719ZM152.14 205.734V205.406C152.14 204.115 152.296 202.943 152.609 201.891C152.932 200.828 153.385 199.917 153.968 199.156C154.562 198.396 155.265 197.812 156.077 197.406C156.9 196.99 157.817 196.781 158.827 196.781C159.89 196.781 160.817 196.969 161.609 197.344C162.411 197.708 163.088 198.245 163.64 198.953C164.202 199.651 164.645 200.495 164.968 201.484C165.291 202.474 165.515 203.594 165.64 204.844V206.281C165.525 207.521 165.301 208.635 164.968 209.625C164.645 210.615 164.202 211.458 163.64 212.156C163.088 212.854 162.411 213.391 161.609 213.766C160.807 214.13 159.869 214.312 158.796 214.312C157.807 214.312 156.9 214.099 156.077 213.672C155.265 213.245 154.562 212.646 153.968 211.875C153.385 211.104 152.932 210.198 152.609 209.156C152.296 208.104 152.14 206.964 152.14 205.734ZM155.046 205.406V205.734C155.046 206.578 155.13 207.37 155.296 208.109C155.473 208.849 155.744 209.5 156.109 210.062C156.473 210.625 156.937 211.068 157.499 211.391C158.062 211.703 158.734 211.859 159.515 211.859C160.473 211.859 161.26 211.656 161.874 211.25C162.499 210.844 162.999 210.307 163.374 209.641C163.749 208.974 164.041 208.25 164.249 207.469V203.703C164.124 203.13 163.942 202.578 163.702 202.047C163.473 201.505 163.171 201.026 162.796 200.609C162.432 200.182 161.979 199.844 161.437 199.594C160.906 199.344 160.275 199.219 159.546 199.219C158.755 199.219 158.072 199.385 157.499 199.719C156.937 200.042 156.473 200.49 156.109 201.062C155.744 201.625 155.473 202.281 155.296 203.031C155.13 203.771 155.046 204.562 155.046 205.406ZM171.436 205.734V205.375C171.436 204.156 171.613 203.026 171.967 201.984C172.321 200.932 172.831 200.021 173.498 199.25C174.165 198.469 174.972 197.865 175.92 197.438C176.868 197 177.93 196.781 179.107 196.781C180.295 196.781 181.363 197 182.311 197.438C183.269 197.865 184.081 198.469 184.748 199.25C185.425 200.021 185.941 200.932 186.295 201.984C186.649 203.026 186.826 204.156 186.826 205.375V205.734C186.826 206.953 186.649 208.083 186.295 209.125C185.941 210.167 185.425 211.078 184.748 211.859C184.081 212.63 183.274 213.234 182.326 213.672C181.389 214.099 180.326 214.312 179.139 214.312C177.951 214.312 176.884 214.099 175.936 213.672C174.988 213.234 174.175 212.63 173.498 211.859C172.831 211.078 172.321 210.167 171.967 209.125C171.613 208.083 171.436 206.953 171.436 205.734ZM174.326 205.375V205.734C174.326 206.578 174.425 207.375 174.623 208.125C174.821 208.865 175.118 209.521 175.514 210.094C175.92 210.667 176.425 211.12 177.029 211.453C177.634 211.776 178.337 211.938 179.139 211.938C179.93 211.938 180.623 211.776 181.217 211.453C181.821 211.12 182.321 210.667 182.717 210.094C183.113 209.521 183.41 208.865 183.607 208.125C183.816 207.375 183.92 206.578 183.92 205.734V205.375C183.92 204.542 183.816 203.755 183.607 203.016C183.41 202.266 183.107 201.604 182.701 201.031C182.305 200.448 181.805 199.99 181.201 199.656C180.607 199.323 179.91 199.156 179.107 199.156C178.316 199.156 177.618 199.323 177.014 199.656C176.42 199.99 175.92 200.448 175.514 201.031C175.118 201.604 174.821 202.266 174.623 203.016C174.425 203.755 174.326 204.542 174.326 205.375ZM194.622 199.75V214H191.731V197.094H194.544L194.622 199.75ZM199.903 197L199.887 199.688C199.648 199.635 199.419 199.604 199.2 199.594C198.992 199.573 198.752 199.562 198.481 199.562C197.815 199.562 197.226 199.667 196.716 199.875C196.205 200.083 195.773 200.375 195.419 200.75C195.065 201.125 194.783 201.573 194.575 202.094C194.377 202.604 194.247 203.167 194.184 203.781L193.372 204.25C193.372 203.229 193.471 202.271 193.669 201.375C193.877 200.479 194.195 199.688 194.622 199C195.049 198.302 195.591 197.76 196.247 197.375C196.914 196.979 197.705 196.781 198.622 196.781C198.83 196.781 199.07 196.807 199.341 196.859C199.611 196.901 199.799 196.948 199.903 197ZM210.558 214.312C209.381 214.312 208.313 214.115 207.355 213.719C206.407 213.312 205.589 212.745 204.902 212.016C204.225 211.286 203.704 210.422 203.339 209.422C202.975 208.422 202.793 207.328 202.793 206.141V205.484C202.793 204.109 202.996 202.885 203.402 201.812C203.808 200.729 204.36 199.812 205.058 199.062C205.756 198.312 206.548 197.745 207.433 197.359C208.319 196.974 209.235 196.781 210.183 196.781C211.391 196.781 212.433 196.99 213.308 197.406C214.194 197.823 214.918 198.406 215.48 199.156C216.043 199.896 216.459 200.771 216.73 201.781C217.001 202.781 217.136 203.875 217.136 205.062V206.359H204.511V204H214.246V203.781C214.204 203.031 214.048 202.302 213.777 201.594C213.516 200.885 213.1 200.302 212.527 199.844C211.954 199.385 211.173 199.156 210.183 199.156C209.527 199.156 208.923 199.297 208.371 199.578C207.819 199.849 207.345 200.255 206.949 200.797C206.553 201.339 206.246 202 206.027 202.781C205.808 203.562 205.699 204.464 205.699 205.484V206.141C205.699 206.943 205.808 207.698 206.027 208.406C206.256 209.104 206.584 209.719 207.011 210.25C207.449 210.781 207.975 211.198 208.589 211.5C209.214 211.802 209.923 211.953 210.714 211.953C211.735 211.953 212.6 211.745 213.308 211.328C214.016 210.911 214.636 210.354 215.168 209.656L216.918 211.047C216.553 211.599 216.089 212.125 215.527 212.625C214.964 213.125 214.272 213.531 213.449 213.844C212.636 214.156 211.673 214.312 210.558 214.312ZM231.635 209.516C231.635 209.099 231.541 208.714 231.354 208.359C231.177 207.995 230.807 207.667 230.244 207.375C229.692 207.073 228.859 206.812 227.744 206.594C226.807 206.396 225.958 206.161 225.198 205.891C224.448 205.62 223.807 205.292 223.276 204.906C222.755 204.521 222.354 204.068 222.073 203.547C221.791 203.026 221.651 202.417 221.651 201.719C221.651 201.052 221.796 200.422 222.088 199.828C222.39 199.234 222.812 198.708 223.354 198.25C223.906 197.792 224.567 197.432 225.338 197.172C226.109 196.911 226.968 196.781 227.916 196.781C229.27 196.781 230.427 197.021 231.385 197.5C232.343 197.979 233.078 198.62 233.588 199.422C234.099 200.214 234.354 201.094 234.354 202.062H231.463C231.463 201.594 231.323 201.141 231.041 200.703C230.77 200.255 230.369 199.885 229.838 199.594C229.317 199.302 228.677 199.156 227.916 199.156C227.114 199.156 226.463 199.281 225.963 199.531C225.474 199.771 225.114 200.078 224.885 200.453C224.666 200.828 224.557 201.224 224.557 201.641C224.557 201.953 224.609 202.234 224.713 202.484C224.828 202.724 225.026 202.948 225.307 203.156C225.588 203.354 225.984 203.542 226.494 203.719C227.005 203.896 227.656 204.073 228.448 204.25C229.833 204.562 230.974 204.938 231.869 205.375C232.765 205.812 233.432 206.349 233.869 206.984C234.307 207.62 234.526 208.391 234.526 209.297C234.526 210.036 234.369 210.714 234.057 211.328C233.755 211.943 233.312 212.474 232.729 212.922C232.156 213.359 231.468 213.703 230.666 213.953C229.875 214.193 228.984 214.312 227.994 214.312C226.505 214.312 225.244 214.047 224.213 213.516C223.182 212.984 222.401 212.297 221.869 211.453C221.338 210.609 221.073 209.719 221.073 208.781H223.979C224.02 209.573 224.25 210.203 224.666 210.672C225.083 211.13 225.593 211.458 226.198 211.656C226.802 211.844 227.401 211.938 227.994 211.938C228.786 211.938 229.448 211.833 229.979 211.625C230.52 211.417 230.932 211.13 231.213 210.766C231.494 210.401 231.635 209.984 231.635 209.516Z" fill="#7FB26F"/>
</svg>
